<svg xmlns="http://www.w3.org/2000/svg" xmlns:xlink="http://www.w3.org/1999/xlink" width="1920" height="1080" viewBox="0 0 1920 1080"><defs><filter id="a" x="235.5" y="198.963" width="154.214" height="154.214" filterUnits="userSpaceOnUse"><feOffset dy="4" input="SourceAlpha"/><feGaussianBlur stdDeviation="4" result="b"/><feFlood flood-opacity="0.102"/><feComposite operator="in" in2="b"/><feComposite in="SourceGraphic"/></filter><filter id="c" x="632.195" y="195.976" width="156.389" height="156.389" filterUnits="userSpaceOnUse"><feOffset dy="4" input="SourceAlpha"/><feGaussianBlur stdDeviation="4" result="d"/><feFlood flood-opacity="0.102"/><feComposite operator="in" in2="d"/><feComposite in="SourceGraphic"/></filter><filter id="e" x="1473.738" y="195.336" width="158.524" height="158.524" filterUnits="userSpaceOnUse"><feOffset dy="4" input="SourceAlpha"/><feGaussianBlur stdDeviation="4" result="f"/><feFlood flood-opacity="0.102"/><feComposite operator="in" in2="f"/><feComposite in="SourceGraphic"/></filter><filter id="g" x="1006.476" y="184.647" width="154.214" height="154.214" filterUnits="userSpaceOnUse"><feOffset dy="4" input="SourceAlpha"/><feGaussianBlur stdDeviation="4" result="h"/><feFlood flood-opacity="0.102"/><feComposite operator="in" in2="h"/><feComposite in="SourceGraphic"/></filter><filter id="i" x="620.231" y="330.393" width="152" height="152" filterUnits="userSpaceOnUse"><feOffset dy="4" input="SourceAlpha"/><feGaussianBlur stdDeviation="4" result="j"/><feFlood flood-opacity="0.102"/><feComposite operator="in" in2="j"/><feComposite in="SourceGraphic"/></filter><filter id="k" x="1466.331" y="343.53" width="158.524" height="158.524" filterUnits="userSpaceOnUse"><feOffset dy="4" input="SourceAlpha"/><feGaussianBlur stdDeviation="4" result="l"/><feFlood flood-opacity="0.102"/><feComposite operator="in" in2="l"/><feComposite in="SourceGraphic"/></filter><filter id="m" x="1155.771" y="192.785" width="158.524" height="158.524" filterUnits="userSpaceOnUse"><feOffset dy="4" input="SourceAlpha"/><feGaussianBlur stdDeviation="4" result="n"/><feFlood flood-opacity="0.102"/><feComposite operator="in" in2="n"/><feComposite in="SourceGraphic"/></filter><filter id="o" x="645.544" y="465.869" width="156.389" height="156.389" filterUnits="userSpaceOnUse"><feOffset dy="4" input="SourceAlpha"/><feGaussianBlur stdDeviation="4" result="p"/><feFlood flood-opacity="0.102"/><feComposite operator="in" in2="p"/><feComposite in="SourceGraphic"/></filter><filter id="q" x="1461" y="491.859" width="152" height="152" filterUnits="userSpaceOnUse"><feOffset dy="4" input="SourceAlpha"/><feGaussianBlur stdDeviation="4" result="r"/><feFlood flood-opacity="0.102"/><feComposite operator="in" in2="r"/><feComposite in="SourceGraphic"/></filter><filter id="s" x="1006.476" y="322.103" width="158.524" height="158.524" filterUnits="userSpaceOnUse"><feOffset dy="4" input="SourceAlpha"/><feGaussianBlur stdDeviation="4" result="t"/><feFlood flood-opacity="0.102"/><feComposite operator="in" in2="t"/><feComposite in="SourceGraphic"/></filter><filter id="u" x="644.476" y="748.654" width="158.524" height="158.524" filterUnits="userSpaceOnUse"><feOffset dy="4" input="SourceAlpha"/><feGaussianBlur stdDeviation="4" result="v"/><feFlood flood-opacity="0.102"/><feComposite operator="in" in2="v"/><feComposite in="SourceGraphic"/></filter><filter id="w" x="1464.259" y="781.73" width="158.524" height="158.524" filterUnits="userSpaceOnUse"><feOffset dy="4" input="SourceAlpha"/><feGaussianBlur stdDeviation="4" result="x"/><feFlood flood-opacity="0.102"/><feComposite operator="in" in2="x"/><feComposite in="SourceGraphic"/></filter><filter id="y" x="1000.691" y="471.318" width="160.617" height="160.617" filterUnits="userSpaceOnUse"><feOffset dy="4" input="SourceAlpha"/><feGaussianBlur stdDeviation="4" result="z"/><feFlood flood-opacity="0.102"/><feComposite operator="in" in2="z"/><feComposite in="SourceGraphic"/></filter><filter id="aa" x="765.671" y="381.977" width="156.389" height="156.389" filterUnits="userSpaceOnUse"><feOffset dy="4" input="SourceAlpha"/><feGaussianBlur stdDeviation="4" result="ab"/><feFlood flood-opacity="0.102"/><feComposite operator="in" in2="ab"/><feComposite in="SourceGraphic"/></filter><filter id="ac" x="1157.925" y="480.87" width="154.214" height="154.214" filterUnits="userSpaceOnUse"><feOffset dy="4" input="SourceAlpha"/><feGaussianBlur stdDeviation="4" result="ad"/><feFlood flood-opacity="0.102"/><feComposite operator="in" in2="ad"/><feComposite in="SourceGraphic"/></filter><filter id="ae" x="1149.512" y="632.043" width="154.214" height="154.214" filterUnits="userSpaceOnUse"><feOffset dy="4" input="SourceAlpha"/><feGaussianBlur stdDeviation="4" result="af"/><feFlood flood-opacity="0.102"/><feComposite operator="in" in2="af"/><feComposite in="SourceGraphic"/></filter><filter id="ag" x="1000" y="762.258" width="154.214" height="154.214" filterUnits="userSpaceOnUse"><feOffset dy="4" input="SourceAlpha"/><feGaussianBlur stdDeviation="4" result="ah"/><feFlood flood-opacity="0.102"/><feComposite operator="in" in2="ah"/><feComposite in="SourceGraphic"/></filter><filter id="ai" x="1149.512" y="779.636" width="160.617" height="160.617" filterUnits="userSpaceOnUse"><feOffset dy="4" input="SourceAlpha"/><feGaussianBlur stdDeviation="4" result="aj"/><feFlood flood-opacity="0.102"/><feComposite operator="in" in2="aj"/><feComposite in="SourceGraphic"/></filter><filter id="ak" x="1018.684" y="906.321" width="158.524" height="158.523" filterUnits="userSpaceOnUse"><feOffset dy="4" input="SourceAlpha"/><feGaussianBlur stdDeviation="4" result="al"/><feFlood flood-opacity="0.102"/><feComposite operator="in" in2="al"/><feComposite in="SourceGraphic"/></filter><filter id="am" x="634.369" y="605.734" width="154.214" height="154.214" filterUnits="userSpaceOnUse"><feOffset dy="4" input="SourceAlpha"/><feGaussianBlur stdDeviation="4" result="an"/><feFlood flood-opacity="0.102"/><feComposite operator="in" in2="an"/><feComposite in="SourceGraphic"/></filter><filter id="ao" x="1445" y="633.597" width="156.389" height="156.389" filterUnits="userSpaceOnUse"><feOffset dy="4" input="SourceAlpha"/><feGaussianBlur stdDeviation="4" result="ap"/><feFlood flood-opacity="0.102"/><feComposite operator="in" in2="ap"/><feComposite in="SourceGraphic"/></filter><filter id="aq" x="1167.771" y="337.895" width="156.389" height="156.389" filterUnits="userSpaceOnUse"><feOffset dy="4" input="SourceAlpha"/><feGaussianBlur stdDeviation="4" result="ar"/><feFlood flood-opacity="0.102"/><feComposite operator="in" in2="ar"/><feComposite in="SourceGraphic"/></filter><filter id="as" x="626.476" y="895.963" width="152" height="152" filterUnits="userSpaceOnUse"><feOffset dy="4" input="SourceAlpha"/><feGaussianBlur stdDeviation="4" result="at"/><feFlood flood-opacity="0.102"/><feComposite operator="in" in2="at"/><feComposite in="SourceGraphic"/></filter><filter id="au" x="1618.294" y="235.551" width="160.617" height="160.617" filterUnits="userSpaceOnUse"><feOffset dy="4" input="SourceAlpha"/><feGaussianBlur stdDeviation="4" result="av"/><feFlood flood-opacity="0.102"/><feComposite operator="in" in2="av"/><feComposite in="SourceGraphic"/></filter><filter id="aw" x="1624.697" y="376.43" width="154.214" height="154.214" filterUnits="userSpaceOnUse"><feOffset dy="4" input="SourceAlpha"/><feGaussianBlur stdDeviation="4" result="ax"/><feFlood flood-opacity="0.102"/><feComposite operator="in" in2="ax"/><feComposite in="SourceGraphic"/></filter><filter id="ay" x="991" y="622.627" width="156.389" height="156.389" filterUnits="userSpaceOnUse"><feOffset dy="4" input="SourceAlpha"/><feGaussianBlur stdDeviation="4" result="az"/><feFlood flood-opacity="0.102"/><feComposite operator="in" in2="az"/><feComposite in="SourceGraphic"/></filter><filter id="ba" x="863" y="628" width="152" height="152" filterUnits="userSpaceOnUse"><feOffset dy="4" input="SourceAlpha"/><feGaussianBlur stdDeviation="4" result="bb"/><feFlood flood-opacity="0.102"/><feComposite operator="in" in2="bb"/><feComposite in="SourceGraphic"/></filter><filter id="bc" x="238.701" y="341.856" width="154.214" height="154.214" filterUnits="userSpaceOnUse"><feOffset dy="4" input="SourceAlpha"/><feGaussianBlur stdDeviation="4" result="bd"/><feFlood flood-opacity="0.102"/><feComposite operator="in" in2="bd"/><feComposite in="SourceGraphic"/></filter><filter id="be" x="220.99" y="484.748" width="160.617" height="160.617" filterUnits="userSpaceOnUse"><feOffset dy="4" input="SourceAlpha"/><feGaussianBlur stdDeviation="4" result="bf"/><feFlood flood-opacity="0.102"/><feComposite operator="in" in2="bf"/><feComposite in="SourceGraphic"/></filter><filter id="bg" x="243.01" y="638.352" width="152" height="152" filterUnits="userSpaceOnUse"><feOffset dy="4" input="SourceAlpha"/><feGaussianBlur stdDeviation="4" result="bh"/><feFlood flood-opacity="0.102"/><feComposite operator="in" in2="bh"/><feComposite in="SourceGraphic"/></filter><filter id="bi" x="797.893" y="514.366" width="154.214" height="154.214" filterUnits="userSpaceOnUse"><feOffset dy="4" input="SourceAlpha"/><feGaussianBlur stdDeviation="4" result="bj"/><feFlood flood-opacity="0.102"/><feComposite operator="in" in2="bj"/><feComposite in="SourceGraphic"/></filter><filter id="bk" x="233.805" y="55.805" width="156.389" height="156.389" filterUnits="userSpaceOnUse"><feOffset dy="4" input="SourceAlpha"/><feGaussianBlur stdDeviation="4" result="bl"/><feFlood flood-opacity="0.102"/><feComposite operator="in" in2="bl"/><feComposite in="SourceGraphic"/></filter><filter id="bm" x="633.282" y="55.54" width="154.214" height="154.214" filterUnits="userSpaceOnUse"><feOffset dy="4" input="SourceAlpha"/><feGaussianBlur stdDeviation="4" result="bn"/><feFlood flood-opacity="0.102"/><feComposite operator="in" in2="bn"/><feComposite in="SourceGraphic"/></filter><filter id="bo" x="1077" y="45.105" width="152" height="152" filterUnits="userSpaceOnUse"><feOffset dy="4" input="SourceAlpha"/><feGaussianBlur stdDeviation="4" result="bp"/><feFlood flood-opacity="0.102"/><feComposite operator="in" in2="bp"/><feComposite in="SourceGraphic"/></filter><filter id="bq" x="1542.067" y="49.208" width="156.389" height="156.389" filterUnits="userSpaceOnUse"><feOffset dy="4" input="SourceAlpha"/><feGaussianBlur stdDeviation="4" result="br"/><feFlood flood-opacity="0.102"/><feComposite operator="in" in2="br"/><feComposite in="SourceGraphic"/></filter><clipPath id="bt"><rect width="1920" height="1080"/></clipPath></defs><g id="bs" clip-path="url(#bt)"><rect width="1920" height="1080" fill="#eee"/><g transform="matrix(1, 0.017, -0.017, 1, 249.734, 206.963)"><g transform="matrix(1, -0.02, 0.02, 1, -253.31, -202.57)" filter="url(#a)"><path d="M0,0H128a0,0,0,0,1,0,0V112a16,16,0,0,1-16,16H0a0,0,0,0,1,0,0V0A0,0,0,0,1,0,0Z" transform="matrix(1, 0.02, -0.02, 1, 249.73, 206.96)" fill="#fff5a5"/></g><text transform="translate(64 72)" fill="#262626" font-size="20" font-family="ComicSansMS, Comic Sans MS"><tspan x="-31.069" y="0">Simple</tspan></text></g><g transform="matrix(0.999, 0.035, -0.035, 0.999, 648.662, 203.976)"><g transform="matrix(1, -0.03, 0.03, 1, -655.39, -181.21)" filter="url(#c)"><path d="M0,0H128a0,0,0,0,1,0,0V112a16,16,0,0,1-16,16H0a0,0,0,0,1,0,0V0A0,0,0,0,1,0,0Z" transform="matrix(1, 0.03, -0.03, 1, 648.66, 203.98)" fill="#fff5a5"/></g><text transform="translate(64 72)" fill="#262626" font-size="20" font-family="ComicSansMS, Comic Sans MS"><tspan x="-52.93" y="0">Easy to use</tspan></text></g><g transform="translate(1485.738 210.035) rotate(-3)"><g transform="matrix(1, 0.05, -0.05, 1, -1472.71, -287.5)" filter="url(#e)"><path d="M0,0H128a0,0,0,0,1,0,0V112a16,16,0,0,1-16,16H0a0,0,0,0,1,0,0V0A0,0,0,0,1,0,0Z" transform="translate(1485.74 210.03) rotate(-3)" fill="#fff5a5"/></g><text transform="translate(64 72)" fill="#262626" font-size="20" font-family="ComicSansMS, Comic Sans MS"><tspan x="-52.666" y="0">Distraction</tspan></text></g><g transform="matrix(1, -0.017, 0.017, 1, 1018.476, 194.881)"><g transform="matrix(1, 0.02, -0.02, 1, -1014.92, -212.63)" filter="url(#g)"><path d="M0,0H128a0,0,0,0,1,0,0V112a16,16,0,0,1-16,16H0a0,0,0,0,1,0,0V0A0,0,0,0,1,0,0Z" transform="matrix(1, -0.02, 0.02, 1, 1018.48, 194.88)" fill="#fff5a5"/></g><text transform="translate(64 60)" fill="#262626" font-size="20" font-family="ComicSansMS, Comic Sans MS"><tspan x="-56.831" y="0">Distraction-</tspan><tspan x="-20.845" y="28">free</tspan></text></g><g transform="translate(632.231 338.393)"><g transform="matrix(1, 0, 0, 1, -632.23, -338.39)" filter="url(#i)"><path d="M0,0H128a0,0,0,0,1,0,0V112a16,16,0,0,1-16,16H0a0,0,0,0,1,0,0V0A0,0,0,0,1,0,0Z" transform="translate(632.23 338.39)" fill="#fff5a5"/></g><text transform="translate(64 72)" fill="#262626" font-size="20" font-family="ComicSansMS, Comic Sans MS"><tspan x="-48.467" y="0">Sufficient</tspan></text></g><g transform="translate(1485.03 351.53) rotate(3)"><g transform="matrix(1, -0.05, 0.05, 1, -1501.39, -273.33)" filter="url(#k)"><path d="M0,0H128a0,0,0,0,1,0,0V112a16,16,0,0,1-16,16H0a0,0,0,0,1,0,0V0A0,0,0,0,1,0,0Z" transform="translate(1485.03 351.53) rotate(3)" fill="#fff5a5"/></g><text transform="translate(64 72)" fill="#262626" font-size="20" font-family="ComicSansMS, Comic Sans MS"><tspan x="-29.067" y="0">Causal</tspan></text></g><g transform="translate(1174.47 200.785) rotate(3)"><g transform="matrix(1, -0.05, 0.05, 1, -1183.37, -139.04)" filter="url(#m)"><path d="M0,0H128a0,0,0,0,1,0,0V112a16,16,0,0,1-16,16H0a0,0,0,0,1,0,0V0A0,0,0,0,1,0,0Z" transform="translate(1174.47 200.79) rotate(3)" fill="#fff5a5"/></g><text transform="translate(64 72)" fill="#262626" font-size="20" font-family="ComicSansMS, Comic Sans MS"><tspan x="-56.719" y="0">Professional</tspan></text></g><g transform="translate(657.544 478.336) rotate(-2)"><g transform="matrix(1, 0.03, -0.03, 1, -640.45, -500.99)" filter="url(#o)"><path d="M0,0H128a0,0,0,0,1,0,0V112a16,16,0,0,1-16,16H0a0,0,0,0,1,0,0V0A0,0,0,0,1,0,0Z" transform="translate(657.54 478.34) rotate(-2)" fill="#fff5a5"/></g><text transform="translate(64 71)" fill="#262626" font-size="20" font-family="ComicSansMS, Comic Sans MS"><tspan x="-55.205" y="0">Time-saving</tspan></text></g><g transform="translate(1473 499.859)"><g transform="matrix(1, 0, 0, 1, -1473, -499.86)" filter="url(#q)"><path d="M0,0H128a0,0,0,0,1,0,0V112a16,16,0,0,1-16,16H0a0,0,0,0,1,0,0V0A0,0,0,0,1,0,0Z" transform="translate(1473 499.86)" fill="#fff5a5"/></g><text transform="translate(64 32)" fill="#262626" font-size="20" font-family="ComicSansMS, Comic Sans MS"><tspan x="-51.953" y="0">Processing </tspan><tspan x="-26.221" y="28">small </tspan><tspan x="-49.609" y="56">amount of </tspan><tspan x="-20.806" y="84">text</tspan></text></g><g transform="translate(1025.175 330.103) rotate(3)"><g transform="matrix(1, -0.05, 0.05, 1, -1041.05, -276)" filter="url(#s)"><path d="M0,0H128a0,0,0,0,1,0,0V112a16,16,0,0,1-16,16H0a0,0,0,0,1,0,0V0A0,0,0,0,1,0,0Z" transform="translate(1025.18 330.1) rotate(3)" fill="#fff5a5"/></g><text transform="translate(64 32)" fill="#262626" font-size="20" font-family="ComicSansMS, Comic Sans MS"><tspan x="-51.953" y="0">Processing </tspan><tspan x="-26.436" y="28">large </tspan><tspan x="-49.609" y="56">amount of </tspan><tspan x="-20.806" y="84">text</tspan></text></g><g transform="translate(663.175 756.654) rotate(3)"><g transform="matrix(1, -0.05, 0.05, 1, -701.87, -720.91)" filter="url(#u)"><path d="M0,0H128a0,0,0,0,1,0,0V112a16,16,0,0,1-16,16H0a0,0,0,0,1,0,0V0A0,0,0,0,1,0,0Z" transform="translate(663.18 756.65) rotate(3)" fill="#fff5a5"/></g><text transform="translate(64 60)" fill="#262626" font-size="20" font-family="ComicSansMS, Comic Sans MS"><tspan x="-45.166" y="0">Grammar </tspan><tspan x="-26.929" y="28">check</tspan></text></g><g transform="translate(1482.958 789.73) rotate(3)"><g transform="matrix(1, -0.05, 0.05, 1, -1522.26, -711.04)" filter="url(#w)"><path d="M0,0H128a0,0,0,0,1,0,0V112a16,16,0,0,1-16,16H0a0,0,0,0,1,0,0V0A0,0,0,0,1,0,0Z" transform="translate(1482.96 789.73) rotate(3)" fill="#fff5a5"/></g><text transform="translate(64 45)" fill="#262626" font-size="20" font-family="ComicSansMS, Comic Sans MS"><tspan x="-46.245" y="0">Animation</tspan><tspan x="-6.543" y="28">&amp;</tspan><tspan x="-20.239" y="56">SFX</tspan></text></g><g transform="matrix(0.998, -0.07, 0.07, 0.998, 1012.691, 488.247)"><g transform="matrix(1, 0.07, -0.07, 1, -976.17, -557.7)" filter="url(#y)"><path d="M0,0H128a0,0,0,0,1,0,0V112a16,16,0,0,1-16,16H0a0,0,0,0,1,0,0V0A0,0,0,0,1,0,0Z" transform="matrix(1, -0.07, 0.07, 1, 1012.69, 488.25)" fill="#fff5a5"/></g><text transform="translate(64 72)" fill="#262626" font-size="20" font-family="ComicSansMS, Comic Sans MS"><tspan x="-45.083" y="0">MS Word</tspan></text></g><g transform="translate(782.138 389.977) rotate(2)"><g transform="matrix(1, -0.03, 0.03, 1, -795.27, -362.44)" filter="url(#aa)"><path d="M0,0H128a0,0,0,0,1,0,0V112a16,16,0,0,1-16,16H0a0,0,0,0,1,0,0V0A0,0,0,0,1,0,0Z" transform="translate(782.14 389.98) rotate(2)" fill="#fff5a5"/></g><text transform="translate(64 72)" fill="#262626" font-size="20" font-family="ComicSansMS, Comic Sans MS"><tspan x="-29.473" y="0">Online</tspan></text></g><g transform="matrix(1, 0.017, -0.017, 1, 1172.159, 488.87)"><g transform="matrix(1, -0.02, 0.02, 1, -1180.51, -468.34)" filter="url(#ac)"><path d="M0,0H128a0,0,0,0,1,0,0V112a16,16,0,0,1-16,16H0a0,0,0,0,1,0,0V0A0,0,0,0,1,0,0Z" transform="matrix(1, 0.02, -0.02, 1, 1172.16, 488.87)" fill="#fff5a5"/></g><text transform="translate(64 58)" fill="#262626" font-size="20" font-family="ComicSansMS, Comic Sans MS"><tspan x="-18.75" y="0">MS </tspan><tspan x="-42.114" y="28">OneNote</tspan></text></g><g transform="matrix(1, -0.017, 0.017, 1, 1161.512, 642.277)"><g transform="matrix(1, 0.02, -0.02, 1, -1150.13, -662.45)" filter="url(#ae)"><path d="M0,0H128a0,0,0,0,1,0,0V112a16,16,0,0,1-16,16H0a0,0,0,0,1,0,0V0A0,0,0,0,1,0,0Z" transform="matrix(1, -0.02, 0.02, 1, 1161.51, 642.28)" fill="#fff5a5"/></g><text transform="translate(64 72)" fill="#262626" font-size="20" font-family="ComicSansMS, Comic Sans MS"><tspan x="-57.5" y="0">Apple Notes</tspan></text></g><g transform="matrix(1, 0.017, -0.017, 1, 1014.234, 770.258)"><g transform="matrix(1, -0.02, 0.02, 1, -1027.52, -752.44)" filter="url(#ag)"><path d="M0,0H128a0,0,0,0,1,0,0V112a16,16,0,0,1-16,16H0a0,0,0,0,1,0,0V0A0,0,0,0,1,0,0Z" transform="matrix(1, 0.02, -0.02, 1, 1014.23, 770.26)" fill="#fff5a5"/></g><text transform="translate(64 72)" fill="#262626" font-size="20" font-family="ComicSansMS, Comic Sans MS"><tspan x="-55.19" y="0">Apple Pages</tspan></text></g><g transform="matrix(0.998, 0.07, -0.07, 0.998, 1170.441, 787.637)"><g transform="matrix(1, -0.07, 0.07, 1, -1222.53, -704.07)" filter="url(#ai)"><path d="M0,0H128a0,0,0,0,1,0,0V112a16,16,0,0,1-16,16H0a0,0,0,0,1,0,0V0A0,0,0,0,1,0,0Z" transform="matrix(1, 0.07, -0.07, 1, 1170.44, 787.64)" fill="#fff5a5"/></g><text transform="translate(64 72)" fill="#262626" font-size="20" font-family="ComicSansMS, Comic Sans MS"><tspan x="-31.733" y="0">uFocus</tspan></text></g><g transform="translate(1030.684 921.02) rotate(-3)"><g transform="matrix(1, 0.05, -0.05, 1, -981.07, -973.7)" filter="url(#ak)"><path d="M0,0H128a0,0,0,0,1,0,0V112a16,16,0,0,1-16,16H0a0,0,0,0,1,0,0V0A0,0,0,0,1,0,0Z" transform="translate(1030.68 921.02) rotate(-3)" fill="#fff5a5"/></g><text transform="translate(64 72)" fill="#262626" font-size="18" font-family="ComicSansMS, Comic Sans MS"><tspan x="-57.239" y="0">WriteMonkey</tspan></text></g><g transform="translate(648.603 613.734) rotate(1)"><g transform="matrix(1, -0.02, 0.02, 1, -659.22, -602.32)" filter="url(#am)"><path d="M0,0H128a0,0,0,0,1,0,0V112a16,16,0,0,1-16,16H0a0,0,0,0,1,0,0V0A0,0,0,0,1,0,0Z" transform="translate(648.6 613.73) rotate(1)" fill="#fff5a5"/></g><text transform="translate(64 71)" fill="#262626" font-size="20" font-family="ComicSansMS, Comic Sans MS"><tspan x="-53.325" y="0">Free to use</tspan></text></g><g transform="matrix(0.999, 0.035, -0.035, 0.999, 1461.467, 641.597)"><g transform="matrix(1, -0.03, 0.03, 1, -1482.97, -590.2)" filter="url(#ao)"><path d="M0,0H128a0,0,0,0,1,0,0V112a16,16,0,0,1-16,16H0a0,0,0,0,1,0,0V0A0,0,0,0,1,0,0Z" transform="matrix(1, 0.03, -0.03, 1, 1461.47, 641.6)" fill="#fff5a5"/></g><text transform="translate(64 71)" fill="#262626" font-size="20" font-family="ComicSansMS, Comic Sans MS"><tspan x="-32.178" y="0">Quirky</tspan></text></g><g transform="translate(1184.238 345.895) rotate(2)"><g transform="matrix(1, -0.03, 0.03, 1, -1195.59, -304.36)" filter="url(#aq)"><path d="M0,0H128a0,0,0,0,1,0,0V112a16,16,0,0,1-16,16H0a0,0,0,0,1,0,0V0A0,0,0,0,1,0,0Z" transform="translate(1184.24 345.9) rotate(2)" fill="#fff5a5"/></g><text transform="translate(64 71)" fill="#262626" font-size="20" font-family="ComicSansMS, Comic Sans MS"><tspan x="-40.771" y="0">Practical</tspan></text></g><g transform="translate(638.476 903.963)"><g transform="matrix(1, 0, 0, 1, -638.48, -903.96)" filter="url(#as)"><path d="M0,0H128a0,0,0,0,1,0,0V112a16,16,0,0,1-16,16H0a0,0,0,0,1,0,0V0A0,0,0,0,1,0,0Z" transform="translate(638.48 903.96)" fill="#fff5a5"/></g><text transform="translate(64 60)" fill="#262626" font-size="20" font-family="ComicSansMS, Comic Sans MS"><tspan x="-47.085" y="0">Samll app </tspan><tspan x="-18.53" y="28">size</tspan></text></g><g transform="matrix(0.998, -0.07, 0.07, 0.998, 1630.294, 252.479)"><g transform="matrix(1, 0.07, -0.07, 1, -1608.71, -365.59)" filter="url(#au)"><path d="M0,0H128a0,0,0,0,1,0,0V112a16,16,0,0,1-16,16H0a0,0,0,0,1,0,0V0A0,0,0,0,1,0,0Z" transform="matrix(1, -0.07, 0.07, 1, 1630.29, 252.48)" fill="#fff5a5"/></g><text transform="translate(64 72)" fill="#262626" font-size="20" font-family="ComicSansMS, Comic Sans MS"><tspan x="-46.421" y="0">Textreme</tspan></text></g><g transform="matrix(1, 0.017, -0.017, 1, 1638.931, 384.43)"><g transform="matrix(1, -0.02, 0.02, 1, -1645.39, -355.77)" filter="url(#aw)"><path d="M0,0H128a0,0,0,0,1,0,0V112a16,16,0,0,1-16,16H0a0,0,0,0,1,0,0V0A0,0,0,0,1,0,0Z" transform="matrix(1, 0.02, -0.02, 1, 1638.93, 384.43)" fill="#fff5a5"/></g><text transform="translate(64 72)" fill="#262626" font-size="20" font-family="ComicSansMS, Comic Sans MS"><tspan x="-55.513" y="0">Textreme 2</tspan></text></g><g transform="matrix(0.999, 0.035, -0.035, 0.999, 1007.467, 630.627)"><g transform="matrix(1, -0.03, 0.03, 1, -1028.86, -595.08)" filter="url(#ay)"><path d="M0,0H128a0,0,0,0,1,0,0V112a16,16,0,0,1-16,16H0a0,0,0,0,1,0,0V0A0,0,0,0,1,0,0Z" transform="matrix(1, 0.03, -0.03, 1, 1007.47, 630.63)" fill="#fff5a5"/></g><text transform="translate(64 72)" fill="#262626" font-size="20" font-family="ComicSansMS, Comic Sans MS"><tspan x="-51.44" y="0">Google Doc</tspan></text></g><g transform="translate(875 636)"><g transform="matrix(1, 0, 0, 1, -875, -636)" filter="url(#ba)"><path d="M0,0H128a0,0,0,0,1,0,0V112a16,16,0,0,1-16,16H0a0,0,0,0,1,0,0V0A0,0,0,0,1,0,0Z" transform="translate(875 636)" fill="#fff5a5"/></g><text transform="translate(64 71)" fill="#262626" font-size="20" font-family="ComicSansMS, Comic Sans MS"><tspan x="-47.378" y="0">Shareable</tspan></text></g><g transform="matrix(1, 0.017, -0.017, 1, 252.935, 349.856)"><g transform="matrix(1, -0.02, 0.02, 1, -259, -345.39)" filter="url(#bc)"><path d="M0,0H128a0,0,0,0,1,0,0V112a16,16,0,0,1-16,16H0a0,0,0,0,1,0,0V0A0,0,0,0,1,0,0Z" transform="matrix(1, 0.02, -0.02, 1, 252.94, 349.86)" fill="#fff5a5"/></g><text transform="translate(64 72)" fill="#262626" font-size="20" font-family="ComicSansMS, Comic Sans MS"><tspan x="-24.595" y="0">Clean</tspan></text></g><g transform="matrix(0.998, -0.07, 0.07, 0.998, 232.99, 501.677)"><g transform="matrix(1, 0.07, -0.07, 1, -197.43, -516.71)" filter="url(#be)"><path d="M0,0H128a0,0,0,0,1,0,0V112a16,16,0,0,1-16,16H0a0,0,0,0,1,0,0V0A0,0,0,0,1,0,0Z" transform="matrix(1, -0.07, 0.07, 1, 232.99, 501.68)" fill="#fff5a5"/></g><text transform="translate(64 59)" fill="#262626" font-size="20" font-family="ComicSansMS, Comic Sans MS"><tspan x="-36.157" y="0">Not too</tspan><tspan x="-25.776" y="28">fancy</tspan></text></g><g transform="translate(255.01 646.352)"><g transform="matrix(1, 0, 0, 1, -255.01, -646.35)" filter="url(#bg)"><path d="M0,0H128a0,0,0,0,1,0,0V112a16,16,0,0,1-16,16H0a0,0,0,0,1,0,0V0A0,0,0,0,1,0,0Z" transform="translate(255.01 646.35)" fill="#fff5a5"/></g><text transform="translate(64 59)" fill="#262626" font-size="20" font-family="ComicSansMS, Comic Sans MS"><tspan x="-27.354" y="0">Good-</tspan><tspan x="-32.002" y="28">looking</tspan></text></g><g transform="matrix(1, -0.017, 0.017, 1, 809.893, 524.6)"><g transform="matrix(1, 0.02, -0.02, 1, -800.61, -538.65)" filter="url(#bi)"><path d="M0,0H128a0,0,0,0,1,0,0V112a16,16,0,0,1-16,16H0a0,0,0,0,1,0,0V0A0,0,0,0,1,0,0Z" transform="matrix(1, -0.02, 0.02, 1, 809.89, 524.6)" fill="#fff5a5"/></g><text transform="translate(64 71)" fill="#262626" font-size="20" font-family="ComicSansMS, Comic Sans MS"><tspan x="-49.756" y="0">Accessible</tspan></text></g><g transform="matrix(0.999, -0.035, 0.035, 0.999, 245.805, 68.273)"><g transform="matrix(1, 0.03, -0.03, 1, -243.27, -76.81)" filter="url(#bk)"><path d="M0,0H128a0,0,0,0,1,0,0V112a16,16,0,0,1-16,16H0a0,0,0,0,1,0,0V0A0,0,0,0,1,0,0Z" transform="matrix(1, -0.03, 0.03, 1, 245.81, 68.27)" fill="#a5d2ff"/></g><text transform="translate(64 72)" fill="#262626" font-size="20" font-family="ComicSansMS-Bold, Comic Sans MS" font-weight="700"><tspan x="-59.014" y="0">INTERFACE</tspan></text></g><g transform="translate(645.282 65.774) rotate(-1)"><g transform="matrix(1, 0.02, -0.02, 1, -644.04, -77.03)" filter="url(#bm)"><path d="M0,0H128a0,0,0,0,1,0,0V112a16,16,0,0,1-16,16H0a0,0,0,0,1,0,0V0A0,0,0,0,1,0,0Z" transform="translate(645.28 65.77) rotate(-1)" fill="#a5d2ff"/></g><text transform="translate(64 72)" fill="#262626" font-size="20" font-family="ComicSansMS-Bold, Comic Sans MS" font-weight="700"><tspan x="-53.535" y="0">FEATURES</tspan></text></g><g transform="translate(1089 53.105)"><g transform="matrix(1, 0, 0, 1, -1089, -53.11)" filter="url(#bo)"><path d="M0,0H128a0,0,0,0,1,0,0V112a16,16,0,0,1-16,16H0a0,0,0,0,1,0,0V0A0,0,0,0,1,0,0Z" transform="translate(1089 53.11)" fill="#a5d2ff"/></g><text transform="translate(64 72)" fill="#262626" font-size="20" font-family="ComicSansMS-Bold, Comic Sans MS" font-weight="700"><tspan x="-30.889" y="0">WORK</tspan></text></g><g transform="translate(1558.534 57.208) rotate(2)"><g transform="matrix(1, -0.03, 0.03, 1, -1559.58, -2.78)" filter="url(#bq)"><path d="M0,0H128a0,0,0,0,1,0,0V112a16,16,0,0,1-16,16H0a0,0,0,0,1,0,0V0A0,0,0,0,1,0,0Z" transform="translate(1558.53 57.21) rotate(2)" fill="#a5d2ff"/></g><text transform="translate(64 45)" fill="#262626" font-size="20" font-family="ComicSansMS-Bold, Comic Sans MS" font-weight="700"><tspan x="-21.567" y="0">FUN</tspan><tspan x="-6.543" y="28">&amp;</tspan><tspan x="-36.118" y="56">GAMES</tspan></text></g></g></svg>