<svg xmlns="http://www.w3.org/2000/svg" xmlns:xlink="http://www.w3.org/1999/xlink" width="1920" height="1564" viewBox="0 0 1920 1564"><defs><style>.a{clip-path:url(#n);}.b{fill:#fafafa;}.c{fill:#216ab4;}.d{fill:#65a2e8;}.e{fill:#f7df29;}.f{fill:#f8b22d;}.g{fill:#a756b2;}.h,.i,.j,.s{fill:#111;}.h,.i,.r{font-size:24px;}.h,.r{font-family:Roboto-Regular, Roboto;}.i,.j,.n,.x{font-family:Roboto-Bold, Roboto;font-weight:700;}.j,.n,.s,.x{font-size:32px;}.k{fill:#ffd050;}.k,.l,.m{opacity:0.75;}.l{fill:#bababa;}.m{fill:#d68f5b;}.o,.v{font-size:48px;font-family:Roboto-BlackItalic, Roboto;font-style:italic;}.o,.s,.v,.y{font-weight:800;}.p{fill:rgba(0,0,0,0.1);}.q{fill:#5189e2;}.s,.y{font-family:Roboto-Black, Roboto;}.t{fill:#65de5f;}.u{fill:#f2674e;}.v,.x,.y{fill:#fff;}.w{fill:#f2d600;}.y{font-size:64px;}.z{filter:url(#k);}.aa{filter:url(#i);}.ab{filter:url(#g);}.ac{filter:url(#e);}.ad{filter:url(#c);}.ae{filter:url(#a);}</style><filter id="a" x="100" y="16" width="876" height="532" filterUnits="userSpaceOnUse"><feOffset input="SourceAlpha"/><feGaussianBlur stdDeviation="16" result="b"/><feFlood flood-opacity="0.102"/><feComposite operator="in" in2="b"/><feComposite in="SourceGraphic"/></filter><filter id="c" x="944" y="16" width="876" height="532" filterUnits="userSpaceOnUse"><feOffset input="SourceAlpha"/><feGaussianBlur stdDeviation="16" result="d"/><feFlood flood-opacity="0.102"/><feComposite operator="in" in2="d"/><feComposite in="SourceGraphic"/></filter><filter id="e" x="100" y="516" width="876" height="532" filterUnits="userSpaceOnUse"><feOffset input="SourceAlpha"/><feGaussianBlur stdDeviation="16" result="f"/><feFlood flood-opacity="0.102"/><feComposite operator="in" in2="f"/><feComposite in="SourceGraphic"/></filter><filter id="g" x="944" y="516" width="876" height="532" filterUnits="userSpaceOnUse"><feOffset input="SourceAlpha"/><feGaussianBlur stdDeviation="16" result="h"/><feFlood flood-opacity="0.102"/><feComposite operator="in" in2="h"/><feComposite in="SourceGraphic"/></filter><filter id="i" x="100" y="1016" width="876" height="532" filterUnits="userSpaceOnUse"><feOffset input="SourceAlpha"/><feGaussianBlur stdDeviation="16" result="j"/><feFlood flood-opacity="0.102"/><feComposite operator="in" in2="j"/><feComposite in="SourceGraphic"/></filter><filter id="k" x="944" y="1016" width="876" height="532" filterUnits="userSpaceOnUse"><feOffset input="SourceAlpha"/><feGaussianBlur stdDeviation="16" result="l"/><feFlood flood-opacity="0.102"/><feComposite operator="in" in2="l"/><feComposite in="SourceGraphic"/></filter><clipPath id="n"><rect width="1920" height="1564"/></clipPath></defs><g id="m" class="a"><g class="ae" transform="matrix(1, 0, 0, 1, 0, 0)"><rect class="b" width="780" height="436" rx="64" transform="translate(148 64)"/></g><path class="c" d="M128,0A128,128,0,0,1,256,128h0c0,.03,0,.062,0,.093,0,.005,0,.013,0,.018v.089c0,.005,0,.013,0,.018,0,.03,0,.058,0,.089v.005c0,.03,0,.061,0,.091v.02c0,.03,0,.06,0,.09,0,.005,0,.01,0,.015,0,.03,0,.059,0,.089v.006c0,.03,0,.061,0,.091v.02c0,.026,0,.062,0,.088v.02c0,.026,0,.057,0,.083,0,.005,0,0,0,.01,0,.03,0,.061,0,.091v.018c0,.03,0,.06,0,.09v.015c0,.026,0,.06,0,.086v.21c0,.005,0,.008,0,.014,0,.026,0,.059,0,.085v.014c0,.03,0,.057,0,.087v.024c0,.03,0,.057,0,.087v.112c0,.03,0,.06,0,.091v.016c0,.03,0,.062,0,.092v.111l0,.09v.019l0,.09v.012l0,.081v.019l0,.087v.021l0,.089v.011l0,.084v.018l0,.087v.022c0,.03,0,.06,0,.09v0l0,.088v.018l0,.088v.02l0,.086v.013l0,.083v.02l0,.088v.018l0,.09v0l0,.091v.02l0,.089v.016l0,.091v0l0,.094v.014l0,.091v.016l0,.092h0l0,.093v.018l0,.09v.013l0,.087v.01l0,.09v.019l0,.089v.015l0,.082v.014l0,.087v.023l0,.087v.016l0,.08v.016l0,.087v.022l0,.086v.019l0,.079v.014l0,.088v.022l0,.087v.013l0,.082v.017l0,.088v.019l0,.09v.009l0,.086v.014l0,.088v.021l0,.089v.009l0,.083v.02l0,.086v.021l0,.087v.012l0,.082v.018l0,.087v.02l0,.091h0l0,.09V135l0,.088v.016l-.01.185v.016l-.005.089v.017l0,.085v.009l-.005.089v.02l-.005.088v.016l-.005.085v.009l-.005.09v.017l-.006.09v.014l-.005.085v.01l-.006.089v.02l-.006.088v.014l-.005.085v.01l-.006.089v.02l-.006.088v.014l-.006.083v.014l-.006.088v.019l-.006.09v.01l-.006.082v.017l-.006.087v.02l-.006.088v.013l-.006.081v.017l-.006.086,0,.022-.006.086v.014l-.006.078,0,.02-.006.085,0,.022-.007.086v.013l-.006.081v.018l-.007.085,0,.023-.007.087v.006l-.007.083,0,.022-.007.084,0,.02-.007.084v.01l-.007.083,0,.023-.007.083,0,.023-.007.08v.009l-.007.087,0,.021-.007.085,0,.022-.006.076v.016l-.007.084,0,.024-.007.084,0,.02-.007.081v.01l-.008.086,0,.024-.007.084,0,.019-.007.077,0,.017-.008.086,0,.02-.008.088v.013l-.008.083v.013l-.008.087,0,.022-.008.086v.015l-.007.077,0,.02-.008.085,0,.02-.008.087v.013l-.008.08,0,.016-.008.084,0,.024-.008.084v.014l-.008.077,0,.021-.008.083,0,.024-.008.082,0,.02-.007.07,0,.024-.009.083,0,.022-.009.086v.011l-.008.078,0,.023-.009.083,0,.021-.009.083v.011l-.009.083,0,.018-.009.084,0,.023-.009.081V142l-.009.085,0,.021-.009.085,0,.019-.009.082v.009l-.01.086,0,.022-.009.084,0,.021-.009.078v.013l-.009.083,0,.025-.01.083,0,.017-.009.079,0,.014-.01.086,0,.02-.01.085,0,.019-.009.077,0,.014-.01.087,0,.02-.01.086,0,.015-.009.079,0,.016-.01.084,0,.023-.01.085,0,.013-.01.082,0,.014-.011.085,0,.022-.011.085,0,.013-.01.076,0,.021-.01.082,0,.025-.01.079,0,.025-.009.067,0,.024-.011.082,0,.022-.011.085v.01l-.01.08,0,.019-.011.084,0,.021-.011.081,0,.017-.01.076,0,.022-.011.082,0,.023-.011.084v0l-.012.086,0,.02-.011.083,0,.021-.011.078,0,.015-.011.082,0,.021-.012.084,0,.02-.011.077,0,.014-.011.081,0,.027-.011.079,0,.023-.01.071,0,.018-.012.083,0,.022-.012.082,0,.023-.01.073,0,.015-.012.083,0,.024-.012.082,0,.02-.01.071,0,.022-.012.08,0,.026-.012.081,0,.02-.01.07,0,.022-.012.08,0,.026-.012.081,0,.02-.01.069,0,.023-.012.08,0,.027-.012.079,0,.022-.01.067,0,.023-.012.079,0,.028-.012.08,0,.017-.011.069,0,.027-.012.078,0,.025-.013.08,0,.016-.012.073,0,.024-.012.079,0,.027-.012.074,0,.022-.011.071,0,.026-.013.08,0,.022-.012.075,0,.021-.012.075,0,.024-.013.08,0,.023-.012.074,0,.017-.013.077,0,.028-.013.077,0,.026-.011.067,0,.021-.013.079,0,.025-.013.08,0,.022-.013.074,0,.014-.014.081,0,.026-.013.079,0,.023-.011.066,0,.023-.014.079,0,.024-.014.08,0,.022-.012.069,0,.02-.014.079,0,.027-.014.079,0,.019-.013.071,0,.02-.014.08,0,.026-.014.079,0,.022-.012.069,0,.021-.014.08,0,.025-.015.082,0,.015-.013.072,0,.024-.015.08,0,.022-.015.083,0,.016-.013.072,0,.023-.015.079,0,.025-.014.076,0,.021-.013.07,0,.025-.015.079,0,.025-.013.07-.005.027-.013.068-.005.027-.014.075-.006.03-.012.065-.005.027-.013.067-.006.032-.014.074-.005.027-.013.067,0,.025-.014.071-.006.029-.015.075-.006.029-.012.061-.005.028-.014.072-.006.029-.015.076-.005.028-.012.059-.006.032-.014.071-.006.03-.015.074-.006.028-.012.061,0,.024-.015.076-.006.032-.015.073-.006.029-.011.056-.006.031-.014.071-.007.034-.014.067-.008.037-.01.051-.007.034-.014.07-.007.035-.015.071-.006.027-.012.06-.006.029-.016.075-.006.029-.015.072-.005.026-.013.063-.006.027-.016.075-.006.03-.015.07-.006.027-.014.064-.006.028-.016.074-.006.03-.014.067-.006.029-.014.065-.006.027-.016.075-.006.028-.015.067-.006.029-.014.064-.007.031-.016.074-.006.027-.014.064-.006.029-.015.068-.006.027-.016.075-.007.03-.014.061-.006.028-.015.07-.007.031-.016.074-.006.027-.014.061-.006.026-.016.072-.007.03-.016.073-.007.029-.013.059-.006.027-.016.072-.007.032-.017.073-.006.027-.013.057-.007.029-.016.072-.007.032-.016.068-.008.037-.012.052-.007.032-.017.072-.007.032-.017.073-.006.026-.013.056-.007.031-.017.071-.007.032-.016.067-.008.032-.014.059-.007.028-.017.072-.008.034-.016.066-.007.03-.014.058-.007.031-.018.073-.007.028-.016.066-.008.034-.015.06-.007.028-.018.074-.007.029-.016.065-.007.03-.015.061-.008.031-.018.072-.007.03-.015.061-.008.033-.016.066-.007.027-.018.074-.007.029-.017.067,0,.015-.019.075-.008.03-.018.072-.007.03-.014.058-.009.034-.016.064-.008.031-.018.073-.007.027-.015.059-.007.026-.018.072-.008.031-.019.073-.007.026-.015.06-.007.026-.019.073-.008.03-.018.071-.008.032-.013.05-.008.032-.018.068-.009.036-.016.061-.01.04-.013.05-.009.036-.017.065-.009.036-.017.064-.009.035-.014.052-.008.031-.019.07-.008.032-.018.067-.008.032-.015.057-.008.03-.019.072-.008.031-.016.062-.01.036-.016.058-.007.028-.019.072-.009.032-.015.057-.012.043-.014.052-.009.035-.019.069-.009.032-.016.06-.009.032-.017.061-.008.03-.019.07-.009.033-.016.057-.01.036-.017.06-.009.031-.02.072-.008.027-.016.057-.011.038-.017.06-.009.031-.02.07-.009.032-.016.056-.008.03-.019.068-.009.031-.02.07-.009.031-.015.052-.01.036-.018.064-.009.033-.019.068-.009.033-.014.051-.01.036-.018.064-.01.034-.02.07-.007.026-.016.056-.009.03-.02.07-.009.03-.02.068-.01.033-.015.052-.009.032-.02.068-.01.035-.019.064-.01.033-.015.052-.009.032-.02.069-.01.034-.016.053-.014.046-.015.05-.01.033-.02.068-.01.033-.018.061-.01.033-.016.053-.011.036-.02.065-.01.035-.015.052-.014.046-.016.052-.01.033-.02.068-.01.035-.016.052-.013.042-.016.055-.01.033-.021.068-.01.033-.015.048-.015.049-.016.051-.01.034-.02.067-.01.034-.015.05-.013.042-.017.056-.011.035-.02.066-.01.033-.015.05-.014.045-.017.054-.01.033-.021.067-.011.035-.015.047-.011.037-.02.064-.01.031-.022.071-.009.028-.017.053-.011.035-.02.064-.011.034-.021.067-.01.032-.016.051-.009.03-.021.068-.011.036-.019.059-.012.038-.017.052-.01.031-.022.069-.01.032-.021.064-.01.032-.018.055-.009.028-.023.07-.01.031-.019.059-.013.039-.016.049-.011.035-.022.067-.011.033-.017.053-.015.044-.016.05-.01.032-.022.068-.011.033-.018.056-.012.035-.02.059-.009.029-.023.069-.011.033-.016.05-.015.045-.017.052-.011.033-.023.068-.01.031-.018.055-.012.036-.019.056-.012.034-.022.066-.011.034-.016.047-.015.046-.018.053-.012.034-.022.065-.012.036-.016.047-.014.04-.02.058-.012.034-.023.067-.011.031-.017.049-.012.036-.021.062-.011.033-.022.065-.012.034-.017.05-.01.03-.023.067-.011.032-.024.069-.009.026-.018.053-.01.03-.024.069-.011.031-.02.058-.015.042-.017.048-.011.032-.023.067-.012.034-.018.052-.016.046-.015.043-.013.038-.022.063-.013.037-.018.05-.016.045-.018.05-.011.032-.023.065-.013.036-.017.048-.016.046-.017.047-.013.036-.023.064-.012.035-.016.046-.019.053-.016.044-.013.036-.023.064-.013.036-.017.048-.015.042-.019.052-.012.033-.024.067-.011.031-.019.051-.015.041-.02.055-.012.033-.023.064-.014.037-.016.043-.016.042-.02.054-.013.036-.024.065-.011.031-.018.049-.015.041-.021.057-.012.032-.025.068-.01.027-.02.053-.01.028-.024.065-.014.036-.021.055-.016.042-.017.045-.013.036-.024.064-.012.032-.023.062-.013.035-.019.05-.011.029-.025.066-.013.035-.021.056-.014.037-.02.052-.012.031-.025.066-.012.033-.022.059-.013.034-.02.051-.012.031-.025.065-.013.033-.021.055-.015.039-.019.05-.013.032-.025.066-.012.032-.019.049-.018.046-.019.049-.012.03-.026.067-.013.032-.019.049-.017.045-.019.049-.014.035-.025.064-.013.033-.019.048-.017.043-.02.05-.014.036-.024.062-.014.037L247.1,175l-.018.045-.02.051-.013.034-.026.066-.012.03-.019.048-.016.041-.022.055-.013.033-.026.065-.013.033-.018.045-.016.041-.022.056-.014.035-.026.064-.012.031-.019.048-.012.03-.026.065-.014.034-.023.057-.015.038-.02.048-.012.03-.026.064-.014.035-.022.055-.016.04-.017.042-.015.037-.025.062-.014.034-.021.052-.018.044-.019.046-.013.033-.026.063-.015.036-.02.048-.018.045-.019.047-.013.031-.027.065-.014.033-.019.047-.021.05-.018.043-.015.036-.025.061-.015.036-.02.047-.018.043-.019.046-.015.037-.025.06-.015.036-.018.042-.022.053-.018.042-.016.037-.025.06-.016.038-.016.037-.023.055-.017.041-.016.038-.026.06-.015.036-.017.039-.023.053-.02.046-.015.035-.026.061-.015.036-.018.041-.02.046-.021.048-.016.038-.027.062-.013.03-.02.047-.018.042-.022.052-.016.036-.023.052-.019.044-.018.04-.014.033-.027.062-.015.035-.022.051-.02.046-.017.039-.019.044-.024.055-.014.033-.026.059-.014.033-.023.052-.011.026-.029.066-.014.032-.024.054-.017.038-.021.047-.015.034-.028.063-.014.031-.024.055-.016.037-.022.05-.013.029-.029.064-.014.032-.023.05-.019.041-.021.048-.014.032-.029.065-.013.028-.023.051-.019.043-.021.046-.016.034-.027.06-.017.037-.019.042-.02.044-.023.051-.014.032-.029.063-.014.031-.021.046-.018.04-.025.054-.014.03-.03.065-.013.028-.023.051-.017.036-.025.054-.015.033-.029.063-.013.029-.022.047-.016.034-.028.06-.013.029-.031.066-.014.029-.022.047-.015.033-.028.06-.016.034-.027.059-.016.034-.02.044-.014.031-.03.064-.015.031-.027.057-.017.036-.022.048-.014.03-.029.061-.017.036-.024.052-.018.038-.021.045-.016.033-.029.062-.015.032-.022.046-.023.049-.02.042-.015.032-.03.064-.014.03-.025.052-.019.041-.021.043-.016.034-.029.061-.016.033-.021.043-.023.049-.021.044-.016.033-.028.059-.019.039-.019.039-.022.046-.023.047-.015.032-.031.063-.014.029-.025.051-.017.035-.027.055-.014.029-.031.064-.014.029-.023.047-.018.038-.026.053-.015.031-.031.064-.013.026-.025.051-.016.032-.029.058-.015.03-.031.063-.014.029-.024.049-.012.024-.032.065-.015.03-.031.063-.014.029-.022.044-.021.043-.025.051-.016.031-.03.061-.016.031-.024.047-.014.028-.031.062-.016.033-.029.058-.015.03-.025.049-.014.028-.033.066-.013.026-.028.056-.018.036-.025.049-.014.027-.032.064-.015.03-.03.06-.012.025-.028.055-.014.027-.033.064-.014.028-.029.056-.015.03-.027.053-.015.029-.032.062-.016.031-.026.051-.018.035-.026.051-.015.03-.033.063-.015.029-.025.049-.019.036-.027.053-.014.027-.034.065-.014.027-.028.054-.014.026-.031.059-.015.029-.034.065-.012.023-.03.058-.009.017-.035.068-.014.026-.034.065-.013.025-.029.055-.01.02-.035.067-.014.026-.035.067-.012.023-.026.049-.017.033-.031.059-.015.029-.033.063-.014.027-.026.048-.014.026-.034.065-.015.027-.034.064-.013.025-.025.047-.015.028-.033.061-.017.032-.028.052-.019.036-.025.047-.016.029-.033.061-.016.03-.029.055-.018.034-.024.044-.017.032-.033.061-.015.029-.028.051-.021.039-.024.045-.017.032-.032.058-.019.035-.023.043-.024.044-.024.044-.017.031-.033.061-.017.031-.025.045-.022.041-.026.048-.016.03-.033.061-.016.03-.027.05-.016.03-.029.053-.018.032-.033.06-.016.03-.025.045-.022.04-.027.049-.016.03-.034.062-.016.028-.025.045-.02.037-.028.051-.017.031-.034.061-.016.029-.025.045-.018.033-.033.058-.015.027-.035.063-.015.026-.028.05-.013.023-.035.062-.017.031-.035.061-.014.025-.027.049-.015.027-.035.061-.017.03-.03.053-.022.038-.023.041-.017.029-.035.062-.016.028-.033.057-.018.032-.025.044-.018.031-.034.06-.017.03-.027.048-.023.041-.025.043-.017.029-.034.059-.02.034-.026.045-.022.039-.027.047-.017.029-.035.061-.016.028-.03.052-.018.031-.03.052-.015.026-.036.062-.016.028-.029.049-.021.035-.028.048-.018.031-.036.062-.015.025-.03.051-.017.029-.032.055-.015.026-.036.062-.017.028-.029.05-.014.024-.036.061-.015.026-.037.062-.015.026-.027.046-.019.032-.033.055-.016.028-.037.062-.015.025-.03.05-.014.023-.037.063-.016.026-.038.064-.012.02-.032.053-.013.022-.039.065-.014.023-.039.065-.014.023-.03.05-.014.024-.038.063-.016.026-.037.061-.015.026-.028.046-.016.027-.037.061-.017.028-.03.05-.023.038-.026.043-.018.03-.034.057-.02.033-.029.048-.02.033-.028.046-.018.03-.035.058-.019.031-.026.043-.027.044-.025.041-.019.031-.036.058-.018.029-.028.045-.024.039-.027.043-.019.031-.036.058-.018.029-.03.048-.018.028-.035.057-.015.024-.038.061-.018.029-.029.046-.018.03-.033.053-.018.029-.037.059-.017.027-.027.044-.025.039-.029.046-.019.03-.037.059-.017.026-.029.046-.018.029-.036.057-.017.027-.039.061-.015.025-.029.045-.021.034-.033.052-.019.031-.031.049-.025.039-.025.039-.018.028-.037.058-.02.031-.032.05-.022.034-.028.044-.017.027-.038.06-.017.026-.039.062-.014.021-.031.048-.017.026-.037.058-.02.031-.031.048-.023.036-.028.044-.019.029-.038.059-.018.027-.03.047-.025.038-.028.043-.018.028-.038.059-.018.028-.032.05-.019.03-.032.05-.018.028-.038.058-.019.029-.029.044-.024.037-.03.046-.019.029-.038.058-.018.027-.031.048-.021.032-.032.049-.019.029-.038.058-.017.026-.028.043-.025.038-.031.048-.017.026-.04.061-.017.025-.031.047-.018.028-.036.054-.02.03-.038.057-.018.026-.029.044-.016.025-.039.059-.02.029-.032.048-.025.038-.027.04-.021.031-.035.053-.021.032-.038.057-.016.025-.028.041-.021.031-.036.054-.021.031-.03.044-.029.044-.023.035-.022.033-.036.054-.022.033-.027.04-.029.043-.026.039-.02.029-.039.058-.018.027-.035.051-.02.029-.034.05-.016.023-.041.06-.018.026-.034.05-.021.031-.03.044-.021.03-.039.057-.018.027-.032.047-.024.034-.031.045-.02.029-.039.056-.02.029-.03.044-.022.032-.034.049-.018.026-.041.059-.02.028-.027.038-.031.045-.028.041-.021.03-.039.056-.02.029-.03.043-.019.027-.037.052-.021.03-.039.056-.019.027-.03.043-.023.032-.036.051-.018.026-.042.059-.017.024-.031.045-.017.024-.041.058-.019.028-.04.057-.02.028-.027.038-.027.038-.034.048-.021.029-.034.047-.025.036-.028.039-.02.028-.038.054-.023.033-.028.039-.03.042-.027.038-.022.03-.039.054-.021.029-.032.044-.028.039-.028.039-.021.029-.04.056-.02.027-.034.047-.025.034-.029.04-.022.031-.039.055-.02.027-.034.047-.022.03-.036.049-.016.023-.042.058-.02.027-.031.043-.026.035-.032.044-.021.029-.04.054-.022.03-.028.038-.03.041-.03.041-.021.029-.04.054-.021.029-.03.041-.027.037-.032.044-.021.029-.042.057-.018.024-.031.042-.025.034-.035.047-.02.027-.041.055-.022.03-.027.036-.027.036-.034.046-.022.03-.04.054-.02.027-.029.039-.022.029-.039.053-.021.028-.041.055-.019.026-.032.043-.019.026-.039.052-.025.034-.03.04-.031.041-.026.034-.023.031-.04.053-.022.03-.031.041-.03.04-.029.039-.02.026-.041.055-.022.029-.031.041-.031.041-.026.035-.023.031-.041.054-.021.028-.03.04-.032.042-.028.037-.024.031-.039.052-.024.031-.029.038-.03.039-.03.04-.022.029-.04.053-.023.03-.029.038-.032.042-.029.038-.022.029-.043.055-.019.024-.033.043-.026.034-.033.043-.022.029-.041.053-.022.029-.03.038-.028.036-.035.045-.022.028-.04.052-.024.031-.027.035-.029.038-.033.043-.024.031-.041.053-.02.026-.031.04-.027.035-.034.044-.024.031-.036.046-.028.036-.027.034-.029.037-.034.043-.026.033-.029.037-.035.045-.024.031-.033.042-.033.042-.024.031-.03.038-.033.042-.029.037-.02.026-.043.055-.022.028-.033.042-.03.038-.028.035-.028.035-.037.046-.026.032-.029.036-.034.042-.027.034-.025.032-.039.049-.027.034-.024.03-.04.05-.024.03-.027.034-.039.049-.026.033-.022.027-.045.056-.02.025-.028.035-.033.041-.034.042-.022.028-.039.049-.027.033-.027.033-.039.048-.027.034-.022.027-.041.05-.026.032-.026.032-.033.041-.032.039-.027.034-.035.042-.029.036-.027.033-.033.04-.034.041-.021.025-.047.057-.02.024-.029.035-.024.03-.043.052-.021.026-.048.058-.018.022-.032.039-.012.014-.054.066-.019.023-.04.049-.028.033-.028.034-.025.03-.043.052-.023.028-.038.045-.029.035-.029.034-.024.028-.043.052-.02.024-.045.054-.024.029-.028.033-.024.029-.044.052-.022.026-.03.036-.038.045-.028.033-.024.029-.043.051-.022.026-.029.035-.039.046-.03.035-.019.023-.049.058-.021.025-.029.034-.039.045-.031.036-.019.022-.049.058-.019.022-.031.037-.026.031-.04.047-.024.028-.046.053-.021.024-.031.036-.03.035-.038.045-.021.024-.046.054-.022.025-.03.034-.03.035-.039.045-.021.024-.047.055-.022.026-.029.034-.028.032-.041.047-.024.028-.038.044-.028.032-.03.035-.022.026-.045.052-.024.028-.04.046-.028.032-.029.033-.026.029-.045.052-.02.023-.045.052-.025.028-.029.034-.025.028-.045.052-.021.024-.044.05-.027.031-.029.033-.022.025-.049.056-.019.022-.052.059-.017.019-.033.037-.019.021-.05.056-.021.024-.055.062-.015.017-.033.038-.014.016-.058.066-.014.016-.1.116-.022.025-.05.056-.018.02-.068.076,0,0-.032.036-.017.019-.057.064-.014.015-.034.038-.008.008-.065.073-.015.016-.056.063-.016.018-.106.118-.014.015-.063.07-.008.009-.109.121-.012.014-.07.077,0,0-.11.121-.013.014-.066.073-.007.007-.036.04-.008.009-.065.071-.015.016-.053.058-.021.023-.033.036-.012.013-.063.069-.01.011-.111.121-.009.009-.064.07-.014.015-.111.12,0,.005-.072.078,0,.005-.113.122-.01.01-.069.074-.005.006-.116.125h0l-.077.082,0,0-.116.124-.006.006-.07.075-.008.009-.115.122,0,0-.073.078-.005.006-.116.123,0,0-.4.416,0,0-.079.083h0l-.12.125h0l-.2.206-.005.005-.2.2-.006.006-.117.12-.006.006-.074.076,0,0a128.671,128.671,0,0,1-16.725,14.467l-37.554-51.824A64.008,64.008,0,0,0,128,64V0Z" transform="translate(212 191)"/><path class="d" d="M128,0A128,128,0,0,1,256,128c0,.036,0,.071,0,.107,0,.013,0,.02,0,.033s0,.049,0,.074,0,.029,0,.042v.066c0,.013,0,.031,0,.044v.169c0,.017,0,.032,0,.049s0,.038,0,.057,0,.037,0,.05v.057c0,.017,0,.031,0,.049s0,.039,0,.058,0,.033,0,.05,0,.038,0,.056,0,.033,0,.05v.378c0,.017,0,.031,0,.049v.06c0,.017,0,.03,0,.047s0,.049,0,.073v.032c0,.032,0,.064,0,.1v.015c0,.035,0,.069,0,.1v.15c0,.021,0,.042,0,.063v1.113l0,.066v.039l0,.072v.035l0,.079v.042l0,.091v.039l0,.068v.042l0,.065v.044l0,.061v.049l0,.057,0,.049,0,.058,0,.049,0,.056,0,.05,0,.056,0,.052,0,.054,0,.051,0,.057,0,.049,0,.056,0,.049,0,.056,0,.05,0,.06,0,.044,0,.066,0,.041,0,.065,0,.041,0,.065,0,.064,0,.083v.032l0,.073,0,.045,0,.062,0,.046,0,.059,0,.048,0,.059,0,.048,0,.057,0,.05,0,.056,0,.051,0,.053,0,.054,0,.054,0,.051,0,.054,0,.051,0,.055,0,.05,0,.055,0,.05,0,.056,0,.051,0,.05,0,.056,0,.045,0,.06,0,.035c0,.081-.009.162-.013.243l0,.032,0,.067,0,.039,0,.061,0,.044,0,.059,0,.046,0,.058,0,.047,0,.058,0,.047,0,.059,0,.045,0,.061,0,.044,0,.06,0,.045,0,.06,0,.044,0,.06,0,.043,0,.064,0,.037,0,.068,0,.034,0,.071,0,.023q-.016.236-.032.471v.02l-.006.082v.021l-.006.079,0,.025-.006.077,0,.026-.005.076,0,.029-.006.076,0,.027-.006.077,0,.027-.006.076,0,.026-.006.077,0,.025-.006.08v.018l-.007.087v.011c-.026.334-.054.672-.082,1.005h0l-.009.1h0c-.009.1-.018.2-.027.3h0c-.072.81-.151,1.614-.238,2.419l-63.631-6.866A65.463,65.463,0,0,0,192,128a64.073,64.073,0,0,0-64-64V0Z" transform="matrix(-0.809, 0.588, -0.588, -0.809, 518.791, 347.318)"/><path class="e" d="M128,0h1.66l.12,0h.294l.109,0,.112,0,.1,0,.1,0,.108,0,.11,0,.1,0,.1,0,.093,0h0l.122,0,.1,0,.095,0,.094,0,.123,0,.1,0,.1,0,.093,0,.12,0,.1,0,.1,0,.094,0,.1,0,.094,0,.1,0,.107,0h.018l.1,0,.095,0,.095,0,.1,0h.023l.1,0h.012l.083,0h.026l.069,0,.1,0h.026l.094,0h.014l.08,0,.094,0,.1,0h.03l.094,0h0l.09,0,.095,0,.034,0,.063,0h.03l.084,0h.013l.089,0,.034,0,.059,0,.038,0,.061,0,.033,0,.077,0h.016l.092,0,.031,0,.064,0,.1.005.033,0,.074,0h.019L135.3.2h.022l.07,0,.1.006.033,0,.07,0h.023l.092.005.028,0,.066,0,.035,0,.061,0,.033,0,.069,0,.026,0,.092.006.025,0,.067,0,.037,0,.06,0,.035,0,.065,0,.028,0,.092.006h.019l.076.005.032,0,.063,0,.033,0,.067,0,.027,0,.093.006h.009l.084.006.031,0,.065,0,.031,0,.067,0,.027,0,.187.014.029,0,.066,0,.032,0,.064,0,.032,0,.08.006h.012l.092.007.03,0,.065.005.031,0,.064,0,.032,0,.079.006h.013l.094.007.024,0,.07.006.029,0,.068.005.028,0,.083.007h.01l.095.008.024,0,.069.006.032,0,.063.005.031,0,.069.006.026,0,.091.008.027,0,.067.006.032,0,.063.005.032,0,.067.006.026,0,.091.008.025,0,.069.006.032,0,.062.006.033,0,.068.006.025,0,.094.009h.009l.084.008.03,0,.063.006.035,0,.064.006.028,0,.087.008.016,0,.083.008.029,0,.065.006.031,0,.066.006.028,0,.081.008h.012l.092.009.029,0,.065.006.034,0,.06.006.033,0,.069.007.024,0,.091.009.026,0,.066.007.033,0,.064.007.03,0,.075.008.018,0,.093.01.023,0,.069.007.033,0,.062.007.031,0,.067.007.028,0,.09.01.024,0,.069.008.032,0,.064.007.031,0,.066.007.027,0,.092.01.015,0,.078.009.03,0,.063.007.033,0,.062.007.032,0,.091.01h.011l.081.009.03,0,.064.008.031,0,.066.008.027,0,.092.011h0l.088.01.026,0,.068.008.029,0,.065.008.031,0,.087.011h0l.092.011.025,0,.069.009.028,0,.066.008.029,0,.081.01H144L144.1,1l.029,0,.062.008.036,0,.057.007.036,0,.069.009.021,0,.091.012.028,0,.065.008.033,0,.061.008.032,0,.069.009.023,0,.091.012.023,0,.069.009.031,0,.062.008.033,0,.067.009.024,0,.091.012.02,0,.072.01.03,0,.062.008.033,0,.065.009.027,0,.091.013.013,0,.077.011.032,0,.061.008.034,0,.063.009.028,0,.091.013.011,0,.082.012.026,0,.066.009.03,0,.069.01.023,0,.184.027.028,0,.064.009.033,0,.062.009.029,0,.08.012.013,0,.091.014.025,0,.065.01.033,0,.061.009.031,0,.075.011.016,0,.09.014.031,0,.059.009.038.006.056.008.034.005.069.011.023,0,.09.014.022,0,.069.011.032,0,.063.01.03,0,.068.011.024,0,.091.014.017,0,.074.012.03,0,.063.01.029,0,.07.011.022,0,.093.015h.006l.084.014.027,0,.067.011.027,0,.073.012.018,0,.184.03.029,0,.063.01.031.005.064.011.028,0,.182.031.025,0,.068.012.027,0,.065.011.029,0,.084.014h.007l.09.015.029,0,.063.011.031.005.062.011.029.005.084.015h0l.091.016.029.005.062.011.034.006.058.01.033.006.067.012.024,0,.087.016.03.005.062.011.031.006.062.011.031.006.071.013.019,0,.09.016.021,0,.071.013.027.005.064.012.03.006.067.012.024,0,.09.017.017,0,.074.014.03.006.061.011.032.006.066.012.024,0,.09.017.015,0,.076.014.03.006.061.012.032.006.063.012.028.005.084.016.02,0,.074.014.032.006.06.012.033.006.061.012.03.006.078.015.013,0,.088.017.026.005.063.012.033.006.06.012.031.006.069.014.022,0,.086.017.032.006.059.012.036.007.056.011.034.007.065.013.026.005.087.017.031.006.058.012.036.007.055.011.035.007.061.012.029.006.088.018.021,0,.069.014.03.006.061.013.03.006.066.014.025.005.089.019.016,0,.074.015.029.006.062.013.031.006.063.013.027.006.088.019.02,0,.07.015.033.007.057.012.034.007.06.013.03.006.088.019.011,0,.078.017.03.007.061.013.032.007.058.013.033.007.078.017.015,0,.084.018.028.006.062.014.032.007.061.013.03.007.087.019h0l.091.02.024.005.067.015.029.006.062.014.029.007.076.017.013,0,.09.02.022,0,.069.016.026.006.066.015.027.006.072.016.017,0,.088.02.025.006.065.015.031.007.057.013.034.008.062.014.027.006.088.02.02,0,.07.016.029.007.061.014.033.008.065.015.022.005.089.021.018,0,.072.017.028.007.06.014.032.008.065.015.024.006.089.021.008,0,.081.019.028.007.061.015.033.008.061.015.027.007.089.021h0l.088.021.025.006.061.015.035.008.057.014.031.008.083.02h0l.09.022.023.006.066.016.03.007.064.016.024.006.078.019.012,0,.088.022.026.006.063.016.031.008.059.015.031.008.066.017.021.005.088.022.021.005.067.017.032.008.058.015.031.008.064.016.025.006.087.022.023.006.063.016.035.009.055.014.033.009.061.016.027.007.086.022.021.006.065.017.035.009.054.014.034.009.059.015.029.008.086.023.014,0,.074.019.03.008.061.016.03.008.062.016.027.007.176.047.026.007.063.017.029.008.063.017.026.007.174.047.029.008.06.016.03.008.061.017.027.007.08.022.007,0,.088.024.026.007.063.017.029.008.062.017.028.008.071.02.017,0,.086.024.026.007.064.018.029.008.058.016.032.009.067.019.019.005.088.025.021.006.066.018.031.009.058.016.031.009.066.019.02.006.087.025.023.007.065.019.029.008.059.017.029.008.066.019.021.006.087.025.014,0,.074.021.026.008.062.018.03.009.061.018.026.008.087.025.006,0,.083.024.021.006.066.019.028.008.064.019.024.007.174.051.026.008.062.018.03.009.061.018.026.008.071.021.018.005.085.025.027.008.06.018.031.009.059.018.029.009.067.02.02.006.086.026.021.006.066.02.03.009.058.018.03.009.06.018.028.008.084.026.024.007.062.019.031.01.058.018.031.009.063.019.023.007.085.026.022.007.064.02.032.01.056.017.032.01.056.017.033.01.083.026.02.006.067.021.029.009.06.019.029.009.061.019.027.008.085.027.015,0,.071.023.029.009.057.018.032.01.057.018.031.01.17.054.028.009.059.019.031.01.058.019.029.009.079.025.007,0,.086.028.025.008.062.02.029.009.059.019.029.009.071.023.014,0,.085.028.024.008.063.021.029.009.058.019.029.01.07.023.016.005.087.029.015,0,.072.024.024.008.063.021.027.009.072.024.012,0,.088.029.012,0,.075.025.021.007.066.022.024.008.069.023.018.006.087.029.012,0,.073.025.028.009.058.02.032.011.06.02.024.008.086.029.01,0,.077.026.025.008.06.02.031.011.06.021.025.009.086.029h0l.083.029.029.01.056.019.033.011.058.02.026.009.077.027.009,0,.085.029.025.009.059.02.032.011.058.02.028.01.069.024.017.006.083.029.027.009.058.02.032.011.056.02.029.01.068.024.017.006.085.03.022.008.062.022.032.011.055.02.03.011.066.023.018.006.085.031.02.007.063.023.034.012.052.019.032.011.057.021.029.011.082.03.021.008.062.022.033.012.054.02.031.011.056.021.029.01.083.03.017.006.066.024.034.012.052.019.033.012.056.021.029.011.167.061.03.011.056.021.031.011.057.021.028.01.081.03h0l.083.031.031.012.054.02.032.012.056.021.029.011.071.027.013,0,.083.031.026.01.06.023.028.011.057.022.029.011.066.025.018.007.083.031.026.01.058.022.031.012.055.021.03.011.064.025.019.007.082.032.026.01.059.023.031.012.053.021.031.012.059.023.026.01.08.031.027.01.057.022.031.012.053.021.033.013.054.021.03.012.08.031.026.01.059.023.031.012.051.02.036.014.049.019.035.014.064.025.041.016.055.022.034.013.05.02.035.014.053.021.029.012.073.029.02.008.072.029.029.012.054.022.032.013.054.021.031.012.062.025.023.009.079.032.025.01.059.024.029.012.055.022.029.012.061.025.023.01.08.033.027.011.054.022.034.014.05.02.033.014.053.022.029.012.079.032.03.012.052.021.036.015.048.02.034.014.053.022.031.013.079.032.028.012.054.022.033.014.052.022.032.013.052.021.032.013.078.033.025.011.057.024.035.015.047.02.035.015.05.021.033.014.079.033.016.007.064.027.034.014.049.021.035.015.048.02.035.015.066.028.03.013.064.027.032.014.052.022.031.013.054.023.031.013.072.031.008,0,.08.034.03.013.053.023.032.014.049.021.035.015.059.026.021.009.08.035.028.012.053.023.034.015.048.021.036.015.056.024.023.01.079.034.031.013.051.022.035.015.047.021.035.015.055.024.026.011.079.035.027.012.055.024.031.014.051.022.034.015.053.023.027.012.078.035.027.012.056.025.031.014.049.022.035.016.05.022.031.014.078.035.024.011.056.025.035.016.047.021.036.016.049.022.031.014.064.029.041.018.054.024.038.017.042.019.039.018.045.02.035.016.057.026.036.017.064.029.032.014.049.022.036.016.047.021.034.015.057.026.024.011.077.035.032.015.047.022.037.017.047.021.033.015.057.026.023.011.079.036.027.013.052.024.035.016.047.022.034.016.051.024.03.014.076.035.034.016.045.021.037.017.046.022.034.016.051.024.03.014.077.036.027.013.052.025.036.017.045.021.035.016.051.024.029.014.078.037.02.009.058.028.035.017.046.022.034.016.05.024.03.014.069.033.033.016.054.026.037.017.044.021.035.017.047.022.035.017.051.024.056.027.045.022.04.019.041.02.039.019.041.02.038.019.049.024.04.019.065.032.032.015.048.023.034.016.048.023.033.016.054.026.025.012.075.037.034.016.047.023.033.016.048.023.032.016.054.026.027.013.075.037.033.016.047.023.035.017.045.022.036.018.047.023.032.016.075.037.03.015.051.026.032.016.045.023.036.018.046.023.033.017.074.037.03.015.049.025.035.018.043.022.037.019.046.023.032.016.064.032.037.019.053.027.031.016.048.024.033.017.051.026.029.014.064.033.03.015.06.031.031.016.049.025.033.017.046.023.034.017.046.024.056.029.05.026.035.018.043.022.037.019.043.022.035.018.052.027.026.013.074.038.032.017.047.024.035.018.046.024.032.017.05.026.03.015.075.039.025.013.053.028.03.016.05.026.03.016.051.026.029.015.075.039.025.013.054.028.032.017.046.024.033.018.047.025.032.017.074.039.027.014.051.027.034.018.044.023.035.019.045.024L188,14.9l.066.035.037.02.048.026.037.02.041.022.036.019.043.023.036.019.049.026.053.028.046.025.037.02.042.023.037.02.038.021.04.022.04.021.063.034.045.024.038.021.038.021.04.022.035.019.043.023.036.02.057.031.052.028.038.021.04.022.038.021.04.022.037.02.046.025.032.018.071.039.037.02.039.021.039.021.038.021.04.022.039.021.037.02.071.039.035.019.043.024.037.02.038.021.04.022.039.022.038.021.064.036.046.025.035.02.042.023.034.019.042.024.037.02.038.021.049.028.058.033.04.022.039.022.037.021.04.023.038.021.038.022.041.023.065.037.04.023.037.021.04.023.039.022.038.022.037.021.045.026.055.031.048.027.035.02.04.023.039.022.039.022.037.021.047.027.037.021.064.037.033.019.042.024.038.022.039.023.036.021.042.024.05.029.055.032.035.02.04.023.037.022.041.024.035.02.04.023.036.021.07.041.036.021.039.023.04.023.036.021.038.022.04.024.035.021.07.041.034.02.04.023.04.024.036.021.038.023.038.022.037.022.048.028.06.036.035.021.041.024.035.021.038.022.039.023.038.022.039.023.067.04.036.022.039.023.038.022.038.023.037.022.038.023.045.027.052.031.046.028.038.023.035.021.04.024.036.021.04.024.035.021.079.047.026.016.044.027.031.019.041.025.034.02.04.024.034.021.092.056.014.008.046.028.028.017.043.026.031.019.044.027.028.017.154.094.032.02.042.026.031.019.043.027.03.019.154.095.028.017.042.026.033.02.041.025.035.022.038.023.042.026.065.041.034.021.039.024.035.022.039.024.037.023.038.024.032.02.074.046.035.022.036.022.041.025.035.022.04.025.035.022.045.028.053.033.045.029.034.022.038.024.038.024.036.023.038.024.034.022.074.047.031.019.041.026.032.021.042.027.031.02.042.026.029.019.088.056.02.013.043.028.03.019.042.027.032.02.043.027.023.015.158.1.027.018.044.028.028.018.044.028.026.017.11.071h0l.043.028.029.019.042.027.031.02.042.027.028.018.045.029.008.005.1.064.03.019.042.028.031.02.04.026.035.023.039.026.031.02.077.05.029.019.042.028.031.021.042.028.026.017.047.031.01.007.1.064.028.018.043.028.029.019.043.028.028.019.045.03.021.014.091.06.022.015.044.029.028.019.044.029.026.017.045.03.024.016.1.068.007.005.048.032.023.016.045.03.026.017.047.032.017.012.163.109.023.016.048.032.02.014.05.034.016.011.16.108.027.018.042.028.03.021.042.029.028.019.042.028.022.015.087.059.027.018.044.03.025.017.045.031.025.017.156.107.023.016.044.03.028.019.044.03.026.018.045.031.018.013.093.064.022.015.045.031.025.017.046.032.025.017.045.031.024.017.085.059.023.016.045.031.025.017.045.032.025.017.044.031.024.017.088.062.021.014.044.031.026.018.043.03.029.02.041.029.028.019.1.071,0,0,.045.032.025.018.045.032.024.017.045.032.025.018.094.066.014.01.045.032.023.016.047.033.022.016.047.033.02.014.158.113.022.015.045.032.025.018.042.03.028.02.153.11.02.014.045.032.027.019.042.031.026.019.043.031.021.015.083.06.027.02.043.031.026.019.044.032.024.018.046.033.01.007.1.076.013.009.047.034.024.017.044.032.025.018.043.032.024.017.089.065.018.013.044.032.025.019.042.031.027.02.044.032.021.015.1.071.011.008.042.031.028.021.041.03.026.019.043.032.024.018.151.112.023.017.043.032.025.019.044.033.021.016.158.118.016.012.047.035.021.016.046.034.021.016.156.117.019.014.043.032.026.02.044.033.02.015.161.122.014.01.048.037.018.014.049.037.017.013.167.127.007.005.048.037.021.016.046.035.019.015.048.036.009.007.113.086,0,0,.049.038.019.015.044.034.025.02.043.033.015.012.156.12.023.017.045.035.02.016.047.037.012.01.162.126.016.012.048.037.02.015.047.037.014.011.161.126.015.012.048.038.018.014.047.037.016.013.165.13.008.006.05.039.018.014.049.038.013.01.16.127.016.012.047.037.018.015.047.037.017.014.166.132.006,0,.048.038.02.016.046.036.018.015.048.038.009.007.166.133.011.009.051.041.014.011.222.179.016.013.048.039.014.012.052.042,0,0,.172.14.009.007.052.042.012.01.053.044h0l.173.142.008.006.053.043.01.008.054.044,0,0,.177.145h0l.054.044.011.009.054.045h0l.174.144.005,0,.052.043.011.009.052.043.01.008.171.142h0l.052.043.012.01.05.042.013.01.221.185.013.011.05.042.013.011.223.188.008.007.054.046,0,0,.227.193.008.007.052.044.01.008.053.045h0l.172.147,0,0,.053.045.01.008.051.044.009.008.167.144,0,0,.052.045.012.01.051.044.006.005.167.144.005,0,.052.045.01.009.051.044.01.008.221.192.01.008.051.045.009.008.222.194.008.007.051.045.011.009.218.192.012.01.05.044.009.008.226.2h0l.054.048.007.006.226.2,0,0,.055.049,0,0,.279.251.011.01.051.046h0l.228.206h0l.285.258,0,0,.282.258,0,0,.052.048.008.007.22.2,0,0,.054.05,0,0,.28.26,0,0,.279.259,0,0,.277.26,0,0a128.042,128.042,0,0,1,34.156,53.84l-60.892,19.7A63.826,63.826,0,0,0,128,64V0Z" transform="translate(293.149 493.851) rotate(-120)"/><path class="f" d="M128,0h1.859l.131,0,.123,0,.11,0,.106,0,.106,0,.108,0,.107,0,.106,0,.107,0,.107,0,.107,0,.106,0,.106,0,.107,0,.106,0,.105,0,.105,0,.106,0,.106,0,.105,0,.106,0,.105,0,.106,0,.106,0,.106,0,.106,0,.106,0,.108,0,.107,0,.1,0,.1,0,.109,0,.109,0,.111,0h.035l.081,0h.025l.212.009h.032l.075,0,.1,0,.045,0,.062,0,.042,0,.063,0,.043,0,.063,0,.042,0,.063,0,.043,0,.064,0,.042,0,.061,0,.045,0,.06,0,.046,0,.059,0,.047,0,.061,0,.044,0,.062,0,.044,0,.063,0,.042,0,.067,0,.038,0,.082,0h.023l.1.006h0l.108.006h0l.1.006.028,0,.078,0,.03,0,.075,0,.036,0,.069,0,.038,0,.068,0,.039,0,.066,0,.039,0,.066,0,.041,0,.064,0,.042,0,.062,0,.044,0,.062,0,.042,0,.064,0,.041,0,.067,0,.038,0,.068,0,.038,0,.071.005.034,0,.076.005.03,0,.1.007h.007l.319.024.022,0,.083.006.029,0,.075.006.036,0,.069.005.038,0,.066.005.04,0,.065.005.042,0,.061,0,.046,0,.06,0,.043,0,.063.005.04,0,.067.006.037,0L138.8.45l.039,0,.068.006.035,0,.072.006.033,0,.077.007.027,0,.082.007.023,0,.317.028h.008l.1.009.024,0,.08.007.029,0,.075.007.034,0,.07.006.037,0,.067.006.04,0,.065.006.038,0,.068.006.037,0,.068.007.037,0,.066.006.04,0,.067.007.035,0,.072.007.033,0,.075.007.028,0,.077.008.028,0,.093.009h.009l.1.011h0l.213.022h0l.1.011h.014l.089.009.029,0,.076.008.033,0,.07.007.038,0,.068.007.036,0,.067.007.038,0,.066.007.039,0,.065.007.038,0,.066.007.038,0,.066.007.038,0,.067.008.037,0,.07.008.033,0,.074.008.031,0,.077.009.027,0,.086.01.018,0,.315.037h.005l.1.012.019,0,.085.01.024,0,.08.01.026,0,.078.01.029,0,.075.009.03,0,.075.009.03,0,.074.009.029,0,.076.009.029,0,.077.01.027,0,.076.01.029,0,.076.01.027,0,.078.01.026,0,.083.011.021,0,.09.012.014,0,.419.056h.007l.1.013.015,0,.089.012.02,0,.084.011.022,0,.08.011.027,0,.077.011.026,0,.077.011.027,0,.077.011.028,0,.076.011.029,0,.076.011.027,0,.078.011.025,0,.081.012.022,0,.083.012.021,0,.091.013.011,0,.627.093h.01l.093.014.017,0,.087.013.017,0,.086.013.02,0,.083.013.021,0,.081.012.026,0,.078.012.024,0,.079.012.025,0,.079.012.024,0,.08.013.024,0,.084.013.017,0,.087.014.017,0,.094.015h.007l.1.016h0l.418.068h0l.1.017h.005l.1.016.015,0,.087.015.02,0,.081.014.024,0,.079.013.025,0,.077.013.026,0,.078.013.024,0,.08.014.022,0,.083.014.019,0,.084.015.019,0,.086.015.017,0,.092.016.01,0,.724.129.011,0,.091.016.018,0,.084.015.021,0,.082.015.02,0,.083.015.019,0,.083.015.021,0,.082.015.021,0,.081.015.022,0,.082.015.019,0,.084.016.018,0,.091.017.009,0,.1.019h0l.62.12h.007l.1.019.009,0,.093.018.013,0,.09.018.013,0,.087.017.019,0,.083.017.018,0,.084.017.018,0,.086.017.015,0,.086.017.017,0,.089.018.011,0,.1.02h0l.822.171h.006l.1.02.01,0,.09.019.017,0,.084.018.018,0,.083.018.021,0,.081.017.021,0,.079.017.024.005.08.017.019,0,.084.018.018,0,.086.019.014,0,.088.019.014,0,.1.022h0l.715.16.011,0,.09.02.014,0,.087.02.017,0,.085.019.017,0,.083.019.02,0,.083.019.017,0,.084.019.018,0,.084.02.016,0,.085.02.015,0,.088.021.012,0,.1.022h0l.712.17h.006l.094.023.014,0,.086.021.017,0,.083.02.02,0,.081.02.019,0,.08.02.023.006.079.019.021.005.079.02.023.006.079.02.019,0,.084.021.015,0,.089.022.011,0,.093.023.007,0,.707.18h0l.094.024.015,0,.086.022.015,0,.085.022.017,0,.083.022.018,0,.081.021.021.006.08.021.019.005.081.021.019,0,.082.022.018,0,.081.021.019.005.087.023.011,0,.094.025h.005l.5.135h0l.095.026.018.005.081.022.02.005.08.022.022.006.077.021.025.007.073.02.029.008.072.02.025.007.074.02.027.008.072.02.025.007.073.02.027.008.074.021.023.006.08.022.019.005.087.024.011,0,.091.026.008,0,.4.114h0l.1.028.006,0,.09.026L163.55,5l.079.023.021.006.077.022.024.007.075.022.025.007.072.021.028.008.07.02.03.009.068.02.031.009.068.02.03.009.068.02.03.009.07.021.028.008.073.022.024.007.08.024.017.005.085.025.013,0,.1.029h0l.3.09.011,0,.086.026.02.006.078.024.023.007.075.023.025.008.071.022.031.009.066.02.033.01.064.02.035.011.063.02.033.01.066.02.032.01.067.021.028.009.071.022.028.009.07.022.027.008.071.022.027.009.075.024.021.007.079.025.019.006.294.093.009,0,.086.027.031.01.066.021.034.011.062.02.036.012.061.02.039.012.055.018.044.014.054.017.041.013.056.018.041.013.056.018.041.013.053.017.044.014.052.017.044.014.051.017.046.015.05.016.046.015.046.015.051.017.044.015.051.017.051.017.044.015.066.022.042.014.082.027.053.018.042.014.05.017.047.016.049.016.046.016.05.017.045.015.05.017.046.015.048.016.048.016.05.017.044.015.051.017.044.015.051.018.044.015.05.017.045.015.052.018.041.014.054.019.04.014.056.019.039.014.054.019.043.015.053.018.039.013.057.02.029.01.248.086h0l.066.023.029.01.064.023.029.01.06.021.036.013.058.02.036.013.059.021.036.013.059.021.035.012.059.021.037.013.058.021.035.012.06.022.033.012.062.022.03.011.064.023.03.011.065.023.026.009.068.024.025.009.071.025.015.005.079.029.008,0,.451.165h0l.079.029.015.005.076.028.017.006.073.027.021.008.073.027.02.007.072.027.021.008.072.027.02.007.071.027.022.008.072.027.019.007.074.028.018.007.076.029.014.005.079.03.01,0c.332.125.664.252.995.379h0l.085.033.008,0,.086.033h0l.088.034,0,0,.087.034.005,0,.086.034.006,0,.088.034h0q2.915,1.142,5.757,2.419L154.182,69.566A63.435,63.435,0,0,0,128,64V0Z" transform="translate(159.229 328.474) rotate(-48)"/><path class="g" d="M128,0h1.859l.131,0,.123,0,.11,0,.106,0,.106,0,.108,0,.107,0,.106,0,.107,0,.107,0,.107,0,.106,0,.106,0,.107,0,.106,0,.105,0,.105,0,.106,0,.106,0,.105,0,.106,0,.105,0,.106,0,.106,0,.106,0,.106,0,.106,0,.108,0,.107,0,.1,0,.1,0,.109,0,.109,0,.111,0h.035l.081,0h.025l.212.009h.032l.075,0,.1,0,.045,0,.062,0,.042,0,.063,0,.043,0,.063,0,.042,0,.063,0,.043,0,.064,0,.042,0,.061,0,.045,0,.06,0,.046,0,.059,0,.047,0,.061,0,.044,0,.062,0,.044,0,.063,0,.042,0,.067,0,.038,0,.082,0h.023l.1.006h0l.108.006h0l.1.006.028,0,.078,0,.03,0,.075,0,.036,0,.069,0,.038,0,.068,0,.039,0,.066,0,.039,0,.066,0,.041,0,.064,0,.042,0,.062,0,.044,0,.062,0,.042,0,.064,0,.041,0,.067,0,.038,0,.068,0,.038,0,.071.005.034,0,.076.005.03,0,.1.007h.007l.319.024.022,0,.083.006.029,0,.075.006.036,0,.069.005.038,0,.066.005.04,0,.065.005.042,0,.061,0,.046,0,.06,0,.043,0,.063.005.04,0,.067.006.037,0L138.8.45l.039,0,.068.006.035,0,.072.006.033,0,.077.007.027,0,.082.007.023,0,.317.028h.008l.1.009.024,0,.08.007.029,0,.075.007.034,0,.07.006.037,0,.067.006.04,0,.065.006.038,0,.068.006.037,0,.068.007.037,0,.066.006.04,0,.067.007.035,0,.072.007.033,0,.075.007.028,0,.077.008.028,0,.093.009h.009l.1.011h0l.213.022h0l.1.011h.014l.089.009.029,0,.076.008.033,0,.07.007.038,0,.068.007.036,0,.067.007.038,0,.066.007.039,0,.065.007.038,0,.066.007.038,0,.066.007.038,0,.067.008.037,0,.07.008.033,0,.074.008.031,0,.077.009.027,0,.086.01.018,0,.315.037h.005l.1.012.019,0,.085.01.024,0,.08.01.026,0,.078.01.029,0,.075.009.03,0,.075.009.03,0,.074.009.029,0,.076.009.029,0,.077.01.027,0,.076.01.029,0,.076.01.027,0,.078.01.026,0,.083.011.021,0,.09.012.014,0,.419.056h.007l.1.013.015,0,.089.012.02,0,.084.011.022,0,.08.011.027,0,.077.011.026,0,.077.011.027,0,.077.011.028,0,.076.011.029,0,.076.011.027,0,.078.011.025,0,.081.012.022,0,.083.012.021,0,.091.013.011,0,.627.093h.01l.093.014.017,0,.087.013.017,0,.086.013.02,0,.083.013.021,0,.081.012.026,0,.078.012.024,0,.079.012.025,0,.079.012.024,0,.08.013.024,0,.084.013.017,0,.087.014.017,0,.094.015h.007l.1.016h0l.418.068h0l.1.017h.005l.1.016.015,0,.087.015.02,0,.081.014.024,0,.079.013.025,0,.077.013.026,0,.078.013.024,0,.08.014.022,0,.083.014.019,0,.084.015.019,0,.086.015.017,0,.092.016.01,0,.724.129.011,0,.091.016.018,0,.084.015.021,0,.082.015.02,0,.083.015.019,0,.083.015.021,0,.082.015.021,0,.081.015.022,0,.082.015.019,0,.084.016.018,0,.091.017.009,0,.1.019h0l.62.12h.007l.1.019.009,0,.093.018.013,0,.09.018.013,0,.087.017.019,0,.083.017.018,0,.084.017.018,0,.086.017.015,0,.086.017.017,0,.089.018.011,0,.1.02h0l.822.171h.006l.1.02.01,0,.09.019.017,0,.084.018.018,0,.083.018.021,0,.081.017.021,0,.079.017.024.005.08.017.019,0,.084.018.018,0,.086.019.014,0,.088.019.014,0,.1.022h0l.715.16.011,0,.09.02.014,0,.087.02.017,0,.085.019.017,0,.083.019.02,0,.083.019.017,0,.084.019.018,0,.084.02.016,0,.085.02.015,0,.088.021.012,0,.1.022h0l.712.17h.006l.094.023.014,0,.086.021.017,0,.083.02.02,0,.081.02.019,0,.08.02.023.006.079.019.021.005.079.02.023.006.079.02.019,0,.084.021.015,0,.089.022.011,0,.093.023.007,0,.707.18h0l.094.024.015,0,.086.022.015,0,.085.022.017,0,.083.022.018,0,.081.021.021.006.08.021.019.005.081.021.019,0,.082.022.018,0,.081.021.019.005.087.023.011,0,.094.025h.005l.5.135h0l.095.026.018.005.081.022.02.005.08.022.022.006.077.021.025.007.073.02.029.008.072.02.025.007.074.02.027.008.072.02.025.007.073.02.027.008.074.021.023.006.08.022.019.005.087.024.011,0,.091.026.008,0,.4.114h0l.1.028.006,0,.09.026L163.55,5l.079.023.021.006.077.022.024.007.075.022.025.007.072.021.028.008.07.02.03.009.068.02.031.009.068.02.03.009.068.02.03.009.07.021.028.008.073.022.024.007.08.024.017.005.085.025.013,0,.1.029h0l.3.09.011,0,.086.026.02.006.078.024.023.007.075.023.025.008.071.022.031.009.066.02.033.01.064.02.035.011.063.02.033.01.066.02.032.01.067.021.028.009.071.022.028.009.07.022.027.008.071.022.027.009.075.024.021.007.079.025.019.006.294.093.009,0,.086.027.031.01.066.021.034.011.062.02.036.012.061.02.039.012.055.018.044.014.054.017.041.013.056.018.041.013.056.018.041.013.053.017.044.014.052.017.044.014.051.017.046.015.05.016.046.015.046.015.051.017.044.015.051.017.051.017.044.015.066.022.042.014.082.027.053.018.042.014.05.017.047.016.049.016.046.016.05.017.045.015.05.017.046.015.048.016.048.016.05.017.044.015.051.017.044.015.051.018.044.015.05.017.045.015.052.018.041.014.054.019.04.014.056.019.039.014.054.019.043.015.053.018.039.013.057.02.029.01.248.086h0l.066.023.029.01.064.023.029.01.06.021.036.013.058.02.036.013.059.021.036.013.059.021.035.012.059.021.037.013.058.021.035.012.06.022.033.012.062.022.03.011.064.023.03.011.065.023.026.009.068.024.025.009.071.025.015.005.079.029.008,0,.451.165h0l.079.029.015.005.076.028.017.006.073.027.021.008.073.027.02.007.072.027.021.008.072.027.02.007.071.027.022.008.072.027.019.007.074.028.018.007.076.029.014.005.079.03.01,0c.332.125.664.252.995.379h0l.085.033.008,0,.086.033h0l.088.034,0,0,.087.034.005,0,.086.034.006,0,.088.034h0q2.915,1.142,5.757,2.419L154.182,69.566A63.435,63.435,0,0,0,128,64V0Z" transform="translate(170.868 254.483) rotate(-24.12)"/><text class="h" transform="translate(644 426)"><tspan x="0" y="0">MS OneNote</tspan></text><text class="i" transform="translate(855 426)"><tspan x="-13.77" y="0">1</tspan></text><text class="h" transform="translate(644 218)"><tspan x="0" y="0">MS Word</tspan></text><text class="i" transform="translate(855 218)"><tspan x="-13.77" y="0">6</tspan></text><text class="h" transform="translate(644 270)"><tspan x="0" y="0">Google Doc</tspan></text><text class="i" transform="translate(855 270)"><tspan x="-13.77" y="0">4</tspan></text><text class="h" transform="translate(644 374)"><tspan x="0" y="0">Apple Pages</tspan></text><text class="i" transform="translate(855 374)"><tspan x="-13.77" y="0">1</tspan></text><text class="h" transform="translate(644 322)"><tspan x="0" y="0">Apple Notes</tspan></text><text class="i" transform="translate(855 322)"><tspan x="-13.77" y="0">3</tspan></text><rect class="c" width="24" height="24" rx="12" transform="translate(588 198)"/><rect class="d" width="24" height="24" rx="12" transform="translate(588 250)"/><rect class="e" width="24" height="24" rx="12" transform="translate(588 302)"/><rect class="f" width="24" height="24" rx="12" transform="translate(588 354)"/><rect class="g" width="24" height="24" rx="12" transform="translate(588 406)"/><text class="j" transform="translate(538 140)"><tspan x="-126.922" y="0">Application Users</tspan></text><g class="ad" transform="matrix(1, 0, 0, 1, 0, 0)"><rect class="b" width="780" height="436" rx="64" transform="translate(992 64)"/></g><text class="j" transform="translate(1382 142)"><tspan x="-106.758" y="0">User Retention</tspan></text><path class="e" d="M128,0A128,128,0,0,1,256,128h0c0,.03,0,.062,0,.092,0,.009,0,.017,0,.027,0,.026,0,.047,0,.073,0,.006,0,.015,0,.021,0,.035,0,.057,0,.092,0,.006,0,.014,0,.02,0,.026,0,.048,0,.074v.027c0,.06,0,.125,0,.185v.024c0,.026,0,.048,0,.074,0,.006,0,.015,0,.022,0,.03,0,.06,0,.091v.023c0,.026,0,.047,0,.073,0,.009,0,.016,0,.025,0,.06,0,.125,0,.186v.544c0,.026,0,.044,0,.07v.022c0,.034,0,.056,0,.091v.021c0,.026,0,.048,0,.073v.116h0l0,.094v.021c0,.026,0,.052,0,.078v.018l0,.093v.119l0,.086v.006l0,.092v.024l0,.075v.02l0,.092v.019l0,.075v.026l0,.087v0l0,.091v.028l0,.069v.026l0,.09v.018l0,.076v.025l0,.086v.007l0,.091v.027l0,.07v.023l0,.09v.021l0,.073v.026l0,.086v.006l0,.093v.023l0,.075v.021l0,.093v.013l0,.08v.025l0,.089v0l0,.094v.021l0,.077v.019l0,.091v.02l0,.075v.025l0,.083v.01l0,.092v.023l0,.073v.023l0,.09v.018l0,.074v.027l0,.081v.011l0,.091v.025l0,.073v.021l0,.091v.018l0,.076v.024l0,.083v.01l0,.091v.025l0,.07v.025l0,.09v.018l0,.072,0,.031,0,.075v.016l0,.09v.025l0,.072v.022l0,.091v.016l0,.078v.024l0,.083v.01l-.005.092v.022l0,.071v.026l-.005.089v.018l0,.074,0,.026,0,.079v.013l-.005.09,0,.027,0,.068,0,.025-.005.089v.019l0,.073,0,.027,0,.077v.014l-.006.089,0,.026,0,.068,0,.027-.006.089v.015l-.005.076,0,.027-.005.08v.011l-.006.092v.021l-.005.073,0,.023-.006.091v.013l-.006.081,0,.022-.006.086v.007l-.007.094v.017l-.006.079v.019l-.007.092v.01l-.006.081,0,.025-.006.079v.014l-.007.089,0,.026-.005.07,0,.022-.007.091v.014l-.006.078,0,.025-.006.078v.013l-.007.091,0,.021-.006.074,0,.021-.008.092v.006l-.007.083,0,.027-.006.075v.017l-.008.09,0,.023-.006.07,0,.025-.008.088v.017l-.006.075,0,.027-.006.074v.016l-.008.089,0,.024-.006.068,0,.028-.008.088v.014l-.007.077,0,.026-.007.078v.013l-.008.09,0,.023-.007.07,0,.024-.008.089v.014l-.007.077,0,.026-.007.074,0,.018-.008.088,0,.025-.006.067,0,.028-.009.089v.008l-.008.082,0,.027-.007.074,0,.017-.009.089,0,.025-.007.066,0,.029-.009.085,0,.022-.007.069,0,.031-.007.068,0,.022-.009.089,0,.021-.007.071,0,.026-.009.089v.008l-.009.081,0,.026-.008.076,0,.015-.01.09,0,.022-.008.074,0,.019-.01.093h0l-.01.091,0,.021-.009.078,0,.015-.01.09,0,.021-.008.072,0,.023-.01.091v0l-.01.085,0,.028-.008.071,0,.019-.01.089,0,.021-.008.072,0,.023-.01.089v.01l-.01.081,0,.024-.009.074,0,.018-.011.089,0,.022-.008.069,0,.028-.01.087,0,.013-.009.077,0,.028-.009.072,0,.018-.011.087,0,.026-.008.066,0,.027L255,144.1l0,.013-.01.076,0,.029-.009.068,0,.022-.011.087,0,.023-.009.069,0,.026-.011.089v0l-.011.086,0,.026-.009.072,0,.018-.012.09,0,.019-.009.071,0,.026-.012.088v.007l-.011.084,0,.023-.01.074,0,.017-.012.09,0,.016-.01.076,0,.023-.025.179,0,.024-.01.073,0,.019-.012.088,0,.022-.01.07,0,.024-.013.089v0l-.012.086,0,.024-.01.073,0,.018-.013.09,0,.015-.011.078,0,.019-.026.18,0,.024-.011.073,0,.018-.013.089,0,.017-.011.074,0,.024-.013.088v0l-.013.089,0,.023-.011.072,0,.02-.013.087,0,.024-.01.066,0,.03-.012.078,0,.013-.013.082,0,.026-.011.072,0,.019-.014.088,0,.02-.011.071,0,.023-.014.087v0l-.014.089,0,.024-.011.071,0,.021-.014.088,0,.02-.011.07,0,.026-.028.175,0,.027-.011.07,0,.019-.015.09,0,.014-.012.075,0,.024-.013.078,0,.016-.014.083,0,.027-.011.066,0,.024-.014.086,0,.02-.012.07,0,.026-.014.084v0l-.015.087,0,.027-.012.067,0,.023-.015.085,0,.024-.012.067,0,.025-.014.082v.007l-.015.088,0,.024-.012.068,0,.023-.015.087,0,.02-.012.069,0,.028-.014.08v.006l-.015.087,0,.027-.012.068,0,.021-.016.088,0,.017-.013.073,0,.024-.015.08,0,.009-.016.09,0,.019-.013.072,0,.021-.016.086,0,.021-.012.066-.006.03-.014.073,0,.013-.016.085,0,.026-.013.068,0,.022-.016.086,0,.021-.013.067-.005.028-.014.071,0,.018-.016.084-.005.028-.012.063-.005.026-.016.085,0,.02-.013.069-.005.027-.015.075,0,.012-.016.084-.006.03-.012.062-.005.026-.017.085,0,.019-.013.068-.006.029-.013.066,0,.023-.016.082-.006.028-.012.062-.005.027-.017.084,0,.021-.013.067-.006.029-.014.07,0,.016-.017.083-.006.03-.012.06-.006.029-.016.081-.006.028-.012.06-.006.03-.014.067,0,.021-.017.084-.006.027-.013.063-.005.026-.018.084,0,.019-.015.069-.006.027-.016.076,0,.011-.018.084-.006.029-.013.061-.006.028-.018.083,0,.021-.014.066-.006.03-.014.067,0,.02-.018.084-.005.025-.014.064-.006.027-.018.083,0,.019-.015.067-.007.03-.015.069,0,.017-.019.086,0,.022-.015.07,0,.021-.019.086,0,.017-.016.07-.006.025-.016.074,0,.014-.019.085-.006.025-.014.063-.006.027-.019.084,0,.017-.015.069-.007.03-.015.068,0,.016-.019.084-.006.028-.014.062-.006.027-.019.083,0,.019-.015.066-.007.031-.014.061-.006.026-.019.08-.007.03-.013.058-.007.031-.019.081,0,.02-.015.066-.007.031-.015.064,0,.021-.019.082-.007.028-.015.062-.006.026-.02.083,0,.02-.016.069-.006.025-.017.072,0,.016-.02.085-.006.025-.015.062-.007.028-.02.083,0,.017-.016.068-.007.029-.017.068,0,.017-.02.082-.008.031-.014.057-.007.03-.02.082,0,.016-.017.07-.007.027-.016.066-.005.021-.021.084-.006.023-.016.064-.007.028-.02.081,0,.02-.017.066-.008.03-.016.063-.006.023-.021.082-.006.025-.016.063-.007.027-.021.082-.005.02-.017.066-.007.028-.017.065-.005.021-.021.083-.006.024-.016.062-.007.028-.021.082,0,.017-.018.068-.008.029-.016.063-.006.023-.021.081-.008.029-.015.057-.008.03-.021.081,0,.018-.018.067-.008.03-.016.061-.007.025-.022.082-.006.024-.016.062-.007.027-.022.083,0,.012-.02.074-.007.026-.018.068,0,.018-.022.083-.007.025-.017.062-.007.027-.022.081,0,.017-.019.069-.007.027-.018.065-.006.022-.022.082-.007.024-.017.062-.008.028-.023.083,0,.01-.021.076-.007.025-.019.07,0,.015-.023.084-.007.024-.018.063-.007.025-.023.083,0,.01-.021.074-.008.027-.018.063-.007.024-.023.082-.006.023-.017.062-.008.03-.021.074-.006.023-.019.067-.009.032-.017.058-.007.026-.023.08-.008.026-.018.062-.007.026-.021.074-.007.024-.02.068-.008.027-.018.063-.007.023-.023.081-.007.025-.017.06-.008.029-.023.078,0,.013-.022.074-.008.029-.018.062-.006.022-.024.081-.007.024-.019.063-.007.025-.025.083v0l-.024.08-.008.027-.018.059-.008.028-.023.079-.008.026-.017.058-.009.031-.022.073-.005.018-.022.072-.009.031-.017.057-.008.027-.024.078-.009.028-.017.057-.009.031-.02.064-.01.033-.019.064-.01.031-.017.057-.009.028-.024.078-.009.029-.017.054-.01.033-.019.063-.01.033-.02.063-.011.035-.016.052-.009.03-.023.075-.011.036-.015.047-.011.037-.018.057-.012.038-.019.061-.011.035-.016.05-.01.033-.024.077-.009.028-.017.055-.01.033-.019.06-.012.037-.02.062-.011.035-.016.05-.01.031-.024.076-.01.031-.017.053-.011.034-.018.056-.013.04-.02.062-.01.032-.018.055-.009.029-.025.077-.009.029-.017.053-.011.034-.02.061-.01.031-.022.066-.011.034-.017.051-.01.031-.025.076-.01.031-.017.053-.011.033-.02.062-.008.025-.023.071-.011.034-.016.05-.011.034-.025.075-.01.029-.017.052-.011.034-.021.063-.007.021-.025.075-.01.03-.018.054-.01.03-.025.075-.011.032-.017.05-.013.038-.015.045-.018.052-.019.056-.012.034-.017.051-.011.033-.025.074-.011.032-.017.049-.012.036-.019.055-.012.034-.022.065-.012.036-.017.048-.011.033-.025.074-.012.035-.016.047-.013.037-.017.05-.015.044-.02.058-.013.038-.016.045-.013.037-.026.074-.011.032-.016.047-.013.038-.017.05-.016.045-.021.059-.013.038-.016.044-.013.036-.026.074-.01.028-.019.055-.012.032-.019.052-.015.042-.022.061-.012.035-.017.047-.013.036-.026.072-.012.035-.016.044-.014.04-.017.048-.016.044-.021.06-.014.037-.016.045-.013.035-.022.062-.017.047-.016.044-.013.037-.018.049-.014.039-.023.064-.014.038-.015.04-.015.042-.025.069-.013.035-.016.044-.014.039-.018.049-.012.033-.026.07-.013.035-.017.047-.013.034-.027.074-.011.028-.02.054-.012.032-.019.051-.015.039-.024.064-.012.033-.019.05-.012.033-.027.073-.012.031-.019.049-.014.036-.019.05-.012.033-.026.068-.015.039-.016.042-.014.038-.02.054-.021.055-.015.04-.015.04-.016.043-.018.047-.022.059-.015.04-.015.039-.016.041-.025.065-.015.039-.017.044-.015.04-.016.041-.022.058-.019.049-.016.042-.015.038-.016.04-.019.05-.022.058-.016.041-.016.041-.014.036-.027.068-.016.041-.016.042-.015.038-.016.042-.017.044-.025.065-.014.036-.017.043-.016.04-.022.056-.02.051-.016.041-.015.037-.016.041-.017.043-.026.064-.016.039-.016.04-.016.04-.022.055-.021.052-.017.042-.014.035-.018.044-.016.04-.026.065-.015.037-.017.043-.015.038-.023.056-.021.052-.017.042-.014.035-.018.043-.014.034-.031.076-.014.033-.018.044-.013.031-.032.078-.014.033-.017.042-.015.036-.018.043-.014.034-.031.074-.014.033-.018.044-.014.035-.029.07-.016.039-.017.042-.016.038-.016.039-.018.043-.028.068-.014.034-.018.044-.014.033-.029.071-.016.038-.018.044-.014.033-.019.046-.013.031-.033.078-.013.03-.02.047-.013.03-.041.1-.005.013-.021.049-.012.028-.02.047-.011.027-.035.081-.014.033-.019.044-.013.031-.034.079-.013.031-.018.043-.014.034-.019.045-.013.03-.035.081-.012.028-.02.046-.014.032-.038.087-.009.02-.021.048-.012.028-.02.047-.012.028-.036.082-.013.031-.019.043-.015.034-.027.063-.019.044-.02.046-.013.029-.021.047-.012.027-.036.082-.013.03-.02.045-.015.035-.022.05-.025.057-.019.043-.014.032-.019.044-.013.03-.035.078-.014.032-.02.045-.012.028-.038.086-.011.025-.019.042-.016.036-.019.043-.013.028-.038.085-.011.025-.021.048-.012.027-.072.161-.01.022-.022.049-.01.023-.042.092-.01.022-.022.048-.012.027-.037.082-.013.028-.02.044-.015.032-.02.044-.018.04-.027.06-.019.041-.019.042-.015.034-.036.077-.013.029-.021.046-.013.029-.021.045-.014.03-.035.075-.016.034-.02.043-.014.031-.071.153-.014.03-.021.046-.012.025-.041.087-.01.022-.022.047-.014.029-.073.156-.012.025-.022.048-.011.023-.044.094-.009.018-.023.049-.012.025-.076.16-.01.022-.024.051-.009.019-.044.093-.01.02-.023.048-.012.026-.075.157-.012.026-.023.048-.01.021-.046.1-.008.016-.025.053-.007.015-.08.166-.01.021-.026.053,0,.008-.054.112,0,.008-.025.052-.01.022-.078.161-.011.022-.024.049-.01.02-.047.1-.009.018-.024.049-.011.023-.079.161-.01.02-.026.052-.007.015-.05.1-.006.012-.025.051-.011.021-.081.163-.008.017-.026.052-.008.017-.046.093-.011.022-.023.047-.012.024-.08.159-.011.021-.025.051-.008.016-.052.1,0,.01-.026.051-.011.023-.081.16-.01.02-.025.049-.01.02-.051.1-.005.011-.026.051-.01.019-.085.166-.006.011-.029.057,0,0-.09.175-.007.014-.088.17-.005.01-.029.056,0,.007-.059.113,0,.006-.028.054-.007.014-.085.164-.01.02-.027.051-.007.013-.088.168-.008.015-.088.168-.006.012-.029.054-.005.01-.09.171-.006.011-.09.17-.006.011-.03.056,0,.007-.092.172-.006.012-.092.173,0,.006-.03.056,0,.009-.092.171-.005.01-.093.172,0,.008-.031.057,0,0-.094.174-.007.013-.093.171,0,.006-.031.057,0,.008-.094.171-.006.011-.095.172,0,.006-.032.058,0,0-.095.172-.007.013-.095.171,0,0-.032.058,0,0-.1.177,0,0-.1.176,0,.005-.033.058v0l-.1.174-.005.009-.1.171,0,.007-.031.055-.005.01-.1.169,0,.009-.236.414,0,0-.136.237,0,0-.1.175,0,0-.239.412,0,.007-.136.233,0,.005-.1.171,0,.008-.242.41,0,0-.14.235h0q-.672,1.126-1.366,2.237h0a128.571,128.571,0,0,1-52.437,47.306l-28.133-57.485A64.02,64.02,0,0,0,128,64V0Z" transform="translate(1065 192.92)"/><path class="c" d="M128,0A128,128,0,0,1,256,128h0c0,.03,0,.063,0,.093,0,.006,0,.011,0,.017,0,.03,0,.058,0,.088,0,.006,0,.013,0,.019,0,.03,0,.059,0,.089,0,0,0,.01,0,.015,0,.03,0,.058,0,.088,0,0,0,0,0,.007v.107q0,.045,0,.091c0,.006,0,.012,0,.017,0,.03,0,.061,0,.091v.1s0,.009,0,.013c0,.03,0,.061,0,.091,0,0,0,.01,0,.015,0,.03,0,.061,0,.091v.014c0,.03,0,.064,0,.094,0,0,0,0,0,0,0,.03,0,.063,0,.093v.012c0,.03,0,.062,0,.092v.014c0,.03,0,.063,0,.093v.107c0,.03,0,.062,0,.092v.018c0,.026,0,.062,0,.087v.12q0,.045,0,.09v.007c0,.03,0,.061,0,.091v.122l0,.092v.01l0,.087v.014l0,.086v.024l0,.084v.02l0,.089v.008l0,.086v.018l0,.087v.02l0,.087v.017l0,.086v.008l0,.089v.021l0,.085v.022l0,.087v.013l0,.083v.015l0,.088v.018l0,.087v.02l0,.09v0l0,.089v.015l0,.088v.019l0,.086v.021l0,.084v.01l0,.086v.02l0,.086v.02l0,.087v.017l0,.083v.01l0,.089v.019l0,.085v.022l0,.085v.02l0,.076v.018l0,.085v.023l0,.085v.019l0,.084v.018l0,.079v.019l0,.084v.024l0,.083v.021l0,.078v.02l0,.079v.023l0,.081v.027l0,.081v.02l0,.076v.017l0,.084v.024l0,.08v.027l0,.081v.021l0,.068v.027l0,.08v.026l0,.08v.026l0,.077v.019l0,.075V135l0,.08v.025l0,.082v.022l0,.075v.02l0,.079v.026l0,.079,0,.027,0,.081v.02l0,.072v.022l0,.079,0,.029,0,.077,0,.03,0,.072,0,.029,0,.069,0,.025,0,.077,0,.031,0,.077,0,.027,0,.069,0,.03,0,.069,0,.027-.005.077,0,.031-.005.077,0,.027,0,.066,0,.031,0,.07,0,.031-.005.076,0,.031-.005.076,0,.027,0,.062,0,.028-.006.077,0,.03-.006.077,0,.029-.005.07,0,.032,0,.063,0,.032-.006.074,0,.034-.005.072,0,.036,0,.058,0,.038,0,.063,0,.035-.006.072,0,.034-.006.07,0,.035,0,.059,0,.035-.006.07,0,.031-.006.075,0,.032-.005.064,0,.041,0,.057,0,.031-.006.074,0,.033-.006.073,0,.034,0,.057,0,.047,0,.057,0,.032-.006.074,0,.032-.007.076,0,.028-.005.06,0,.044-.005.058,0,.034-.007.072,0,.035-.006.069,0,.034-.005.059,0,.036-.006.068,0,.033-.007.073,0,.035-.006.062,0,.038-.006.059,0,.031-.007.074,0,.033-.007.072,0,.034-.006.059,0,.041-.006.058,0,.035-.007.072,0,.035-.007.072,0,.034-.006.056,0,.041-.006.06,0,.038-.007.07,0,.033-.007.069,0,.034-.006.06,0,.029-.008.074,0,.034-.008.073,0,.032-.007.065,0,.035-.007.062,0,.03-.008.073,0,.035-.008.072,0,.031-.007.062,0,.035-.007.068,0,.028-.008.074,0,.032-.008.076,0,.026-.007.062,0,.03-.008.074,0,.028-.009.075,0,.033-.008.069,0,.03-.008.067,0,.024-.009.08,0,.025-.009.08,0,.025-.008.072,0,.024-.009.074,0,.021-.01.08,0,.026-.009.079,0,.024-.008.069,0,.026-.009.073,0,.026-.01.08,0,.024-.01.08,0,.021-.009.072,0,.018-.01.081,0,.026-.01.078,0,.027-.009.072,0,.029-.008.065,0,.027-.01.078,0,.026-.01.08,0,.021-.01.077,0,.016-.011.081,0,.019-.011.083,0,.02-.011.084,0,.018-.01.075,0,.017-.011.084,0,.02-.011.083,0,.02-.012.085,0,.011-.011.079,0,.018-.011.083,0,.02-.011.083,0,.02-.012.087v.006l-.012.084,0,.017-.012.084,0,.02-.012.084,0,.015-.012.087v0l-.013.09,0,.014-.013.089,0,.012-.013.091v.007l-.013.093v0l-.013.091,0,.013-.013.091v.006l-.029.194v0l-.014.094v.009l-.014.093v.005l-.029.191v.007l-.014.092,0,.011-.014.093v0l-.03.2h0l-.015.1v0q-.771,4.942-1.915,9.757L190.276,142.88A64.113,64.113,0,0,0,128,64V0Z" transform="matrix(-0.899, 0.438, -0.438, -0.899, 1364.157, 379.854)"/><path class="d" d="M128,0h1.967l.109,0,.1,0,.1,0,.1,0,.109,0,.1,0,.094,0,.108,0,.106,0,.1,0,.1,0,.109,0,.1,0,.092,0h0l.106,0,.106,0,.1,0,.187.005.106,0,.106,0,.1,0,.1,0,.105,0h.017l.091,0h.007l.086,0h.017l.088,0h.018l.089,0,.1,0h.014l.086,0,.105,0h.02l.089,0h.01l.085,0h.015l.088,0h.017l.088,0h.017l.091,0h.006l.088,0h.015l.088,0h.019l.087,0h.017l.087,0h0l.09,0h.019l.086,0h.021l.086,0h.017l.079,0h.016l.084,0h.024l.085,0h.018l.09,0h.008l.087,0h.014l.086,0h.023l.086,0h.015l.09,0h0l.092.005h.016l.087,0h.019l.088.005h.013l.087.005h.008l.089.005h.02l.084.005h.022l.086.005h.015l.078,0h.02l.085.005h.021l.084.005h.022l.083.005h.008l.087.006h.019l.086.006h.02l.087.006h.016l.081.005h.013L136.82.3h.021l.084.006.022,0,.085.006h.013l.08.006h.017l.085.006h.021l.085.006h.018l.085.006h.011l.086.006h.017l.084.006.024,0,.083.006h.019l.074.006h.019l.084.006.022,0,.083.006.024,0,.083.007h.016L138.24.4l.021,0,.082.007.024,0,.084.007h.017l.09.007h0l.086.007.02,0,.084.007.021,0,.085.007h.017l.081.007h.012l.085.007.022,0,.082.007.022,0,.085.007h.015l.08.007h.014l.084.007.025,0,.08.007.024,0,.078.007.021,0,.077.007.02,0,.083.008.023,0,.083.008.019,0,.077.007h.015l.085.008.021,0,.082.008.024,0,.084.008h.015L140.47.6l.017,0,.084.008.022,0,.081.008.024,0,.082.008h.014l.076.008.024,0,.079.008.027,0,.078.008.028,0,.068.007.023,0,.079.008.022,0,.082.008.023,0,.082.009.021,0,.071.007.02,0,.08.009.026,0,.08.009.024,0,.075.008.026,0,.072.008.022,0,.081.009.025,0,.083.009.018,0,.077.009.02,0,.079.009.022,0,.081.009.025,0,.082.009.018,0,.071.008.024,0,.079.009.026,0,.08.009.023,0,.084.01h.01l.081.009.018,0,.083.01.022,0,.082.01.019,0,.079.009.016,0,.078.009.026,0,.078.009.027,0,.078.01.025,0,.067.008.022,0,.077.01.031,0,.075.009.029,0,.072.009.03,0,.062.008.03,0,.073.009.034,0,.072.009.031,0,.064.008.029,0,.07.009.027,0,.076.01.029,0,.077.01.025,0,.064.008.029,0,.074.01.027,0,.075.01.033,0,.07.009.027,0,.064.009.027,0,.076.01.03,0,.074.01.032,0,.061.008.036,0,.062.009.032,0,.073.01.033,0,.073.01.032,0,.055.008.038.005.066.009.032,0,.073.01.031,0,.065.009.036.005.062.009.026,0,.076.011.029,0,.075.011.031,0,.059.009.04.006.062.009.027,0,.076.011.03,0,.074.011.03,0,.059.009.037.006.064.01.032,0,.073.011.032,0,.064.01.04.006.053.008.037.006.067.01.035.005.071.011.032,0,.063.01.035.005.06.009.033.005.072.011.033.005.071.011.033.005.057.009.036.006.063.01.035.006.07.011.033.005.066.011.035.006.059.01.028,0,.073.012.033.005.071.012.034.006.058.01.04.007.058.009.033.005.069.011.038.006.065.011.039.007.048.008.05.008.054.009.035.006.069.012.035.006.072.012.026,0,.059.01.034.006.068.012.033.006.07.012.035.006.059.01.038.007.059.01.032.006.071.012.032.006.072.013.032.006.058.01.036.006.063.011.032.006.07.012.035.006.058.01.045.008.051.009.039.007.062.011.037.007.068.012.035.006.052.009.05.009.05.009.034.006.068.013.037.007.068.012.036.007.048.009.055.01.046.009.039.007.066.012.039.007.055.01.048.009.046.009.051.01.051.01.04.008.064.012.04.008.047.009.055.011.043.008.049.009.057.011.038.007.065.013.038.007.045.009.059.011.039.008.044.009.062.012.04.008.05.01.055.011.039.008.063.012.039.008.046.009.06.012.043.009.041.008.062.012.038.008.066.013.037.007.047.009.036.007.069.014.032.006.071.014.035.007.063.013.04.008.048.01.035.007.067.014.036.007.062.013.044.009.039.008.065.013.041.009.043.009.059.012.043.009.054.011.048.01.043.009.056.012.05.011.034.007.071.015.031.007.056.012.049.011.046.01.039.008.063.013.039.008.066.014.035.008.045.01.06.013.045.01.031.007.072.016.036.008.055.012.048.011.043.009.057.012.047.01.04.009.062.014.042.009.04.009.063.014.041.009.05.011.053.012.036.008.067.015.036.008.044.01.06.013.044.01.038.009.067.015.031.007.072.016.032.007.047.011.03.007.075.017.029.007.075.017.027.006.084.019.02,0,.049.011.03.007.074.017.032.007.068.016.035.008.05.012.054.013.044.01.036.008.067.016.036.009.06.014.042.01.043.01.056.013.048.011.035.008.069.017.032.008.079.019.023.005.049.012.029.007.074.018.028.007.076.018.029.007.047.011.009,0,.1.024.025.006.076.019.031.008.073.018.03.007.047.012.029.007.076.019.026.006.078.019.025.006.087.022.016,0,.053.013.009,0,.1.024.021.005.085.021.021.005.082.021.024.006.05.013.017,0,.09.023.018,0,.094.024.01,0,.159.041.015,0,.1.025.008,0,.107.028h0l.162.042.01,0,.1.025.01,0,.161.042.01,0,.1.025.014,0,.092.024.016,0,.158.042.014,0,.091.024.015,0,.093.025.013,0,.05.013.023.006.083.022.02.005.089.024.015,0,.159.043.009,0,.1.026.014,0,.1.026.008,0,.159.044.014,0,.09.025.019.005.264.073.006,0,.1.028.007,0,.266.075.013,0,.1.027.01,0,.269.076h0l.269.077.008,0,.1.029.007,0,.27.078h0l.269.079.005,0,.1.03.007,0,.543.161h0l.105.032.006,0,.105.032h0l.653.2h0a127.808,127.808,0,0,1,47.461,26.766h0l.206.184h0l.283.254.009.008.283.255,0,0,.2.183.006.005.075.069.005,0,.118.108.012.011.066.061.013.012.073.066,0,0,.04.036.006.005.071.065.015.014.063.058.015.013.116.107,0,0,.07.065.016.015.064.059.012.011.115.107.014.013.064.06.012.011.066.062.012.011.038.035,0,0,.074.069.014.013.064.06.012.011.068.064.01.009.034.032.025.023.052.049.021.019.055.052.019.018.111.1.021.02.054.051.021.02.058.055.016.015.036.034.023.022.051.049.022.021.052.049.025.024.057.055.015.014.037.035.02.019.054.051.02.019.054.051.023.022.031.03.043.041.033.031.026.025.046.044.029.028.037.035.037.036.027.026.047.045.026.026.033.032.038.037.033.032.026.025.048.046.026.025.041.04.031.03.034.034.035.034.035.034.028.027.046.044.027.027.031.031.041.04.032.031.024.023.047.046.027.026.046.045.026.025.034.033.038.037.034.033.025.024.047.047.025.025.047.046.025.025.033.033.033.033.038.038.025.024.048.047.023.023.045.044.026.026.037.037.026.026.045.045.023.023.049.049.022.022.042.042.025.025.039.039.023.023.049.049.022.022.051.051.019.019.045.045.018.018.049.05.019.019.051.052.02.02.052.053.016.016.044.044.016.016.053.054.018.018.053.054.017.018.05.051.016.016.05.051.013.013.055.056.016.016.057.058.007.007.059.06,0,0,.06.061.01.01.057.058.014.014.057.059.007.007.057.059.007.007.059.06.011.011.058.06.01.01.125.129,0,0,.061.063.01.01.058.06.011.011.122.126.008.008.06.063.007.007.061.064.005.005.125.13.008.008.061.064,0,0,.063.067h0l.064.067,0,0,.062.065.007.007.062.066v0l.13.137,0,0,.064.067,0,0,.261.277,0,0q3.91,4.163,7.442,8.664l-50.35,39.508A63.71,63.71,0,0,0,128,64V0Z" transform="matrix(-0.223, -0.975, 0.975, -0.223, 1096.699, 474.198)"/><path class="g" d="M128,0h1.97l.1,0,.106,0,.106,0,.1,0,.1,0,.107,0,.106,0,.1,0,.1,0,.107,0,.105,0,.1,0,.1,0,.107,0,.1,0,.1,0,.1,0,.105,0,.1,0,.187.006h.015l.091,0h.013l.092,0h.012l.189.006h.015l.09,0h.015l.092,0h.01l.092,0h0l.09,0,.105,0h.018l.089,0h.012l.09,0h.006l.09,0h.019l.087,0h.016l.09,0h.011l.091,0h.005l.091,0h.017l.088,0h.018l.089,0h.013l.086,0h.01l.09,0h.017l.088,0h.016l.09,0h.01l.085,0h.015l.086,0h.021l.086,0h.018l.089,0h.01l.086,0h.013l.087,0H135l.088,0h.014L135.2.2h0l.091.005h.012l.088,0h.02l.087,0h.016l.091.005h.005l.088.005h.015l.087.005h.019l.086.005h.019l.087.005h.005l.089.006h.017l.085.005h.022l.085.005h.018l.084.005h.009l.089.006h.017l.086.006h.021l.085.006h.016l.085.006h.008l.089.006h.018l.085.006h.021l.086.006h.014l.086.006h.009l.09.006h.016l.088.006h.017l.088.006h.014l.081.006h.015l.084.006.024,0,.08.006.026,0,.082.006h.019l.073.006.021,0L138.14.4l.023,0,.082.006.023,0,.085.007h.012l.081.006h.017l.084.007.022,0,.082.007.024,0,.084.007h.013l.08.007h.018l.084.007.022,0,.084.007.019,0,.087.007h.01l.085.007h.013l.086.008.021,0,.083.007.023,0,.078.007.021,0,.076.007.02,0,.085.008.02,0,.085.008.019,0,.084.008h.009l.083.008.022,0,.084.008.019,0,.084.008.02,0,.08.008h.014l.083.008.021,0,.083.008.02,0,.084.008.019,0,.079.008h.012l.084.008.023,0,.08.008.024,0,.08.008.023,0,.074.007.016,0,.084.009.021,0,.083.009.02,0,.085.009.018,0,.08.008h.011l.085.009.023,0,.083.009.019,0,.085.009.017,0,.078.008.014,0,.086.009.019,0,.085.009.018,0,.086.01.014,0,.079.009.016,0,.085.01.02,0,.084.009.02,0,.084.01.017,0,.077.009.017,0,.084.01.019,0,.087.01h.012l.091.011h.009l.084.01.014,0,.086.01.019,0,.086.01.015,0,.085.01.016,0,.078.009.02,0,.082.01.024,0,.081.01.02,0,.08.01.014,0,.079.01.021,0,.08.01.026,0,.078.01.026,0,.066.008.031,0,.07.009.026,0,.077.01.027,0,.08.01.02,0,.075.01.016,0,.083.011.02,0,.082.011.023,0,.081.011.021,0,.071.009.024,0,.077.01.024,0,.08.011.023,0,.081.011.019,0,.072.01.02,0,.08.011.025,0,.078.011.026,0,.079.011.023,0,.064.009.029,0,.074.01.028,0,.076.011.027,0,.079.011.018,0,.071.01.022,0,.079.011.024,0,.08.012.023,0,.083.012.015,0,.074.011.022,0,.079.012.024,0,.079.012.025,0,.077.011.02,0,.071.011.023,0,.077.012.028,0,.075.011.028,0,.065.01.035.005.061.009.03,0,.074.011.029,0,.074.011.028,0,.069.011.024,0,.069.011.028,0,.077.012.025,0,.078.012.025,0,.069.011.027,0,.07.011.027,0,.077.012.026,0,.079.013.021,0,.073.012.018,0,.076.012.027,0,.077.012.026,0,.078.013.023,0,.07.011.023,0,.072.012.031.005.074.012.028,0,.075.013.024,0,.068.011.018,0,.078.013.027,0,.077.013.025,0,.076.013.027,0,.064.011.024,0,.075.013.03.005.073.013.028,0,.077.013.021,0,.068.012.021,0,.078.014.026,0,.076.013.028,0,.07.012.029.005.063.011.027,0L150.64,2l.034.006.073.013.027,0,.067.012.033.006.064.012.025,0,.075.014.03.005.075.014.025,0,.069.013.031.006.062.011.03.005.071.013.034.006.069.013.032.006.062.012.032.006.064.012.029.005.073.014.031.006.072.014.03.006.061.012.033.006.065.012.029.006.071.014.034.006.071.014.029.006.059.011.037.007.061.012.032.006.069.013.036.007.066.013.034.007.056.011.038.007.062.012.032.006.07.014.034.007.065.013.037.007.052.01.041.008.06.012.035.007.067.014.035.007.059.012.043.009.05.01.042.009.06.012.035.007.067.014.036.007.065.013.03.006.059.012.028.006.072.015.03.006.071.015.032.007.063.013.035.007.059.012.029.006.071.015.033.007.069.015.033.007.059.012.039.008.055.012.031.007.07.015.034.007.068.015.033.007.058.012.04.009.056.012.032.007.07.015.033.007.068.015.035.008.055.012.039.008.058.013.031.007.071.016.029.006.072.016.031.007.058.013.037.008.06.013.032.007.07.016.032.007.069.016.032.007.053.012.042.009.057.013.033.007.069.016.032.007.07.016.03.007.057.013.038.009.057.013.036.008.066.015.036.008.057.013.044.01.049.011.04.009.059.014.036.008.067.016.032.008.064.015.036.008.058.014.026.006.073.017.029.007.071.017.03.007.064.015.036.009.054.013.029.007.07.017.032.008.068.016.035.008.051.012.05.012.049.012.035.008.065.016.035.008.068.017.031.008.054.013.049.012.047.011.035.009.067.016.035.009.068.017.031.008.055.014.045.011.051.013.033.008.067.017.035.009.066.016.035.009.053.013.043.011.052.013.034.009.067.017.034.009.067.017.035.009.047.012.052.013.049.012.036.009.063.016.041.01.054.014.048.012.038.01.062.016.04.01.039.01.062.016.042.011.044.011.056.015.041.011.058.015.043.011.039.01.063.016.039.01.048.013.052.014.042.011.051.013.049.013.037.01.065.017.035.009.059.016.041.011.048.013.048.013.052.014.036.01.064.017.038.01.051.014.049.013.04.011.057.016.044.012.038.01.063.017.038.01.047.013.05.014.045.012.052.014.047.013.039.011.064.018.038.01.045.012.053.015.044.012.041.011.059.016.038.011.056.016.045.013.043.012.054.015.044.012.045.012.057.016.035.01.063.018.039.011.043.012.055.016.04.011.054.015.047.013.04.011.053.015.048.014.042.012.056.016.042.012.05.014.051.015.038.011.062.018.038.011.042.012.056.016.042.012.04.012.061.018.039.011.05.015.05.015.044.013.053.015.045.013.038.011.063.019.036.011.05.015.05.015.044.013.048.014.047.014.042.012.06.018.039.012.043.013.057.017.04.012.053.016.046.014.04.012.061.018.04.012.041.012.058.018.038.011.059.018.04.012.042.013.059.018.041.013.039.012.059.018.039.012.057.017.041.013.043.013.058.018.042.013.032.01.069.021.031.01.064.02.035.011.047.015.029.009.069.021.035.011.066.021.032.01.062.019.038.012.046.014.031.01.068.022.032.01.065.02.035.011.061.019.038.012.044.014.041.013.059.019.033.011.063.02.039.012.047.015.051.016.042.014.051.017.046.015.04.013.06.019.037.012.041.013.057.019.045.014.037.012.06.019.037.012.057.019.042.014.038.012.061.02.038.013.045.015.054.018.039.013.058.019.039.013.042.014.057.019.042.014.041.014.057.019.036.012.06.02.039.013.041.014.056.019.043.014.036.012.062.021.033.011.065.022.033.011.045.015.023.008.078.026.024.008.072.024.032.011.066.022.034.011.044.015.038.013.06.021.035.012.06.021.037.013.056.019.041.014.044.015.031.011.068.024.029.01.07.024.028.01.066.023.035.012.043.015.029.01.071.025.027.01.071.025.027.01.068.024.033.011.043.015.033.012.069.024.026.009.071.025.03.011.065.023.034.012.044.016.032.011.066.023.031.011.065.023.032.012.042.015.057.02.042.015.033.012.065.023.035.012.064.023.031.011.057.021.043.015.042.015.031.011.068.025.03.011.064.023.033.012.069.025.029.01.045.017.025.009.076.028.023.008.068.025.034.012.043.016.055.02.042.016.032.012.067.025.029.011.064.024.034.013.042.016.056.021.043.016.028.01.072.027.027.01.068.026.03.011.044.017.055.021.042.016.029.011.069.026.029.011.069.026.027.01.047.018.021.008.076.029.026.01.074.028.023.009.075.028.025.009.046.017.029.011.068.026.027.01.072.028.026.01.068.026.03.012.045.017.026.01.074.028.022.009.075.029.026.01.069.027.029.011.045.018.026.01.073.028.023.009.074.029.026.01.056.022.04.016.047.018.021.008.078.031.02.008.08.032L175,8.9l.088.035.011,0,.048.019.015.006L175.24,9l.022.009.075.03.023.009.143.057.026.01.073.029.022.009.078.031.021.009.145.058.022.009.075.03.021.008.08.032.018.007.047.019.007,0,.091.037.02.008.075.031.025.01.079.032.018.007.048.02h0l.1.04.016.007.081.033.019.008.087.036.01,0,.147.061.018.008.083.034.014.006.085.036.015.006.049.02h0l.1.04.015.006.087.037.009,0,.15.063.011,0,.087.037.016.007.083.035.016.007.1.041h0l.049.021.014.006.082.035.02.009.08.034.017.007.092.039.006,0,.047.02.016.007.08.034.021.009.082.035.012.005.149.064.008,0,.088.038.018.008.083.036.013.006.146.064.015.007.084.036.016.007.082.036.017.007.144.063.02.009.074.032.027.012.064.028.03.013.043.019.05.022.046.02.025.011.073.032.024.01.076.034.018.008.143.064.019.009.081.036.014.006.1.043h0l.145.065.02.009.082.037.012.005.1.043h0l.146.066.016.007.081.037.016.007.094.043h0l.048.022.017.008.077.035.025.011.067.031.029.013.084.038.008,0,.049.023.006,0,.087.04.02.009.075.035.022.01.091.042h0l.047.022.017.008.078.036.021.01.078.036.017.008.145.068.006,0,.089.042.015.007.083.039.014.006.144.068.016.008.079.037.018.008.081.038.014.007.145.069.013.006.079.037.022.01.079.038.014.007.145.069.011.005.083.04.018.009.089.043,0,0,.149.072h0l.094.045.01,0,.088.043.01,0,.144.07.015.007.08.039.017.008.078.038.019.009.045.022.013.007.082.04.019.009.072.035.024.012.071.035.023.011.042.021.028.014.068.034.022.011.073.036.022.011.083.041.01,0,.047.023.01.005.085.042.015.008.082.041.012.006.142.071.014.007.08.04.02.01.077.039.016.008.143.072.008,0,.086.043.017.009.076.039.018.009.139.071.019.01.076.039.018.009.073.037.022.011.141.072.008,0,.09.046.006,0,.093.048,0,0,.145.075.008,0,.087.045.013.007.089.046,0,0,.143.074.011.006.086.044.011.006.236.123.014.008.082.043.013.007.084.044.01.005.141.074.014.007.083.044.011.006.142.075.009,0,.085.045.013.007.08.042.016.009.237.126.005,0,.09.048.008,0,.238.128.009,0,.093.05h0l.243.131h0l.239.13.014.008.079.043.014.007.087.047.005,0,.144.079,0,0,.091.05.008,0,.093.051h0l.142.078.013.007.078.043.018.01.083.046.007,0,.141.079.008,0,.085.048.01.006.234.131.012.007.08.045.014.008.077.043.017.01.044.025.01.006.083.047.014.008.079.045.013.007.091.052h0l.046.026.013.007.081.046.012.007.081.046.012.007.14.08h0l.09.051.01.006.089.051h0l.143.082h0l.089.051.013.008.083.048.007,0,.14.081.007,0,.084.049.014.008.079.046.011.006.138.081.012.007.081.047.012.007.08.047.012.007.138.081.009.005.083.049.011.006.09.053h0l.14.083.01.006.081.048.013.008.088.052h0l.138.082.012.007.081.048.01.006.228.137.015.009.079.047.01.006.23.139.008,0,.086.052.006,0,.231.14.008,0,.083.051.011.007.231.141,0,0,.091.056h0l.229.141.014.008.078.048.013.008.136.084.005,0,.085.053.011.007.087.054h0l.139.087,0,0,.085.053.011.007.083.052.008,0,.137.086.009.005.08.05.012.008.228.144h0l.086.055.011.007.087.055h0l.137.087.008,0,.081.051.013.008.085.054,0,0,.137.088.007,0,.083.054.008.005.086.056,0,0,.137.088.005,0,.086.056.006,0,.136.088.008.005.082.053.011.007.077.05.013.008.223.146.01.006.083.054.006,0,.224.147.012.008.077.051.011.007.135.089,0,0,.084.056.012.008.078.052.009.006.135.09,0,0,.086.058.006,0,.084.056.007,0,.226.152,0,0,.318.214,0,0,.226.153,0,0,.086.059,0,0,.225.154,0,0,.405.278,0,0,.316.218h0l.225.157h0l.089.062h0l.222.156.007.005.085.06h0l.45.318h0l.4.287h0l.223.16,0,0,.079.057.013.009.217.157,0,0,.086.062,0,0,.222.161h0l.312.227h0l.087.064h0l.219.161.006,0,.083.062,0,0,.219.162,0,0,.3.227.005,0,.305.229h0l.219.165,0,0,.085.064h0l.219.166h0l.084.064.006,0,.216.165h0l.082.063.008.006.3.231,0,0,.214.165.01.008.079.061,0,0,.519.4,0,0,.08.063.007.006.514.405.006.005.081.064,0,0,.212.168.006,0,.082.065h0l.128.1,0,0,.081.065,0,0,.212.17h0l.081.065.007.006.21.17h0l.081.066.007.005.295.24,0,0c.27.221.538.441.806.664h0l.081.068,0,0,.5.421,0,0,.586.5h0l.081.069,0,0q.5.429,1,.861l0,0c.221.193.441.385.661.579h0q.5.437.985.879h0a128.75,128.75,0,0,1,14.474,15.376L178.1,88.163A63.763,63.763,0,0,0,128,64V0Z" transform="matrix(0.623, -0.782, 0.782, 0.623, 1013.119, 341.192)"/><text class="h" transform="translate(1497 406.96)"><tspan x="0" y="0">MS OneNote</tspan></text><text class="i" transform="translate(1708 406.96)"><tspan x="-13.77" y="0">1</tspan></text><text class="h" transform="translate(1497 302.88)"><tspan x="0" y="0">MS Word</tspan></text><text class="i" transform="translate(1708 302.88)"><tspan x="-13.77" y="0">2</tspan></text><text class="h" transform="translate(1497 354.88)"><tspan x="0" y="0">Google Doc</tspan></text><text class="i" transform="translate(1708 354.88)"><tspan x="-13.77" y="0">1</tspan></text><text class="h" transform="translate(1497 250.88)"><tspan x="0" y="0">Apple Notes</tspan></text><text class="i" transform="translate(1708 250.88)"><tspan x="-13.77" y="0">3</tspan></text><rect class="c" width="24" height="24" rx="12" transform="translate(1441 282.88)"/><rect class="d" width="24" height="24" rx="12" transform="translate(1441 334.88)"/><rect class="e" width="24" height="24" rx="12" transform="translate(1441 230.88)"/><rect class="g" width="24" height="24" rx="12" transform="translate(1441 386.96)"/><g transform="translate(-1990 -744)"><g class="ac" transform="matrix(1, 0, 0, 1, 1990, 744)"><rect class="b" width="780" height="436" rx="64" transform="translate(148 564)"/></g><rect class="k" width="432" height="80" rx="24" transform="translate(2312 1434)"/><rect class="l" width="432" height="80" rx="24" transform="translate(2312 1523)"/><rect class="m" width="432" height="80" rx="24" transform="translate(2312 1612)"/><text class="j" transform="translate(2528 1386)"><tspan x="-233.836" y="0">Favourite Aspect of a Text Editor</tspan></text><text class="n" transform="translate(2553 1486)"><tspan x="-71.445" y="0">Simplicity</tspan></text><text class="n" transform="translate(2574 1575)"><tspan x="-92.914" y="0">Convenience</tspan></text><text class="n" transform="translate(2574 1664)"><tspan x="-91.969" y="0">Accessibility</tspan></text><text class="o" transform="translate(2403 1491)"><tspan x="-13.594" y="0">1</tspan></text><text class="o" transform="translate(2403 1580)"><tspan x="-13.594" y="0">2</tspan></text><text class="o" transform="translate(2403 1669)"><tspan x="-13.594" y="0">3</tspan></text></g><g transform="translate(-1990 -744)"><g class="ab" transform="matrix(1, 0, 0, 1, 1990, 744)"><rect class="b" width="780" height="436" rx="64" transform="translate(992 564)"/></g><text class="j" transform="translate(3372 1386)"><tspan x="-253.211" y="0">What helps you focus when typing?</tspan></text><rect class="p" width="652" height="16" rx="8" transform="translate(3046 1496)"/><rect class="p" width="652" height="16" rx="8" transform="translate(3046 1580)"/><rect class="p" width="652" height="16" rx="8" transform="translate(3046 1664)"/><rect class="q" width="582" height="16" rx="8" transform="translate(3046 1496)"/><rect class="q" width="334" height="16" rx="8" transform="translate(3046 1580)"/><rect class="q" width="16" height="16" rx="8" transform="translate(3046 1664)"/><text class="r" transform="translate(3046 1482)"><tspan x="0" y="0">Minimal, clean UI</tspan></text><text class="r" transform="translate(3046 1566)"><tspan x="0" y="0">Simple controls</tspan></text><text class="r" transform="translate(3046 1650)"><tspan x="0" y="0">Complex / fancy features</tspan></text></g><g transform="translate(-844 992)"><g class="aa" transform="matrix(1, 0, 0, 1, 844, -992)"><rect class="b" width="780" height="436" rx="64" transform="translate(148 1064)"/></g><text class="j" transform="translate(1382 148)"><tspan x="-156.047" y="0">Should typing be fun?</tspan></text><text class="s" transform="translate(1056 290)"><tspan x="0" y="0">YES</tspan></text><text class="s" transform="translate(1708 290)"><tspan x="-44.563" y="0">NO</tspan></text><path class="t" d="M32,0H326a0,0,0,0,1,0,0V128a0,0,0,0,1,0,0H32A32,32,0,0,1,0,96V32A32,32,0,0,1,32,0Z" transform="translate(1056 314)"/><path class="u" d="M0,0H294a32,32,0,0,1,32,32V96a32,32,0,0,1-32,32H0a0,0,0,0,1,0,0V0A0,0,0,0,1,0,0Z" transform="translate(1382 314)"/><text class="v" transform="translate(1088 395)"><tspan x="0" y="0">50%</tspan></text><text class="v" transform="translate(1676 395)"><tspan x="-89.156" y="0">50%</tspan></text></g><g class="z" transform="matrix(1, 0, 0, 1, 0, 0)"><rect class="b" width="780" height="436" rx="64" transform="translate(992 1064)"/></g><text class="j" transform="translate(1382 1140)"><tspan x="-211.563" y="0">Application Impression Score</tspan></text><rect class="w" width="318" height="180" rx="24" transform="translate(1056 1256)"/><rect class="t" width="318" height="180" rx="24" transform="translate(1390 1256)"/><text class="x" transform="translate(1215 1312)"><tspan x="-81.398" y="0">Textreme 2</tspan></text><text class="x" transform="translate(1549 1312)"><tspan x="-52.125" y="0">uFocus</tspan></text><text class="y" transform="translate(1549 1395)"><tspan x="-79.344" y="0">100%</tspan></text><text class="y" transform="translate(1215 1395)"><tspan x="-60.813" y="0">75%</tspan></text></g></svg>