<svg xmlns="http://www.w3.org/2000/svg" xmlns:xlink="http://www.w3.org/1999/xlink" width="1920" height="540" viewBox="0 0 1920 540"><defs><clipPath id="b"><rect width="1920" height="540"/></clipPath></defs><g id="a" clip-path="url(#b)"><rect width="1920" height="540" fill="#eee"/><rect width="344" height="80" transform="translate(347 202)" fill="#ff8177" opacity="0.5"/><path d="M32.6-42.219a3.8,3.8,0,0,1,1.909,1.273,2.562,2.562,0,0,1,.566,1.768,2.729,2.729,0,0,1-.778,1.733,3.906,3.906,0,0,1-2.122,1.025l-11.032.071.071,34.51A3.366,3.366,0,0,1,20.261.6a2.813,2.813,0,0,1-1.945.813A2.741,2.741,0,0,1,16.477.672a3.574,3.574,0,0,1-1.061-2.3l-.071-34.723H4.172a3.7,3.7,0,0,1-2.228-1.167,2.569,2.569,0,0,1-.672-1.874A2.994,2.994,0,0,1,2.157-41.3a3.23,3.23,0,0,1,2.44-.849H24.61q2.829,0,4.986-.035T32.6-42.219ZM55.8-8.274a3.462,3.462,0,0,1,2.546-.141,2.771,2.771,0,0,1,1.52,1.344A2.768,2.768,0,0,1,60-5.021a3.293,3.293,0,0,1-1.662,1.909A45.227,45.227,0,0,1,53.322-.636,23.013,23.013,0,0,1,47.876.919,16.874,16.874,0,0,1,42.431.884a12.935,12.935,0,0,1-5.162-2.157,13,13,0,0,1-4.526-5.551,18.62,18.62,0,0,1-1.627-7.284A17.962,17.962,0,0,1,32.5-21.392a12.406,12.406,0,0,1,4.561-5.622A24.829,24.829,0,0,1,44.128-30.3a15.525,15.525,0,0,1,7.708-.248,7.678,7.678,0,0,1,3.465,1.8,11.272,11.272,0,0,1,2.51,3.182,8.716,8.716,0,0,1,1.025,3.819,6.752,6.752,0,0,1-.99,3.783A10.088,10.088,0,0,1,54.382-14.6a26.968,26.968,0,0,1-4.915,2.334,50.333,50.333,0,0,1-5.3,1.591q-2.652.636-4.632,1.2a3.826,3.826,0,0,1-1.627.071,9.218,9.218,0,0,0,3.147,3.713,7.906,7.906,0,0,0,5.2,1.238,12.9,12.9,0,0,0,4.986-1.379Q53.746-7.072,55.8-8.274ZM42.007-23.337a8.759,8.759,0,0,0-3.89,3.783,10.936,10.936,0,0,0-1.273,5.127,4.591,4.591,0,0,1,1.061-.566q1.273-.354,2.581-.743t2.652-.743q.849-.212,2.3-.636t3.006-.99a17.415,17.415,0,0,0,2.829-1.308,3.97,3.97,0,0,0,1.7-1.662q.141-2.334-1.131-3.182A5.354,5.354,0,0,0,48.8-25.1a12.229,12.229,0,0,0-3.677.6A25.422,25.422,0,0,0,42.007-23.337Zm45.33-7.779a3.409,3.409,0,0,1,2.369-.919,2.785,2.785,0,0,1,1.874.778,2.785,2.785,0,0,1,.778,1.874,3.409,3.409,0,0,1-.919,2.369q-2.617,2.546-5.127,5.162t-4.915,5.3q2.97,3.394,5.622,6.966T92-2.192A3.453,3.453,0,0,1,92.04.141a2.8,2.8,0,0,1-1.167,1.45,2.716,2.716,0,0,1-1.8.318A3.6,3.6,0,0,1,87.054.778Q85-2.617,82.6-5.834t-5.021-6.259A143.08,143.08,0,0,0,68.667.141,3.353,3.353,0,0,1,66.51,1.485a2.785,2.785,0,0,1-2.015-.46A2.772,2.772,0,0,1,63.4-.743a3.359,3.359,0,0,1,.6-2.51q2.192-3.465,4.632-6.789t5.056-6.506q-2.263-2.475-4.632-4.915l-4.773-4.915a3.443,3.443,0,0,1-1.167-2.3,2.612,2.612,0,0,1,.636-1.909,2.99,2.99,0,0,1,1.839-.919,3.3,3.3,0,0,1,2.44.743q2.4,2.475,4.809,4.915t4.667,4.915q2.334-2.617,4.809-5.162T87.337-31.116Zm16.194,6.223a3.574,3.574,0,0,1-2.3-1.061,2.741,2.741,0,0,1-.743-1.839,2.992,2.992,0,0,1,.813-1.945,3.027,3.027,0,0,1,2.44-.955h3.96V-41.865a4.145,4.145,0,0,1,1.131-2.122,2.556,2.556,0,0,1,1.768-.707,2.763,2.763,0,0,1,1.733.636,3.57,3.57,0,0,1,1.167,1.98v11.386h6.789a3.57,3.57,0,0,1,1.98,1.167,2.763,2.763,0,0,1,.636,1.733,2.556,2.556,0,0,1-.707,1.768,4.145,4.145,0,0,1-2.122,1.131H113.5q-.071,5.445,0,11.209t.071,11.209a3.027,3.027,0,0,1-.955,2.44,2.992,2.992,0,0,1-1.945.813,2.741,2.741,0,0,1-1.839-.743,3.574,3.574,0,0,1-1.061-2.3q0-5.516-.035-11.315T107.7-24.893ZM151.2-5.162a3.534,3.534,0,0,1-.424-2.3,2.9,2.9,0,0,1,.884-1.627,2.5,2.5,0,0,1,1.733-.6,3.884,3.884,0,0,1,2.192.778,11.577,11.577,0,0,0,3.854,3.182,12.782,12.782,0,0,0,4.773,1.344l1.485-.424q.566-.424.778-.566a2.152,2.152,0,0,0,.318-.248q.106-.106.283-.318t.6-.778a2.765,2.765,0,0,0,.212-.566,5.017,5.017,0,0,1,.212-.636,5.169,5.169,0,0,1,.035-.636,5.169,5.169,0,0,0,.035-.636l-.424-1.273q-.212-.283-.46-.566t-.46-.566a13.156,13.156,0,0,0-3.536-1.627q-1.768-.5-3.43-1.025a19.509,19.509,0,0,1-3.253-1.379,9.3,9.3,0,0,1-3.006-2.758,6.677,6.677,0,0,1-1.45-3.925,10.164,10.164,0,0,1,.707-4.278,10.664,10.664,0,0,1,2.4-3.642,7.12,7.12,0,0,1,3.642-2.015,14.5,14.5,0,0,1,6.046-.141,20.1,20.1,0,0,1,5.764,1.98,3.36,3.36,0,0,1,1.485,2.086,2.75,2.75,0,0,1-.318,2.015,2.873,2.873,0,0,1-1.627,1.2,3.3,3.3,0,0,1-2.51-.354,10.846,10.846,0,0,0-3.571-1.2,12.721,12.721,0,0,0-3.783,0,1.631,1.631,0,0,1-.46.212,1.631,1.631,0,0,0-.46.212,6.124,6.124,0,0,0-1.132,1.662,4.4,4.4,0,0,0-.283,2.015,4.7,4.7,0,0,0,.354.849,4.616,4.616,0,0,0,.424.5,4.616,4.616,0,0,1,.424.5,16.669,16.669,0,0,0,3.713,1.45q2.015.53,3.925,1.2a15.5,15.5,0,0,1,3.536,1.768,7.2,7.2,0,0,1,2.546,3.218,10.178,10.178,0,0,1,.53,7.425A11.259,11.259,0,0,1,168.8.071a10.267,10.267,0,0,1-2.051.955,6.544,6.544,0,0,1-2.122.389,17.419,17.419,0,0,1-7.5-1.733A15.211,15.211,0,0,1,151.2-5.162Zm53.251-3.112a3.462,3.462,0,0,1,2.546-.141,2.771,2.771,0,0,1,1.52,1.344,2.768,2.768,0,0,1,.141,2.051,3.293,3.293,0,0,1-1.662,1.909,45.227,45.227,0,0,1-5.021,2.475A23.013,23.013,0,0,1,196.526.919a16.874,16.874,0,0,1-5.445-.035,12.935,12.935,0,0,1-5.162-2.157,13,13,0,0,1-4.526-5.551,18.62,18.62,0,0,1-1.627-7.284,17.962,17.962,0,0,1,1.379-7.284,12.406,12.406,0,0,1,4.561-5.622,24.829,24.829,0,0,1,7.072-3.288,15.525,15.525,0,0,1,7.708-.248,7.678,7.678,0,0,1,3.465,1.8,11.272,11.272,0,0,1,2.51,3.182,8.716,8.716,0,0,1,1.025,3.819,6.752,6.752,0,0,1-.99,3.783,10.088,10.088,0,0,1-3.465,3.359,26.967,26.967,0,0,1-4.915,2.334,50.333,50.333,0,0,1-5.3,1.591q-2.652.636-4.632,1.2a3.826,3.826,0,0,1-1.627.071A9.218,9.218,0,0,0,189.7-5.693a7.906,7.906,0,0,0,5.2,1.238,12.9,12.9,0,0,0,4.986-1.379Q202.4-7.072,204.446-8.274Zm-13.79-15.063a8.759,8.759,0,0,0-3.89,3.783,10.936,10.936,0,0,0-1.273,5.127,4.591,4.591,0,0,1,1.061-.566q1.273-.354,2.581-.743t2.652-.743q.849-.212,2.3-.636t3.006-.99a17.414,17.414,0,0,0,2.829-1.308,3.97,3.97,0,0,0,1.7-1.662q.141-2.334-1.131-3.182a5.354,5.354,0,0,0-3.041-.849,12.23,12.23,0,0,0-3.677.6A25.421,25.421,0,0,0,190.656-23.337ZM222.267-3.394a3.36,3.36,0,0,1,1.485,2.086,2.75,2.75,0,0,1-.318,2.015,2.873,2.873,0,0,1-1.627,1.2,3.3,3.3,0,0,1-2.51-.354L218.024.707q-.636-.424-1.344-.849a3.206,3.206,0,0,1-.849-1.061,6.1,6.1,0,0,1-.354-1.414V-41.865a3.6,3.6,0,0,1,1.1-2.051,2.738,2.738,0,0,1,1.7-.743,2.676,2.676,0,0,1,1.733.6,3.818,3.818,0,0,1,1.273,1.98V-4.031q.212.141.46.318A3.949,3.949,0,0,0,222.267-3.394Zm31.54-4.88a3.462,3.462,0,0,1,2.546-.141,2.771,2.771,0,0,1,1.52,1.344,2.767,2.767,0,0,1,.141,2.051,3.293,3.293,0,0,1-1.662,1.909,45.227,45.227,0,0,1-5.021,2.475A23.013,23.013,0,0,1,245.887.919a16.874,16.874,0,0,1-5.445-.035,12.935,12.935,0,0,1-5.162-2.157,13,13,0,0,1-4.526-5.551,18.62,18.62,0,0,1-1.627-7.284,17.962,17.962,0,0,1,1.379-7.284,12.406,12.406,0,0,1,4.561-5.622,24.829,24.829,0,0,1,7.072-3.288,15.525,15.525,0,0,1,7.708-.248,7.678,7.678,0,0,1,3.465,1.8,11.272,11.272,0,0,1,2.51,3.182,8.716,8.716,0,0,1,1.025,3.819,6.752,6.752,0,0,1-.99,3.783,10.088,10.088,0,0,1-3.465,3.359,26.967,26.967,0,0,1-4.915,2.334,50.333,50.333,0,0,1-5.3,1.591q-2.652.636-4.632,1.2a3.826,3.826,0,0,1-1.627.071,9.218,9.218,0,0,0,3.147,3.713,7.906,7.906,0,0,0,5.2,1.238,12.9,12.9,0,0,0,4.986-1.379Q251.757-7.072,253.808-8.274Zm-13.79-15.063a8.759,8.759,0,0,0-3.89,3.783,10.936,10.936,0,0,0-1.273,5.127,4.591,4.591,0,0,1,1.061-.566q1.273-.354,2.581-.743t2.652-.743q.849-.212,2.3-.636t3.006-.99a17.414,17.414,0,0,0,2.829-1.308,3.97,3.97,0,0,0,1.7-1.662q.141-2.334-1.131-3.182a5.354,5.354,0,0,0-3.041-.849,12.23,12.23,0,0,0-3.677.6A25.421,25.421,0,0,0,240.018-23.337Zm43.067,15.7a3.409,3.409,0,0,1,2.369-.919,2.785,2.785,0,0,1,1.874.778,2.785,2.785,0,0,1,.778,1.874,3.409,3.409,0,0,1-.919,2.369A12.963,12.963,0,0,1,281.706.071a13.157,13.157,0,0,1-6.223.6,12.345,12.345,0,0,1-5.693-2.44A11.707,11.707,0,0,1,265.9-7.143a18.868,18.868,0,0,1-1.132-4.031,17.838,17.838,0,0,1-.212-4.172,21.89,21.89,0,0,1,1.591-6.824,19.173,19.173,0,0,1,3.748-5.976,14.105,14.105,0,0,1,5.587-3.713,10.74,10.74,0,0,1,7.036.035,17.943,17.943,0,0,1,3.465,1.556,15.017,15.017,0,0,1,2.97,2.334,3.884,3.884,0,0,1,.778,2.192,2.5,2.5,0,0,1-.6,1.733,2.9,2.9,0,0,1-1.627.884,3.534,3.534,0,0,1-2.3-.424,9.4,9.4,0,0,0-4.526-2.793,6.424,6.424,0,0,0-4.066.389,8.811,8.811,0,0,0-3.324,2.723,14.02,14.02,0,0,0-2.228,4.243,15.766,15.766,0,0,0-.778,4.95,11.462,11.462,0,0,0,.99,4.773,7.14,7.14,0,0,0,2.3,3.041,6.311,6.311,0,0,0,3.076,1.238,7.09,7.09,0,0,0,3.359-.5A8.045,8.045,0,0,0,283.085-7.638Zm15.134-17.255a3.574,3.574,0,0,1-2.3-1.061,2.741,2.741,0,0,1-.743-1.839,2.992,2.992,0,0,1,.813-1.945,3.027,3.027,0,0,1,2.44-.955h3.96V-41.865a4.145,4.145,0,0,1,1.131-2.122,2.557,2.557,0,0,1,1.768-.707,2.763,2.763,0,0,1,1.733.636,3.57,3.57,0,0,1,1.167,1.98v11.386h6.789a3.57,3.57,0,0,1,1.98,1.167,2.763,2.763,0,0,1,.636,1.733,2.556,2.556,0,0,1-.707,1.768,4.146,4.146,0,0,1-2.122,1.131H308.19q-.071,5.445,0,11.209t.071,11.209a3.027,3.027,0,0,1-.955,2.44,2.992,2.992,0,0,1-1.945.813,2.741,2.741,0,0,1-1.839-.743,3.574,3.574,0,0,1-1.061-2.3q0-5.516-.035-11.315t-.035-11.315Zm32.035,22.63A3.366,3.366,0,0,1,329.3.177a2.814,2.814,0,0,1-1.945.813,2.741,2.741,0,0,1-1.839-.743,3.574,3.574,0,0,1-1.061-2.3q-.071-6.648-.106-13.578t-.106-13.578a4.146,4.146,0,0,1,1.132-2.122,2.556,2.556,0,0,1,1.768-.707,2.763,2.763,0,0,1,1.733.636,3.57,3.57,0,0,1,1.167,1.98q.071,6.648.106,13.578T330.254-2.263Zm-6.506-38.471a3.817,3.817,0,0,1,.99-2.652,3.122,3.122,0,0,1,2.4-1.1,3.23,3.23,0,0,1,2.44,1.1,3.742,3.742,0,0,1,1.025,2.652,3.654,3.654,0,0,1-1.025,2.581,3.23,3.23,0,0,1-2.44,1.1,3.122,3.122,0,0,1-2.4-1.1A3.726,3.726,0,0,1,323.748-40.734Zm14.709,23.408a31.654,31.654,0,0,1,1.909-4.42,19.922,19.922,0,0,1,2.687-3.925,16.383,16.383,0,0,1,3.571-3.041,14.308,14.308,0,0,1,4.491-1.839,10.448,10.448,0,0,1,7.178.636,12.274,12.274,0,0,1,4.915,4.455,17.387,17.387,0,0,1,2.44,6.612,16.693,16.693,0,0,1-.318,7.107,22,22,0,0,1-3.748,7.779,15.411,15.411,0,0,1-6.789,5.233,12.039,12.039,0,0,1-5.834.884,11.2,11.2,0,0,1-5.021-1.8,13.25,13.25,0,0,1-3.783-3.89,14.941,14.941,0,0,1-2.122-5.445,15.593,15.593,0,0,1-.247-3.748,27.985,27.985,0,0,1,.46-3.677Zm5.516,1.627a26.966,26.966,0,0,0-.389,2.723,12.765,12.765,0,0,0,.106,2.793,7.761,7.761,0,0,0,1.2,3.43,7.086,7.086,0,0,0,2.4,2.334,5.948,5.948,0,0,0,3.147.778,7.057,7.057,0,0,0,3.5-1.1,10.869,10.869,0,0,0,3.713-3.677,18.7,18.7,0,0,0,2.086-4.88,11.543,11.543,0,0,0,.247-4.526,10.664,10.664,0,0,0-1.45-4.243,6.5,6.5,0,0,0-3.041-2.652,5.794,5.794,0,0,0-4.526.248,9.925,9.925,0,0,0-4.455,3.607A21.052,21.052,0,0,0,343.973-15.7ZM397.719-2.122a3.366,3.366,0,0,1-.955,2.44,2.814,2.814,0,0,1-1.945.813,2.741,2.741,0,0,1-1.839-.743,3.574,3.574,0,0,1-1.061-2.3q0-3.253-.035-6.471t-.035-6.471q0-2.334.035-4.667a28.244,28.244,0,0,0-.318-4.667,2.58,2.58,0,0,0-1.238-1.308,4.6,4.6,0,0,0-1.591-.248A10.493,10.493,0,0,0,384-24.575a9.225,9.225,0,0,0-3.677,3.218q-.778,1.2-1.238,2.015a6.041,6.041,0,0,0-.6,2.369v7.213q0,3.607.071,7.213a3.366,3.366,0,0,1-.955,2.44,2.814,2.814,0,0,1-1.945.813,2.741,2.741,0,0,1-1.839-.743,3.574,3.574,0,0,1-1.061-2.3V-8.91q0-3.182-.035-6.294t-.035-6.329v-6.612a4.145,4.145,0,0,1,1.131-2.122,2.557,2.557,0,0,1,1.768-.707,2.763,2.763,0,0,1,1.733.636,3.571,3.571,0,0,1,1.167,1.98v.566a16.193,16.193,0,0,1,4.632-2.793,13.979,13.979,0,0,1,5.2-1.025,10.45,10.45,0,0,1,4.915,1.2,8.876,8.876,0,0,1,3.713,3.89,6.618,6.618,0,0,1,.672,2.3,27.927,27.927,0,0,1,.212,2.9q.035,1.52-.035,3.112t-.071,3.006V-2.122Z" transform="translate(357 264)"/><path d="M51.341-2.122a3.366,3.366,0,0,1-.955,2.44,2.813,2.813,0,0,1-1.945.813A2.872,2.872,0,0,1,46.568.389a3.241,3.241,0,0,1-1.025-2.3q-.354-3.394-.884-7.178t-1.2-7.638q-.672-3.854-1.485-7.6t-1.733-7Q38.9-28.075,37.551-24.5t-2.723,7.213q-1.379,3.642-2.723,7.249t-2.758,6.86a3.235,3.235,0,0,1-2.475,1.344A3.69,3.69,0,0,1,24.539-2.97l-14-27.368q-.354,3.394-.707,7.143t-.672,7.567Q8.84-11.81,8.486-8.062T7.779-.919A4,4,0,0,1,6.506.849a2.726,2.726,0,0,1-1.627.566A2.675,2.675,0,0,1,3.041.636a3.375,3.375,0,0,1-.99-2.263q.424-4.526.884-9.37t.919-9.759q.46-4.915.919-9.794t.884-9.406a3.553,3.553,0,0,1,1.1-1.98,2.684,2.684,0,0,1,1.8-.707,3.1,3.1,0,0,1,2.617,1.556q1.909,3.465,3.819,7.249T18.811-26.2q1.909,3.854,3.854,7.638t3.854,7.249q1.414-3.465,2.864-7.249t2.9-7.638q1.45-3.854,2.9-7.673t2.935-7.284A3.9,3.9,0,0,1,39.39-42.5a2.843,2.843,0,0,1,1.485-.424,2.677,2.677,0,0,1,1.662.636A3.507,3.507,0,0,1,43.7-40.451q1.273,4.455,2.44,9.264t2.192,9.724q1.025,4.915,1.8,9.83T51.341-2.122Zm6.223-15.2a31.656,31.656,0,0,1,1.909-4.42,19.923,19.923,0,0,1,2.687-3.925,16.383,16.383,0,0,1,3.571-3.041,14.308,14.308,0,0,1,4.491-1.839,10.448,10.448,0,0,1,7.178.636,12.274,12.274,0,0,1,4.915,4.455,17.388,17.388,0,0,1,2.44,6.612,16.693,16.693,0,0,1-.318,7.107A22,22,0,0,1,80.689-3.96,15.411,15.411,0,0,1,73.9,1.273a12.039,12.039,0,0,1-5.834.884,11.2,11.2,0,0,1-5.021-1.8,13.25,13.25,0,0,1-3.783-3.89A14.941,14.941,0,0,1,57.14-8.981a15.592,15.592,0,0,1-.248-3.748,27.99,27.99,0,0,1,.46-3.677ZM63.081-15.7a26.965,26.965,0,0,0-.389,2.723,12.765,12.765,0,0,0,.106,2.793A7.761,7.761,0,0,0,64-6.754,7.086,7.086,0,0,0,66.4-4.42a5.948,5.948,0,0,0,3.147.778,7.057,7.057,0,0,0,3.5-1.1,10.869,10.869,0,0,0,3.713-3.677,18.7,18.7,0,0,0,2.086-4.88,11.543,11.543,0,0,0,.248-4.526,10.664,10.664,0,0,0-1.45-4.243,6.5,6.5,0,0,0-3.041-2.652,5.794,5.794,0,0,0-4.526.248,9.925,9.925,0,0,0-4.455,3.607A21.051,21.051,0,0,0,63.081-15.7Zm47.028-13.931a3.561,3.561,0,0,1,1.662-1.591,2.779,2.779,0,0,1,1.839-.141,2.652,2.652,0,0,1,1.485,1.131,3.531,3.531,0,0,1,.53,2.228q-.99,3.819-2.3,7.461t-2.581,7.319q-1.2,3.394-2.369,6.683T105.794,0a3.053,3.053,0,0,1-2.829,1.344,3.132,3.132,0,0,1-2.4-1.98q-2.546-6.718-5.2-13.3t-5.9-12.941a3.3,3.3,0,0,1-.354-2.51,2.873,2.873,0,0,1,1.2-1.627,2.75,2.75,0,0,1,2.015-.318,3.36,3.36,0,0,1,2.086,1.485q2.475,4.95,4.667,10.042t4.243,10.325q.5-1.344.955-2.687t.955-2.687q1.273-3.677,2.546-7.319T110.108-29.631ZM144.972-8.274a3.462,3.462,0,0,1,2.546-.141,2.771,2.771,0,0,1,1.52,1.344,2.768,2.768,0,0,1,.141,2.051,3.293,3.293,0,0,1-1.662,1.909A45.228,45.228,0,0,1,142.5-.636,23.013,23.013,0,0,1,137.052.919a16.874,16.874,0,0,1-5.445-.035,12.935,12.935,0,0,1-5.162-2.157,13,13,0,0,1-4.526-5.551,18.62,18.62,0,0,1-1.627-7.284,17.962,17.962,0,0,1,1.379-7.284,12.406,12.406,0,0,1,4.561-5.622A24.829,24.829,0,0,1,133.3-30.3a15.525,15.525,0,0,1,7.708-.248,7.678,7.678,0,0,1,3.465,1.8,11.272,11.272,0,0,1,2.51,3.182,8.716,8.716,0,0,1,1.025,3.819,6.752,6.752,0,0,1-.99,3.783,10.088,10.088,0,0,1-3.465,3.359,26.967,26.967,0,0,1-4.915,2.334,50.333,50.333,0,0,1-5.3,1.591q-2.652.636-4.632,1.2a3.826,3.826,0,0,1-1.627.071,9.218,9.218,0,0,0,3.147,3.713,7.906,7.906,0,0,0,5.2,1.238,12.9,12.9,0,0,0,4.986-1.379Q142.922-7.072,144.972-8.274Zm-13.79-15.063a8.759,8.759,0,0,0-3.889,3.783,10.936,10.936,0,0,0-1.273,5.127,4.592,4.592,0,0,1,1.061-.566q1.273-.354,2.581-.743t2.652-.743q.849-.212,2.3-.636t3.006-.99a17.415,17.415,0,0,0,2.829-1.308,3.97,3.97,0,0,0,1.7-1.662q.141-2.334-1.132-3.182a5.354,5.354,0,0,0-3.041-.849,12.23,12.23,0,0,0-3.677.6A25.421,25.421,0,0,0,131.182-23.337Zm66.475,15.7a3.409,3.409,0,0,1,2.369-.919,2.785,2.785,0,0,1,1.874.778,2.785,2.785,0,0,1,.778,1.874,3.409,3.409,0,0,1-.919,2.369A12.963,12.963,0,0,1,196.278.071a13.157,13.157,0,0,1-6.223.6,12.345,12.345,0,0,1-5.693-2.44,11.708,11.708,0,0,1-3.889-5.375,18.87,18.87,0,0,1-1.131-4.031,17.84,17.84,0,0,1-.212-4.172,21.89,21.89,0,0,1,1.591-6.824,19.173,19.173,0,0,1,3.748-5.976,14.1,14.1,0,0,1,5.587-3.713,10.74,10.74,0,0,1,7.036.035,17.943,17.943,0,0,1,3.465,1.556,15.017,15.017,0,0,1,2.97,2.334,3.884,3.884,0,0,1,.778,2.192,2.5,2.5,0,0,1-.6,1.733,2.9,2.9,0,0,1-1.627.884,3.534,3.534,0,0,1-2.3-.424,9.4,9.4,0,0,0-4.526-2.793,6.424,6.424,0,0,0-4.066.389,8.811,8.811,0,0,0-3.324,2.723,14.021,14.021,0,0,0-2.228,4.243,15.765,15.765,0,0,0-.778,4.95,11.462,11.462,0,0,0,.99,4.773,7.14,7.14,0,0,0,2.3,3.041,6.311,6.311,0,0,0,3.076,1.238,7.09,7.09,0,0,0,3.359-.5A8.046,8.046,0,0,0,197.657-7.638ZM238.533-4.88a3.465,3.465,0,0,1,.778,2.192,2.566,2.566,0,0,1-.778,1.945A2.661,2.661,0,0,1,236.623,0a3.333,3.333,0,0,1-2.687-1.45,14.484,14.484,0,0,1-1.909-3.288,17.378,17.378,0,0,1-4.314,3.359A10.337,10.337,0,0,1,222.621,0a10.267,10.267,0,0,1-3.677-.672,12.906,12.906,0,0,1-3.288-1.839,14.006,14.006,0,0,1-2.687-2.723,11.445,11.445,0,0,1-1.733-3.253,20.409,20.409,0,0,1-.778-4.066q-.212-2.228-.212-4.632,0-2.9.141-5.657t.141-4.88a4.145,4.145,0,0,1,1.131-2.122,2.556,2.556,0,0,1,1.768-.707,2.763,2.763,0,0,1,1.733.636,3.57,3.57,0,0,1,1.167,1.98q0,3.324-.106,6.4t-.106,6.541a11.5,11.5,0,0,0,1.7,6.506,5.264,5.264,0,0,0,4.6,2.546,5.675,5.675,0,0,0,2.122-.424A8.275,8.275,0,0,0,226.51-7.5a11.037,11.037,0,0,0,1.7-1.627q.778-.919,1.414-1.839a1.346,1.346,0,0,1,.354-.248,1.346,1.346,0,0,0,.354-.248A59.893,59.893,0,0,1,229.9-18.6q0-2.051.035-4.137a23.4,23.4,0,0,1,.354-3.819,7.389,7.389,0,0,1,1.061-2.829,2.378,2.378,0,0,1,2.086-1.1,2.692,2.692,0,0,1,1.909.813A3.13,3.13,0,0,1,236.2-27.3a38.5,38.5,0,0,1-.248,3.96,46.286,46.286,0,0,0-.248,4.88q0,1.98.141,3.96a36.906,36.906,0,0,0,.46,3.783,20.244,20.244,0,0,0,.849,3.288A8.745,8.745,0,0,0,238.533-4.88Zm8.415-19.73a4.031,4.031,0,0,1-1.556-1.344,2.879,2.879,0,0,1-.5-1.556,2.632,2.632,0,0,1,.778-1.874A2.8,2.8,0,0,1,247.8-30.2a6.058,6.058,0,0,1,2.475.707,8.362,8.362,0,0,1,2.334,1.556,24.548,24.548,0,0,1,4.526-3.041,10.245,10.245,0,0,1,4.738-1.2,8.8,8.8,0,0,1,2.051.354,11.986,11.986,0,0,1,2.652,1.061,8.238,8.238,0,0,1,2.3,1.839,3.854,3.854,0,0,1,.99,2.617,2.566,2.566,0,0,1-.778,1.945,2.661,2.661,0,0,1-1.909.743,2.209,2.209,0,0,1-1.379-.46q-.6-.46-1.2-.99a9.96,9.96,0,0,0-1.273-.955,2.787,2.787,0,0,0-1.52-.424,4.757,4.757,0,0,0-2.157.6,17.964,17.964,0,0,0-2.334,1.45,23.638,23.638,0,0,0-2.228,1.839q-1.061.99-1.839,1.768V-1.98a3.366,3.366,0,0,1-.955,2.44,2.813,2.813,0,0,1-1.945.813A2.741,2.741,0,0,1,248.5.53a3.574,3.574,0,0,1-1.061-2.3V-21.074a1.639,1.639,0,0,0-.035-.318,1.639,1.639,0,0,1-.035-.318,1.639,1.639,0,0,1,.035-.318,1.639,1.639,0,0,0,.035-.318V-24.4A3.881,3.881,0,0,0,246.948-24.61ZM272.831-5.162a3.534,3.534,0,0,1-.424-2.3,2.9,2.9,0,0,1,.884-1.627,2.5,2.5,0,0,1,1.733-.6,3.884,3.884,0,0,1,2.192.778,11.577,11.577,0,0,0,3.854,3.182,12.782,12.782,0,0,0,4.773,1.344l1.485-.424q.566-.424.778-.566a2.151,2.151,0,0,0,.318-.248q.106-.106.283-.318t.6-.778a2.765,2.765,0,0,0,.212-.566,5.019,5.019,0,0,1,.212-.636,5.166,5.166,0,0,1,.035-.636,5.166,5.166,0,0,0,.035-.636l-.424-1.273q-.212-.283-.46-.566t-.46-.566a13.156,13.156,0,0,0-3.536-1.627q-1.768-.5-3.43-1.025a19.508,19.508,0,0,1-3.253-1.379,9.3,9.3,0,0,1-3.006-2.758,6.677,6.677,0,0,1-1.45-3.925,10.164,10.164,0,0,1,.707-4.278,10.665,10.665,0,0,1,2.4-3.642,7.119,7.119,0,0,1,3.642-2.015,14.5,14.5,0,0,1,6.046-.141,20.1,20.1,0,0,1,5.764,1.98,3.36,3.36,0,0,1,1.485,2.086,2.75,2.75,0,0,1-.318,2.015,2.873,2.873,0,0,1-1.627,1.2,3.3,3.3,0,0,1-2.51-.354,10.846,10.846,0,0,0-3.571-1.2,12.721,12.721,0,0,0-3.783,0,1.632,1.632,0,0,1-.46.212,1.632,1.632,0,0,0-.46.212,6.124,6.124,0,0,0-1.131,1.662,4.4,4.4,0,0,0-.283,2.015,4.7,4.7,0,0,0,.354.849,4.616,4.616,0,0,0,.424.5,4.613,4.613,0,0,1,.424.5,16.669,16.669,0,0,0,3.713,1.45q2.015.53,3.925,1.2a15.505,15.505,0,0,1,3.536,1.768,7.2,7.2,0,0,1,2.546,3.218,10.178,10.178,0,0,1,.53,7.425,11.258,11.258,0,0,1-4.7,5.728,10.266,10.266,0,0,1-2.051.955,6.544,6.544,0,0,1-2.122.389,17.419,17.419,0,0,1-7.5-1.733A15.211,15.211,0,0,1,272.831-5.162Zm28.287-12.164a31.654,31.654,0,0,1,1.909-4.42,19.922,19.922,0,0,1,2.687-3.925,16.383,16.383,0,0,1,3.571-3.041,14.308,14.308,0,0,1,4.491-1.839,10.448,10.448,0,0,1,7.178.636,12.274,12.274,0,0,1,4.915,4.455,17.387,17.387,0,0,1,2.44,6.612,16.693,16.693,0,0,1-.318,7.107,22,22,0,0,1-3.748,7.779,15.411,15.411,0,0,1-6.789,5.233,12.039,12.039,0,0,1-5.834.884A11.2,11.2,0,0,1,306.6.354a13.25,13.25,0,0,1-3.783-3.89,14.941,14.941,0,0,1-2.122-5.445,15.593,15.593,0,0,1-.247-3.748,27.985,27.985,0,0,1,.46-3.677Zm5.516,1.627a26.966,26.966,0,0,0-.389,2.723,12.765,12.765,0,0,0,.106,2.793,7.761,7.761,0,0,0,1.2,3.43,7.086,7.086,0,0,0,2.4,2.334,5.948,5.948,0,0,0,3.147.778,7.057,7.057,0,0,0,3.5-1.1,10.869,10.869,0,0,0,3.713-3.677A18.7,18.7,0,0,0,322.4-13.3a11.543,11.543,0,0,0,.247-4.526,10.664,10.664,0,0,0-1.45-4.243,6.5,6.5,0,0,0-3.041-2.652,5.794,5.794,0,0,0-4.526.248,9.925,9.925,0,0,0-4.455,3.607A21.052,21.052,0,0,0,306.634-15.7Zm29.136-8.91a4.031,4.031,0,0,1-1.556-1.344,2.879,2.879,0,0,1-.5-1.556,2.632,2.632,0,0,1,.778-1.874,2.8,2.8,0,0,1,2.122-.813,6.058,6.058,0,0,1,2.475.707,8.362,8.362,0,0,1,2.334,1.556,24.547,24.547,0,0,1,4.526-3.041,10.245,10.245,0,0,1,4.738-1.2,8.8,8.8,0,0,1,2.051.354,11.985,11.985,0,0,1,2.652,1.061,8.237,8.237,0,0,1,2.3,1.839,3.854,3.854,0,0,1,.99,2.617,2.566,2.566,0,0,1-.778,1.945A2.661,2.661,0,0,1,356-23.62a2.209,2.209,0,0,1-1.379-.46q-.6-.46-1.2-.99a9.96,9.96,0,0,0-1.273-.955,2.787,2.787,0,0,0-1.52-.424,4.757,4.757,0,0,0-2.157.6,17.964,17.964,0,0,0-2.334,1.45,23.64,23.64,0,0,0-2.228,1.839q-1.061.99-1.839,1.768V-1.98a3.366,3.366,0,0,1-.955,2.44,2.814,2.814,0,0,1-1.945.813A2.741,2.741,0,0,1,337.326.53a3.574,3.574,0,0,1-1.061-2.3V-21.074a1.64,1.64,0,0,0-.035-.318,1.638,1.638,0,0,1-.035-.318,1.638,1.638,0,0,1,.035-.318,1.64,1.64,0,0,0,.035-.318V-24.4A3.879,3.879,0,0,0,335.77-24.61Zm41.37,8.486a3.341,3.341,0,0,1,2.086,1.45,2.754,2.754,0,0,1,.389,2.015,2.838,2.838,0,0,1-1.167,1.7,3.323,3.323,0,0,1-2.51.5,7.481,7.481,0,0,1-3.536-1.662,7.328,7.328,0,0,1-2.051-2.864A6.809,6.809,0,0,1,370-18.528a7.987,7.987,0,0,1,1.626-3.677,13.193,13.193,0,0,1,2.3-2.3q1.45-1.167,2.935-2.334t2.758-2.369a7.246,7.246,0,0,0,1.8-2.51,3.768,3.768,0,0,0,.071-2.687,6.443,6.443,0,0,0-2.51-2.864l-.424-.141q-.212-.071-.5-.141a10.8,10.8,0,0,0-5.587,1.839,18.157,18.157,0,0,0-4.385,4.1,3.354,3.354,0,0,1-2.157,1.344,2.785,2.785,0,0,1-2.015-.46,2.772,2.772,0,0,1-1.1-1.768,3.359,3.359,0,0,1,.6-2.51,24.719,24.719,0,0,1,3.359-3.536,20.34,20.34,0,0,1,4.172-2.829A18.539,18.539,0,0,1,375.514-43a10.528,10.528,0,0,1,4.455-.035,8.822,8.822,0,0,1,3.925,2.015,11.6,11.6,0,0,1,3.006,4.526,8,8,0,0,1,.636,3.677,10.57,10.57,0,0,1-.849,3.394,11.583,11.583,0,0,1-1.909,3.006,21.5,21.5,0,0,1-2.687,2.581,18.963,18.963,0,0,1-1.733,1.238,19.357,19.357,0,0,0-2.369,1.839,9.819,9.819,0,0,0-1.8,2.122,2.162,2.162,0,0,0-.177,2.157q.141.141.212.141a.812.812,0,0,0,.46.141A1.445,1.445,0,0,1,377.14-16.124ZM371.2-3.253a3.753,3.753,0,0,1,1.131-2.758,3.753,3.753,0,0,1,2.758-1.131,3.871,3.871,0,0,1,2.793,1.131,3.7,3.7,0,0,1,1.167,2.758A3.811,3.811,0,0,1,377.883-.46,3.811,3.811,0,0,1,375.09.707,3.7,3.7,0,0,1,372.331-.46,3.871,3.871,0,0,1,371.2-3.253Z" transform="translate(1148 217)"/><path d="M32.46-41.441a4.145,4.145,0,0,1,1.131-2.122,2.556,2.556,0,0,1,1.768-.707,2.763,2.763,0,0,1,1.733.636,3.57,3.57,0,0,1,1.167,1.98q0,10.113-.141,19.589T37.41-2.475l.071.071H37.41a3.146,3.146,0,0,0-.071.6v.53a3.7,3.7,0,0,1-1.167,1.7A2.577,2.577,0,0,1,34.581.99a3.379,3.379,0,0,1-2.4-1.131,4.624,4.624,0,0,0-.283-.5l-.283-.424H31.54V-1.2q-2.546-4.314-5.233-8.239t-5.516-7.708q-2.829-3.783-5.764-7.5t-6.046-7.6v14.32q0,3.571.035,7.461t.035,8.415A3.366,3.366,0,0,1,8.1.389,2.813,2.813,0,0,1,6.152,1.2,2.741,2.741,0,0,1,4.314.46a3.574,3.574,0,0,1-1.061-2.3q0-9.547-.035-19.341T3.182-40.522A3.662,3.662,0,0,1,4.243-42.5a2.556,2.556,0,0,1,1.768-.707,3.8,3.8,0,0,1,2.122.778q3.253,3.89,6.365,7.6t6.117,7.461Q23.62-23.62,26.449-19.7t5.516,8.168q.283-7.779.389-14.922T32.46-41.441ZM68.667-8.274a3.462,3.462,0,0,1,2.546-.141,2.771,2.771,0,0,1,1.52,1.344,2.768,2.768,0,0,1,.141,2.051,3.293,3.293,0,0,1-1.662,1.909A45.227,45.227,0,0,1,66.192-.636,23.013,23.013,0,0,1,60.747.919,16.874,16.874,0,0,1,55.3.884a12.935,12.935,0,0,1-5.162-2.157,13,13,0,0,1-4.526-5.551,18.62,18.62,0,0,1-1.627-7.284,17.962,17.962,0,0,1,1.379-7.284,12.406,12.406,0,0,1,4.561-5.622A24.829,24.829,0,0,1,57-30.3a15.525,15.525,0,0,1,7.708-.248,7.678,7.678,0,0,1,3.465,1.8,11.272,11.272,0,0,1,2.51,3.182,8.716,8.716,0,0,1,1.025,3.819,6.752,6.752,0,0,1-.99,3.783A10.088,10.088,0,0,1,67.253-14.6a26.968,26.968,0,0,1-4.915,2.334,50.333,50.333,0,0,1-5.3,1.591q-2.652.636-4.632,1.2a3.826,3.826,0,0,1-1.627.071,9.218,9.218,0,0,0,3.147,3.713,7.906,7.906,0,0,0,5.2,1.238,12.9,12.9,0,0,0,4.986-1.379Q66.617-7.072,68.667-8.274ZM54.877-23.337a8.759,8.759,0,0,0-3.889,3.783,10.936,10.936,0,0,0-1.273,5.127,4.591,4.591,0,0,1,1.061-.566q1.273-.354,2.581-.743t2.652-.743q.849-.212,2.3-.636t3.006-.99a17.414,17.414,0,0,0,2.829-1.308,3.969,3.969,0,0,0,1.7-1.662q.141-2.334-1.131-3.182a5.354,5.354,0,0,0-3.041-.849,12.229,12.229,0,0,0-3.677.6A25.422,25.422,0,0,0,54.877-23.337Zm45.33-7.779a3.409,3.409,0,0,1,2.369-.919,2.785,2.785,0,0,1,1.874.778,2.785,2.785,0,0,1,.778,1.874,3.409,3.409,0,0,1-.919,2.369q-2.617,2.546-5.127,5.162t-4.915,5.3q2.97,3.394,5.622,6.966t4.986,7.39A3.453,3.453,0,0,1,104.91.141a2.8,2.8,0,0,1-1.167,1.45,2.716,2.716,0,0,1-1.8.318A3.6,3.6,0,0,1,99.925.778Q97.874-2.617,95.47-5.834t-5.021-6.259A143.078,143.078,0,0,0,81.538.141a3.353,3.353,0,0,1-2.157,1.344,2.785,2.785,0,0,1-2.015-.46,2.772,2.772,0,0,1-1.1-1.768,3.359,3.359,0,0,1,.6-2.51q2.192-3.465,4.632-6.789t5.056-6.506q-2.263-2.475-4.632-4.915l-4.773-4.915a3.443,3.443,0,0,1-1.167-2.3,2.612,2.612,0,0,1,.636-1.909,2.99,2.99,0,0,1,1.839-.919,3.3,3.3,0,0,1,2.44.743q2.4,2.475,4.809,4.915t4.667,4.915q2.334-2.617,4.809-5.162T100.208-31.116ZM116.4-24.893a3.574,3.574,0,0,1-2.3-1.061,2.741,2.741,0,0,1-.743-1.839,2.992,2.992,0,0,1,.813-1.945,3.027,3.027,0,0,1,2.44-.955h3.96V-41.865a4.145,4.145,0,0,1,1.131-2.122,2.556,2.556,0,0,1,1.768-.707,2.763,2.763,0,0,1,1.733.636,3.57,3.57,0,0,1,1.167,1.98v11.386h6.789a3.57,3.57,0,0,1,1.98,1.167,2.763,2.763,0,0,1,.636,1.733,2.556,2.556,0,0,1-.707,1.768,4.145,4.145,0,0,1-2.122,1.131h-6.577q-.071,5.445,0,11.209t.071,11.209a3.027,3.027,0,0,1-.955,2.44,2.992,2.992,0,0,1-1.945.813,2.741,2.741,0,0,1-1.839-.743,3.574,3.574,0,0,1-1.061-2.3q0-5.516-.035-11.315t-.035-11.315ZM173.9-3.394a3.36,3.36,0,0,1,1.485,2.086,2.75,2.75,0,0,1-.318,2.015,2.873,2.873,0,0,1-1.627,1.2,3.3,3.3,0,0,1-2.51-.354L169.653.707q-.636-.424-1.344-.849a3.206,3.206,0,0,1-.849-1.061,6.1,6.1,0,0,1-.354-1.414V-41.865a3.6,3.6,0,0,1,1.1-2.051,2.738,2.738,0,0,1,1.7-.743,2.676,2.676,0,0,1,1.733.6,3.818,3.818,0,0,1,1.273,1.98V-4.031q.212.141.46.318A3.949,3.949,0,0,0,173.9-3.394Zm15.063,1.131A3.366,3.366,0,0,1,188,.177,2.814,2.814,0,0,1,186.06.99a2.741,2.741,0,0,1-1.839-.743,3.574,3.574,0,0,1-1.061-2.3q-.071-6.648-.106-13.578t-.106-13.578a4.145,4.145,0,0,1,1.132-2.122,2.556,2.556,0,0,1,1.768-.707,2.763,2.763,0,0,1,1.733.636,3.57,3.57,0,0,1,1.167,1.98q.071,6.648.106,13.578T188.959-2.263Zm-6.506-38.471a3.817,3.817,0,0,1,.99-2.652,3.122,3.122,0,0,1,2.4-1.1,3.23,3.23,0,0,1,2.44,1.1,3.742,3.742,0,0,1,1.025,2.652,3.654,3.654,0,0,1-1.025,2.581,3.23,3.23,0,0,1-2.44,1.1,3.122,3.122,0,0,1-2.4-1.1A3.726,3.726,0,0,1,182.453-40.734ZM223.611-2.122a3.366,3.366,0,0,1-.955,2.44,2.813,2.813,0,0,1-1.945.813,2.741,2.741,0,0,1-1.839-.743,3.574,3.574,0,0,1-1.061-2.3q0-3.253-.035-6.471t-.035-6.471q0-2.334.035-4.667a28.247,28.247,0,0,0-.318-4.667,2.58,2.58,0,0,0-1.238-1.308,4.6,4.6,0,0,0-1.591-.248,10.493,10.493,0,0,0-4.738,1.167,9.225,9.225,0,0,0-3.677,3.218q-.778,1.2-1.238,2.015a6.041,6.041,0,0,0-.6,2.369v7.213q0,3.607.071,7.213a3.366,3.366,0,0,1-.955,2.44,2.813,2.813,0,0,1-1.945.813,2.741,2.741,0,0,1-1.839-.743,3.574,3.574,0,0,1-1.061-2.3V-8.91q0-3.182-.035-6.294t-.035-6.329v-6.612a4.145,4.145,0,0,1,1.132-2.122,2.556,2.556,0,0,1,1.768-.707,2.763,2.763,0,0,1,1.733.636,3.57,3.57,0,0,1,1.167,1.98v.566a16.193,16.193,0,0,1,4.632-2.793,13.979,13.979,0,0,1,5.2-1.025,10.45,10.45,0,0,1,4.915,1.2,8.876,8.876,0,0,1,3.713,3.89,6.618,6.618,0,0,1,.672,2.3,27.918,27.918,0,0,1,.212,2.9q.035,1.52-.035,3.112t-.071,3.006V-2.122Zm32.177-6.152a3.462,3.462,0,0,1,2.546-.141,2.771,2.771,0,0,1,1.52,1.344A2.767,2.767,0,0,1,260-5.021a3.293,3.293,0,0,1-1.662,1.909,45.228,45.228,0,0,1-5.021,2.475A23.013,23.013,0,0,1,247.867.919a16.874,16.874,0,0,1-5.445-.035,12.935,12.935,0,0,1-5.162-2.157,13,13,0,0,1-4.526-5.551,18.62,18.62,0,0,1-1.627-7.284,17.962,17.962,0,0,1,1.379-7.284,12.406,12.406,0,0,1,4.561-5.622,24.829,24.829,0,0,1,7.072-3.288,15.525,15.525,0,0,1,7.708-.248,7.678,7.678,0,0,1,3.465,1.8,11.273,11.273,0,0,1,2.51,3.182,8.716,8.716,0,0,1,1.025,3.819,6.752,6.752,0,0,1-.99,3.783,10.088,10.088,0,0,1-3.465,3.359,26.967,26.967,0,0,1-4.915,2.334,50.333,50.333,0,0,1-5.3,1.591q-2.652.636-4.632,1.2a3.826,3.826,0,0,1-1.627.071,9.218,9.218,0,0,0,3.147,3.713,7.906,7.906,0,0,0,5.2,1.238,12.9,12.9,0,0,0,4.986-1.379Q253.737-7.072,255.788-8.274ZM242-23.337a8.759,8.759,0,0,0-3.89,3.783,10.936,10.936,0,0,0-1.273,5.127,4.591,4.591,0,0,1,1.061-.566q1.273-.354,2.581-.743t2.652-.743q.849-.212,2.3-.636t3.006-.99a17.414,17.414,0,0,0,2.829-1.308,3.97,3.97,0,0,0,1.7-1.662q.141-2.334-1.131-3.182a5.354,5.354,0,0,0-3.041-.849,12.23,12.23,0,0,0-3.677.6A25.421,25.421,0,0,0,242-23.337Zm31.257,19.66a3.706,3.706,0,0,1-1.238,2.793A4.134,4.134,0,0,1,269.083.283a4.4,4.4,0,0,1-3.147-1.167A3.706,3.706,0,0,1,264.7-3.677a3.818,3.818,0,0,1,1.238-2.829,4.331,4.331,0,0,1,3.147-1.2,4.069,4.069,0,0,1,2.935,1.2A3.818,3.818,0,0,1,273.255-3.677Z" transform="translate(1148 298)"/><rect width="6" height="69" transform="translate(1543 160)"/><rect width="6" height="69" transform="translate(1426 236)" fill="#f88"/><path d="M35.375,3.375a32,32,0,1,0,32,32A32,32,0,0,0,35.375,3.375ZM43.483,46.96l-8.108-8.108L27.267,46.96a2.459,2.459,0,1,1-3.477-3.477L31.9,35.375,23.79,27.267a2.459,2.459,0,1,1,3.477-3.477L35.375,31.9l8.108-8.108a2.459,2.459,0,0,1,3.477,3.477l-8.108,8.108,8.108,8.108a2.47,2.47,0,0,1,0,3.477A2.442,2.442,0,0,1,43.483,46.96Z" transform="translate(522.625 408.625)" fill="#f2674e"/><path d="M35.375,3.375a32,32,0,1,0,32,32A32,32,0,0,0,35.375,3.375ZM43.483,46.96l-8.108-8.108L27.267,46.96a2.459,2.459,0,1,1-3.477-3.477L31.9,35.375,23.79,27.267a2.459,2.459,0,1,1,3.477-3.477L35.375,31.9l8.108-8.108a2.459,2.459,0,0,1,3.477,3.477l-8.108,8.108,8.108,8.108a2.47,2.47,0,0,1,0,3.477A2.442,2.442,0,0,1,43.483,46.96Z" transform="translate(1317.625 408.625)" fill="#f2674e"/></g></svg>