<svg xmlns="http://www.w3.org/2000/svg" xmlns:xlink="http://www.w3.org/1999/xlink" width="1920" height="540" viewBox="0 0 1920 540"><defs><clipPath id="b"><rect width="1920" height="540"/></clipPath></defs><g id="a" clip-path="url(#b)"><rect width="1920" height="540" fill="#eee"/><rect width="359" height="80" transform="translate(347 202)" fill="#ff8177" opacity="0.5"/><text transform="translate(357 264)" font-size="64" font-family="ComicSansMS, Comic Sans MS"><tspan x="0" y="0">Text selection</tspan></text><text transform="translate(1148 217)" font-size="64" font-family="ComicSansMS, Comic Sans MS"><tspan x="0" y="0">Move cursor?</tspan></text><text transform="translate(1148 298)" font-size="64" font-family="ComicSansMS, Comic Sans MS"><tspan x="0" y="0">Next line.</tspan></text><rect width="6" height="69" transform="translate(1555 158)"/><rect width="6" height="69" transform="translate(1443 238)" fill="#f88"/><path d="M35.375,3.375a32,32,0,1,0,32,32A32,32,0,0,0,35.375,3.375ZM43.483,46.96l-8.108-8.108L27.267,46.96a2.459,2.459,0,1,1-3.477-3.477L31.9,35.375,23.79,27.267a2.459,2.459,0,1,1,3.477-3.477L35.375,31.9l8.108-8.108a2.459,2.459,0,0,1,3.477,3.477l-8.108,8.108,8.108,8.108a2.47,2.47,0,0,1,0,3.477A2.442,2.442,0,0,1,43.483,46.96Z" transform="translate(522.625 408.625)" fill="#f2674e"/><path d="M35.375,3.375a32,32,0,1,0,32,32A32,32,0,0,0,35.375,3.375ZM43.483,46.96l-8.108-8.108L27.267,46.96a2.459,2.459,0,1,1-3.477-3.477L31.9,35.375,23.79,27.267a2.459,2.459,0,1,1,3.477-3.477L35.375,31.9l8.108-8.108a2.459,2.459,0,0,1,3.477,3.477l-8.108,8.108,8.108,8.108a2.47,2.47,0,0,1,0,3.477A2.442,2.442,0,0,1,43.483,46.96Z" transform="translate(1317.625 408.625)" fill="#f2674e"/></g></svg>