<svg xmlns="http://www.w3.org/2000/svg" xmlns:xlink="http://www.w3.org/1999/xlink" width="1920" height="1080" viewBox="0 0 1920 1080"><defs><filter id="a" x="449" y="311" width="560" height="348" filterUnits="userSpaceOnUse"><feOffset input="SourceAlpha"/><feGaussianBlur stdDeviation="8" result="b"/><feFlood flood-opacity="0.102"/><feComposite operator="in" in2="b"/><feComposite in="SourceGraphic"/></filter><filter id="c" x="481" y="941" width="368" height="112" filterUnits="userSpaceOnUse"><feOffset input="SourceAlpha"/><feGaussianBlur stdDeviation="8" result="d"/><feFlood flood-opacity="0.102"/><feComposite operator="in" in2="d"/><feComposite in="SourceGraphic"/></filter><filter id="e" x="466" y="659" width="398" height="112" filterUnits="userSpaceOnUse"><feOffset input="SourceAlpha"/><feGaussianBlur stdDeviation="8" result="f"/><feFlood flood-opacity="0.102"/><feComposite operator="in" in2="f"/><feComposite in="SourceGraphic"/></filter><filter id="g" x="1001" y="77" width="430" height="372" filterUnits="userSpaceOnUse"><feOffset input="SourceAlpha"/><feGaussianBlur stdDeviation="8" result="h"/><feFlood flood-opacity="0.102"/><feComposite operator="in" in2="h"/><feComposite in="SourceGraphic"/></filter><filter id="i" x="1001" y="417" width="430" height="206" filterUnits="userSpaceOnUse"><feOffset input="SourceAlpha"/><feGaussianBlur stdDeviation="8" result="j"/><feFlood flood-opacity="0.102"/><feComposite operator="in" in2="j"/><feComposite in="SourceGraphic"/></filter><filter id="k" x="1248" y="699" width="245" height="345" filterUnits="userSpaceOnUse"><feOffset input="SourceAlpha"/><feGaussianBlur stdDeviation="8" result="l"/><feFlood flood-opacity="0.102"/><feComposite operator="in" in2="l"/><feComposite in="SourceGraphic"/></filter><filter id="m" x="1503" y="722" width="378" height="128" filterUnits="userSpaceOnUse"><feOffset input="SourceAlpha"/><feGaussianBlur stdDeviation="8" result="n"/><feFlood flood-opacity="0.102"/><feComposite operator="in" in2="n"/><feComposite in="SourceGraphic"/></filter><filter id="o" x="55" y="546" width="374" height="120" filterUnits="userSpaceOnUse"><feOffset input="SourceAlpha"/><feGaussianBlur stdDeviation="4" result="p"/><feFlood flood-opacity="0.102"/><feComposite operator="in" in2="p"/><feComposite in="SourceGraphic"/></filter><filter id="q" x="337" y="574.89" width="64" height="62.219" filterUnits="userSpaceOnUse"><feOffset input="SourceAlpha"/><feGaussianBlur stdDeviation="8" result="r"/><feFlood flood-opacity="0.102"/><feComposite operator="in" in2="r"/><feComposite in="SourceGraphic"/></filter><filter id="s" x="55" y="658" width="374" height="88" filterUnits="userSpaceOnUse"><feOffset input="SourceAlpha"/><feGaussianBlur stdDeviation="4" result="t"/><feFlood flood-opacity="0.102"/><feComposite operator="in" in2="t"/><feComposite in="SourceGraphic"/></filter><filter id="u" x="55" y="738" width="374" height="172" filterUnits="userSpaceOnUse"><feOffset input="SourceAlpha"/><feGaussianBlur stdDeviation="4" result="v"/><feFlood flood-opacity="0.102"/><feComposite operator="in" in2="v"/><feComposite in="SourceGraphic"/></filter><filter id="w" x="1431" y="37" width="430" height="408" filterUnits="userSpaceOnUse"><feOffset input="SourceAlpha"/><feGaussianBlur stdDeviation="8" result="x"/><feFlood flood-opacity="0.102"/><feComposite operator="in" in2="x"/><feComposite in="SourceGraphic"/></filter><filter id="y" x="27" y="294" width="430" height="224" filterUnits="userSpaceOnUse"><feOffset input="SourceAlpha"/><feGaussianBlur stdDeviation="8" result="z"/><feFlood flood-opacity="0.102"/><feComposite operator="in" in2="z"/><feComposite in="SourceGraphic"/></filter><filter id="aa" x="27" y="182" width="430" height="128" filterUnits="userSpaceOnUse"><feOffset input="SourceAlpha"/><feGaussianBlur stdDeviation="8" result="ab"/><feFlood flood-opacity="0.102"/><feComposite operator="in" in2="ab"/><feComposite in="SourceGraphic"/></filter><filter id="ac" x="43" y="198" width="96" height="96" filterUnits="userSpaceOnUse"><feOffset input="SourceAlpha"/><feGaussianBlur stdDeviation="8" result="ad"/><feFlood flood-opacity="0.102"/><feComposite operator="in" in2="ad"/><feComposite in="SourceGraphic"/></filter><filter id="ae" x="1463" y="483" width="430" height="203" filterUnits="userSpaceOnUse"><feOffset input="SourceAlpha"/><feGaussianBlur stdDeviation="8" result="af"/><feFlood flood-opacity="0.102"/><feComposite operator="in" in2="af"/><feComposite in="SourceGraphic"/></filter><filter id="ag" x="1503" y="914" width="378" height="128" filterUnits="userSpaceOnUse"><feOffset input="SourceAlpha"/><feGaussianBlur stdDeviation="8" result="ah"/><feFlood flood-opacity="0.102"/><feComposite operator="in" in2="ah"/><feComposite in="SourceGraphic"/></filter><filter id="ai" x="1503" y="818" width="378" height="128" filterUnits="userSpaceOnUse"><feOffset input="SourceAlpha"/><feGaussianBlur stdDeviation="8" result="aj"/><feFlood flood-opacity="0.102"/><feComposite operator="in" in2="aj"/><feComposite in="SourceGraphic"/></filter><filter id="ak" x="27" y="37" width="430" height="168" filterUnits="userSpaceOnUse"><feOffset input="SourceAlpha"/><feGaussianBlur stdDeviation="8" result="al"/><feFlood flood-opacity="0.102"/><feComposite operator="in" in2="al"/><feComposite in="SourceGraphic"/></filter><filter id="am" x="55" y="902" width="374" height="130" filterUnits="userSpaceOnUse"><feOffset input="SourceAlpha"/><feGaussianBlur stdDeviation="4" result="an"/><feFlood flood-opacity="0.102"/><feComposite operator="in" in2="an"/><feComposite in="SourceGraphic"/></filter><filter id="ao" x="988" y="786" width="112" height="112" filterUnits="userSpaceOnUse"><feOffset input="SourceAlpha"/><feGaussianBlur stdDeviation="8" result="ap"/><feFlood flood-opacity="0.102"/><feComposite operator="in" in2="ap"/><feComposite in="SourceGraphic"/></filter><filter id="aq" x="988" y="687" width="112" height="112" filterUnits="userSpaceOnUse"><feOffset input="SourceAlpha"/><feGaussianBlur stdDeviation="8" result="ar"/><feFlood flood-opacity="0.102"/><feComposite operator="in" in2="ar"/><feComposite in="SourceGraphic"/></filter><clipPath id="at"><rect width="1920" height="1080"/></clipPath></defs><g id="as" clip-path="url(#at)"><rect width="1920" height="1080" fill="#fafafa"/><g transform="matrix(1, 0, 0, 1, 0, 0)" filter="url(#a)"><rect width="512" height="300" rx="48" transform="translate(473 335)" fill="#fff"/></g><text transform="translate(529 495)" fill="#262626" font-size="32" font-family="AvenirNext-Bold, Avenir Next" font-weight="700"><tspan x="0" y="0">Avenir Next Bold</tspan></text><text transform="translate(529 407)" fill="#262626" font-size="32" font-family="AvenirNext-Regular, Avenir Next"><tspan x="0" y="0">Avenir Next Regular</tspan></text><text transform="translate(529 451)" fill="#262626" font-size="32" font-family="AvenirNext-Medium, Avenir Next" font-weight="500"><tspan x="0" y="0">Avenir Next Medium</tspan></text><text transform="translate(530 539)" fill="#262626" font-size="32" font-family="AvenirNext-Heavy, Avenir Next" font-weight="800"><tspan x="0" y="0">Avenir Next Heavy</tspan></text><text transform="translate(532 583)" fill="#262626" font-size="32" font-family="AvenirNext-HeavyItalic, Avenir Next" font-weight="800" font-style="italic"><tspan x="0" y="0">Avenir Next Heavy Italic</tspan></text><g transform="translate(109 -766)"><rect width="112" height="48" rx="24" transform="translate(505 987)" fill="#ffba00"/><text transform="translate(561 1016)" fill="#fff" font-size="16" font-family="AvenirNext-Bold, Avenir Next" font-weight="700"><tspan x="-34.856" y="0">Subtab 1</tspan></text><path d="M24,2a22.006,22.006,0,0,0-8.563,42.272A21.86,21.86,0,0,0,24,46H88A22.006,22.006,0,0,0,96.563,3.728,21.86,21.86,0,0,0,88,2H24m0-2H88a24,24,0,0,1,0,48H24A24,24,0,0,1,24,0Z" transform="translate(625 987)" fill="#262626"/><text transform="translate(681 1016)" fill="#262626" font-size="16" font-family="AvenirNext-Bold, Avenir Next" font-weight="700"><tspan x="-34.856" y="0">Subtab 2</tspan></text></g><g transform="translate(-55 8)"><g transform="translate(609 133)"><rect width="247" height="48" rx="24" fill="#eee"/><text transform="translate(38 30)" fill="#262626" font-size="18" font-family="AvenirNext-Regular, Avenir Next"><tspan x="0" y="0">Search</tspan></text><path d="M15.935,14.563h-.723l-.256-.247a5.955,5.955,0,1,0-.64.64l.247.256v.723L19.137,20.5,20.5,19.137Zm-5.489,0a4.117,4.117,0,1,1,4.117-4.117A4.111,4.111,0,0,1,10.446,14.563Z" transform="translate(11.5 12.5)" fill="#262626"/></g></g><g transform="translate(-55 8)"><rect width="96" height="48" rx="24" transform="translate(864 133)" fill="#ffba00"/><text transform="translate(926 162)" fill="#fff" font-size="16" font-family="AvenirNext-Bold, Avenir Next" font-weight="700"><tspan x="0" y="0">1</tspan></text><path d="M14.571,3.856c6.627,0,12,4.365,12,9.75s-5.373,9.75-12,9.75a14.82,14.82,0,0,1-1.871-.118c-2.578,2.578-5.654,3.04-8.629,3.108v-.631c1.606-.787,3-2.22,3-3.859a4.527,4.527,0,0,0-.051-.673,9.179,9.179,0,0,1-4.449-7.577C2.571,8.221,7.943,3.856,14.571,3.856Z" transform="translate(877.429 141.899)" fill="#fff"/></g><g transform="translate(554 61)"><rect width="350" height="48" rx="24" fill="#eee"/><text transform="translate(38 30)" fill="#262626" font-size="18" font-family="AvenirNext-Regular, Avenir Next"><tspan x="0" y="0">Search</tspan></text><path d="M15.935,14.563h-.723l-.256-.247a5.955,5.955,0,1,0-.64.64l.247.256v.723L19.137,20.5,20.5,19.137Zm-5.489,0a4.117,4.117,0,1,1,4.117-4.117A4.111,4.111,0,0,1,10.446,14.563Z" transform="translate(11.5 12.5)" fill="#262626"/></g><g transform="translate(513 973)"><g transform="matrix(1, 0, 0, 1, -513, -973)" filter="url(#c)"><g transform="translate(513 973)" fill="#fff" stroke="#fff" stroke-width="8"><rect width="304" height="48" rx="24" stroke="none"/><rect x="-4" y="-4" width="312" height="56" rx="28" fill="none"/></g></g><circle cx="24" cy="24" r="24" fill="none"/><circle cx="24" cy="24" r="24" transform="translate(128)" fill="#ffba00"/><circle cx="24" cy="24" r="24" transform="translate(256)" fill="none"/><circle cx="24" cy="24" r="24" transform="translate(192)" fill="none"/><circle cx="24" cy="24" r="24" transform="translate(63.015)" fill="none"/><path d="M25.238,23.917a2.433,2.433,0,0,0,1.333,2.17v.332a4.96,4.96,0,0,1-4.275-1.5,6.7,6.7,0,0,1-1.725.224c-3.314,0-6-2.388-6-5.333s2.686-5.333,6-5.333,6,2.388,6,5.333A4.92,4.92,0,0,1,25.46,22.9a2.42,2.42,0,0,0-.222,1.015Zm-12-18.774c5.8,0,10.521,3.763,10.663,8.448a8.175,8.175,0,0,0-3.33-.7,7.939,7.939,0,0,0-5.295,1.962,6.581,6.581,0,0,0-2.289,4.955,6.393,6.393,0,0,0,.578,2.662c-.109,0-.218,0-.328,0a13.174,13.174,0,0,1-1.663-.105c-2.291,2.291-5.026,2.7-7.67,2.762v-.561c1.428-.7,2.667-1.974,2.667-3.43a4.024,4.024,0,0,0-.045-.6A8.159,8.159,0,0,1,2.571,13.81c0-4.786,4.776-8.667,10.667-8.667Z" transform="translate(9.429 8.643)" fill="#262626"/><path d="M16.286,7.919C15.584,3.6,13.929.562,12,.562S8.421,3.6,7.719,7.919ZM7.356,12.565a30.335,30.335,0,0,0,.16,3.1h8.968a30.335,30.335,0,0,0,.16-3.1,30.335,30.335,0,0,0-.16-3.1H7.516A30.335,30.335,0,0,0,7.356,12.565ZM23.071,7.919a12.028,12.028,0,0,0-7.647-6.853,16.334,16.334,0,0,1,2.42,6.853ZM8.576,1.066A12.02,12.02,0,0,0,.934,7.919H6.161A16.268,16.268,0,0,1,8.576,1.066Zm15.013,8.4H18.038c.1,1.016.16,2.057.16,3.1s-.058,2.081-.16,3.1h5.546a11.9,11.9,0,0,0,.416-3.1A12.107,12.107,0,0,0,23.589,9.468Zm-17.781,3.1c0-1.041.058-2.081.16-3.1H.416a11.733,11.733,0,0,0,0,6.195H5.962C5.866,14.646,5.808,13.605,5.808,12.565Zm1.912,4.646c.7,4.322,2.357,7.356,4.283,7.356s3.581-3.034,4.283-7.356Zm7.71,6.853a12.039,12.039,0,0,0,7.647-6.853H17.849A16.334,16.334,0,0,1,15.429,24.064ZM.934,17.211a12.028,12.028,0,0,0,7.647,6.853,16.334,16.334,0,0,1-2.42-6.853Z" transform="translate(74.487 11.435)" fill="#262626"/><path d="M22.593,2.252c-2.283.13-6.822.6-9.623,2.316a.641.641,0,0,0-.3.549V20.279a.659.659,0,0,0,.97.562c2.883-1.451,7.051-1.847,9.113-1.955A1.3,1.3,0,0,0,24,17.608V3.531a1.306,1.306,0,0,0-1.407-1.279ZM11.031,4.568c-2.8-1.715-7.34-2.186-9.623-2.316A1.307,1.307,0,0,0,0,3.531V17.608a1.3,1.3,0,0,0,1.251,1.278c2.062.108,6.233.5,9.116,1.956a.657.657,0,0,0,.967-.561V5.11A.627.627,0,0,0,11.031,4.568Z" transform="translate(204.615 13.306)" fill="#262626"/><path d="M15,3A12,12,0,1,0,27,15,12,12,0,0,0,15,3Zm0,3.6a3.6,3.6,0,1,1-3.6,3.6A3.6,3.6,0,0,1,15,6.6Zm0,17.04a8.641,8.641,0,0,1-7.2-3.864c.036-2.388,4.8-3.7,7.2-3.7s7.164,1.308,7.2,3.7A8.641,8.641,0,0,1,15,23.64Z" transform="translate(265 9.001)" fill="#262626"/><path d="M23.56,2.56,21.441.441a1.5,1.5,0,0,0-2.124,0L16.135,3.624a1.5,1.5,0,0,0,0,2.124L13.594,8.284c-2.128-1.359-4.706-1.355-6.258.2a3.921,3.921,0,0,0-.961,1.589,2.4,2.4,0,0,1-2,1.636A4.759,4.759,0,0,0,1.4,13.056c-2.166,2.161-1.777,6.052.858,8.686s6.525,3.019,8.686.858a4.76,4.76,0,0,0,1.35-2.977,2.41,2.41,0,0,1,1.636-2,3.921,3.921,0,0,0,1.589-.961c1.552-1.552,1.552-4.13.2-6.258l2.541-2.541a1.5,1.5,0,0,0,2.124,0l3.183-3.183a1.5,1.5,0,0,0,0-2.119ZM9.75,16.5A2.25,2.25,0,1,1,12,14.251,2.251,2.251,0,0,1,9.75,16.5Z" transform="translate(140 11.998)" fill="#fff"/></g><g transform="translate(490 771)"><rect width="148" height="64" rx="32" fill="#ffba00"/><text transform="translate(76 38)" fill="#fff" font-size="16" font-family="AvenirNext-Bold, Avenir Next" font-weight="700"><tspan x="-25.976" y="0">Button</tspan></text></g><g transform="translate(490 683)"><g transform="matrix(1, 0, 0, 1, -490, -683)" filter="url(#e)"><rect width="350" height="64" rx="32" transform="translate(490 683)" fill="#ffba00"/></g><text transform="translate(177 37)" fill="#fff" font-size="16" font-family="AvenirNext-Bold, Avenir Next" font-weight="700"><tspan x="-60.008" y="0">Floating Button</tspan></text></g><g transform="translate(-611 479)"><rect width="171" height="80" rx="16" transform="translate(1280 284)" fill="#eee"/><text transform="translate(1344 307)" fill="#262626" font-size="14" font-family="AvenirNext-Medium, Avenir Next" font-weight="500"><tspan x="0" y="14">Icon</tspan><tspan x="0" y="30">Button</tspan></text><path d="M23.56,2.56,21.441.441a1.5,1.5,0,0,0-2.124,0L16.135,3.624a1.5,1.5,0,0,0,0,2.124L13.594,8.284c-2.128-1.359-4.706-1.355-6.258.2a3.921,3.921,0,0,0-.961,1.589,2.4,2.4,0,0,1-2,1.636A4.759,4.759,0,0,0,1.4,13.056c-2.166,2.161-1.777,6.052.858,8.686s6.525,3.019,8.686.858a4.76,4.76,0,0,0,1.35-2.977,2.41,2.41,0,0,1,1.636-2,3.921,3.921,0,0,0,1.589-.961c1.552-1.552,1.552-4.13.2-6.258l2.541-2.541a1.5,1.5,0,0,0,2.124,0l3.183-3.183a1.5,1.5,0,0,0,0-2.119ZM9.75,16.5A2.25,2.25,0,1,1,12,14.251,2.251,2.251,0,0,1,9.75,16.5Z" transform="translate(1304 312.5)" fill="#262626"/></g><g transform="translate(174 -157)"><g transform="matrix(1, 0, 0, 1, -174, 157)" filter="url(#g)"><rect width="382" height="324" rx="32" transform="translate(1025 101)" fill="#fff"/></g><text transform="translate(895 287)" fill="#262626" font-size="14" font-family="AvenirNext-Regular, Avenir Next"><tspan x="0" y="0">User Name • 32m ago</tspan></text><text transform="translate(883 326)" fill="#262626" font-size="16" font-family="AvenirNext-Bold, Avenir Next" font-weight="700"><tspan x="0" y="0">Post Title</tspan></text><rect width="350" height="178" rx="16" transform="translate(867 340)" fill="#ccc"/><g transform="translate(867 534)"><rect width="72" height="32" rx="16" fill="none"/><path d="M14.446,3.2a4.273,4.273,0,0,0-5.831.425L8,4.264,7.384,3.63A4.273,4.273,0,0,0,1.553,3.2a4.487,4.487,0,0,0-.309,6.5L7.29,15.945a.98.98,0,0,0,1.416,0L14.752,9.7a4.484,4.484,0,0,0-.306-6.5Z" transform="translate(12.001 6.752)" fill="#262626"/><text transform="translate(36 21)" fill="#262626" font-size="14" font-family="AvenirNext-Medium, Avenir Next" font-weight="500"><tspan x="0" y="0">200</tspan></text></g><g transform="translate(960 534)"><rect width="72" height="32" rx="16" fill="none"/><text transform="translate(36 21)" fill="#262626" font-size="14" font-family="AvenirNext-Medium, Avenir Next" font-weight="500"><tspan x="0" y="0">125</tspan></text><path d="M14,0H2A2,2,0,0,0,0,2v9a2,2,0,0,0,2,2H5v2.625a.376.376,0,0,0,.6.3L9.5,13H14a2,2,0,0,0,2-2V2A2,2,0,0,0,14,0Z" transform="translate(12 7.999)" fill="#262626"/></g><g transform="translate(835 11)"><rect width="72" height="32" rx="16" transform="translate(310 523)" fill="#ffba00"/><path d="M8.583.532,6.63,4.491l-4.369.637a.957.957,0,0,0-.529,1.633l3.161,3.08-.748,4.351A.956.956,0,0,0,5.533,15.2l3.909-2.055L13.35,15.2a.957.957,0,0,0,1.388-1.008L13.99,9.842l3.161-3.08a.957.957,0,0,0-.529-1.633l-4.369-.637L10.3.532A.958.958,0,0,0,8.583.532Z" transform="translate(336.559 531.344)" fill="#fff"/></g><g transform="translate(1052 534)"><rect width="72" height="32" rx="16" fill="none"/><path d="M15.791,4.929l-4,3.777a.667.667,0,0,1-1.124-.485v-2c-4.016.027-5.71.975-4.577,4.76a.445.445,0,0,1-.695.481A5.347,5.347,0,0,1,3.333,7.482c0-4,3.267-4.792,7.333-4.814v-2A.667.667,0,0,1,11.791.182l4,3.777A.667.667,0,0,1,15.791,4.929Zm-5.124,5.6v1.913H1.778V3.556H3.192a.333.333,0,0,0,.24-.1A5.415,5.415,0,0,1,4.849,2.406.333.333,0,0,0,4.7,1.778H1.333A1.333,1.333,0,0,0,0,3.111v9.778a1.333,1.333,0,0,0,1.333,1.333h9.778a1.333,1.333,0,0,0,1.333-1.333V10.422A.333.333,0,0,0,12,10.108a2,2,0,0,1-.95.094A.334.334,0,0,0,10.667,10.531Z" transform="translate(28 8.889)" fill="#262626"/></g><circle cx="12" cy="12" r="12" transform="translate(863 270)" fill="#ccc"/></g><g transform="translate(174 -157)"><g transform="matrix(1, 0, 0, 1, -174, 157)" filter="url(#i)"><rect width="382" height="158" rx="32" transform="translate(1025 441)" fill="#fff"/></g><text transform="translate(895 627)" fill="#262626" font-size="14" font-family="AvenirNext-Regular, Avenir Next"><tspan x="0" y="0">User Name • 3d ago</tspan></text><text transform="translate(883 650)" fill="#262626" font-size="16" font-family="AvenirNext-Bold, Avenir Next" font-weight="700"><tspan x="0" y="16">Post Title</tspan></text><g transform="translate(835 24)"><rect width="72" height="32" rx="16" transform="translate(32 684)" fill="#ffba00"/><path d="M14.446,3.2a4.273,4.273,0,0,0-5.831.425L8,4.264,7.384,3.63A4.273,4.273,0,0,0,1.553,3.2a4.487,4.487,0,0,0-.309,6.5L7.29,15.945a.98.98,0,0,0,1.416,0L14.752,9.7a4.484,4.484,0,0,0-.306-6.5Z" transform="translate(44.001 690.752)" fill="#fff"/><text transform="translate(68 705)" fill="#fff" font-size="14" font-family="AvenirNext-Medium, Avenir Next" font-weight="500"><tspan x="0" y="0">1k</tspan></text></g><g transform="translate(848 24)"><rect width="72" height="32" rx="16" transform="translate(112 684)" fill="none"/><text transform="translate(148 705)" fill="#262626" font-size="14" font-family="AvenirNext-Medium, Avenir Next" font-weight="500"><tspan x="0" y="0">880</tspan></text><path d="M14,0H2A2,2,0,0,0,0,2v9a2,2,0,0,0,2,2H5v2.625a.376.376,0,0,0,.6.3L9.5,13H14a2,2,0,0,0,2-2V2A2,2,0,0,0,14,0Z" transform="translate(124 691.999)" fill="#262626"/></g><g transform="translate(1146 708)"><rect width="72" height="32" rx="16" fill="none"/><path d="M8.583.532,6.63,4.491l-4.369.637a.957.957,0,0,0-.529,1.633l3.161,3.08-.748,4.351A.956.956,0,0,0,5.533,15.2l3.909-2.055L13.35,15.2a.957.957,0,0,0,1.388-1.008L13.99,9.842l3.161-3.08a.957.957,0,0,0-.529-1.633l-4.369-.637L10.3.532a.958.958,0,0,0-1.717,0Z" transform="translate(26.559 8.344)" fill="#262626"/></g><g transform="translate(1053 708)"><rect width="72" height="32" rx="16" fill="none"/><path d="M15.791,4.929l-4,3.777a.667.667,0,0,1-1.124-.485v-2c-4.016.027-5.71.975-4.577,4.76a.445.445,0,0,1-.695.481A5.347,5.347,0,0,1,3.333,7.482c0-4,3.267-4.792,7.333-4.814v-2A.667.667,0,0,1,11.791.182l4,3.777A.667.667,0,0,1,15.791,4.929Zm-5.124,5.6v1.913H1.778V3.556H3.192a.333.333,0,0,0,.24-.1A5.415,5.415,0,0,1,4.849,2.406.333.333,0,0,0,4.7,1.778H1.333A1.333,1.333,0,0,0,0,3.111v9.778a1.333,1.333,0,0,0,1.333,1.333h9.778a1.333,1.333,0,0,0,1.333-1.333V10.422A.333.333,0,0,0,12,10.108a2,2,0,0,1-.95.094A.334.334,0,0,0,10.667,10.531Z" transform="translate(28 8.889)" fill="#262626"/></g><circle cx="12" cy="12" r="12" transform="translate(863 610)" fill="#ccc"/></g><g transform="translate(1272 723)"><g transform="matrix(1, 0, 0, 1, -1272, -723)" filter="url(#k)"><rect width="197" height="297" rx="32" transform="translate(1272 723)" fill="#fff"/></g><rect width="181" height="181" rx="28" transform="translate(8 8)" fill="#ccc"/><text transform="translate(16 220)" fill="#262626" font-size="16" font-family="AvenirNext-Bold, Avenir Next" font-weight="700"><tspan x="0" y="0">Item Name</tspan></text><text transform="translate(16 273)" fill="#ffba00" font-size="20" font-family="AvenirNextCondensed-HeavyItalic, Avenir Next Condensed" font-weight="800" font-style="italic"><tspan x="0" y="0">$189</tspan></text><text transform="translate(16 240)" fill="#888" font-size="14" font-family="AvenirNext-Regular, Avenir Next"><tspan x="0" y="0">Seller</tspan></text></g><g transform="translate(1123 -84)"><g transform="matrix(1, 0, 0, 1, -1123, 84)" filter="url(#m)"><rect width="330" height="80" rx="24" transform="translate(1527 746)" fill="#fff"/></g><text transform="translate(492 866)" fill="#262626" font-size="16" font-family="AvenirNext-Bold, Avenir Next" font-weight="700"><tspan x="0" y="0">Song Title</tspan></text><text transform="translate(492 887)" fill="#888" font-size="14" font-family="AvenirNext-Regular, Avenir Next"><tspan x="0" y="0">Artist</tspan></text><rect width="64" height="64" rx="16" transform="translate(412 838)" fill="#ccc"/></g><g transform="translate(85 895)"><g transform="matrix(1, 0, 0, 1, -85, -895)" filter="url(#o)"><rect width="350" height="96" rx="24" transform="translate(67 558)" fill="#fff"/></g><rect width="64" height="64" rx="16" transform="translate(252 -321)" fill="#ccc"/><text transform="translate(11 -284)" fill="#888" font-size="16" font-family="AvenirNext-Regular, Avenir Next"><tspan x="0" y="0">Image</tspan></text><g transform="matrix(1, 0, 0, 1, -85, -895)" filter="url(#q)"><path d="M11.183,2.315l2.506,2.506a.272.272,0,0,1,0,.383L7.622,11.271l-2.578.286a.54.54,0,0,1-.6-.6l.286-2.578L10.8,2.315A.272.272,0,0,1,11.183,2.315Zm4.5-.636L14.328.324a1.086,1.086,0,0,0-1.533,0l-.983.983a.272.272,0,0,0,0,.383L14.317,4.2a.272.272,0,0,0,.383,0l.983-.983a1.086,1.086,0,0,0,0-1.533ZM10.667,9.621v2.828H1.778V3.56H8.161a.342.342,0,0,0,.236-.1L9.508,2.351a.333.333,0,0,0-.236-.569H1.333A1.334,1.334,0,0,0,0,3.115v9.778a1.334,1.334,0,0,0,1.333,1.333h9.778a1.334,1.334,0,0,0,1.333-1.333V8.51a.334.334,0,0,0-.569-.236L10.764,9.385A.342.342,0,0,0,10.667,9.621Z" transform="translate(361 598.88)" fill="#fff"/></g></g><g transform="translate(85 895)"><g transform="matrix(1, 0, 0, 1, -85, -895)" filter="url(#s)"><rect width="350" height="64" rx="24" transform="translate(67 670)" fill="#fff"/></g><text transform="translate(11 -188)" fill="#888" font-size="16" font-family="AvenirNext-Regular, Avenir Next"><tspan x="0" y="0">Toggle</tspan></text><path d="M19,3A16,16,0,1,0,35,19,16,16,0,0,0,19,3Zm8.192,11.577L16.908,24.908H16.9a1.389,1.389,0,0,1-.892.423,1.347,1.347,0,0,1-.9-.438L10.8,20.585a.306.306,0,0,1,0-.438l1.369-1.369a.3.3,0,0,1,.431,0l3.415,3.415L25.4,12.738a.3.3,0,0,1,.215-.092h0a.279.279,0,0,1,.215.092l1.346,1.392A.3.3,0,0,1,27.192,14.577Z" transform="translate(223.261 -212)" fill="#82c911"/><path d="M19,3A16,16,0,1,0,35,19,16,16,0,0,0,19,3Zm4.054,21.792L19,20.738l-4.054,4.054a1.229,1.229,0,1,1-1.738-1.738L17.262,19l-4.054-4.054a1.229,1.229,0,0,1,1.738-1.738L19,17.262l4.054-4.054a1.229,1.229,0,0,1,1.738,1.738L20.738,19l4.054,4.054a1.235,1.235,0,0,1,0,1.738A1.221,1.221,0,0,1,23.054,24.792Z" transform="translate(281 -212)" fill="#ff6d41"/></g><g transform="translate(600 1201)"><g transform="matrix(1, 0, 0, 1, -600, -1201)" filter="url(#u)"><rect width="350" height="148" rx="24" transform="translate(67 750)" fill="#fff"/></g><text transform="translate(-504 -414)" fill="#888" font-size="16" font-family="AvenirNext-Regular, Avenir Next"><tspan x="0" y="0">Text Field Special</tspan></text><text transform="translate(-504 -372)" fill="#888" font-size="16" font-family="AvenirNext-Regular, Avenir Next"><tspan x="0" y="0">Text Field</tspan></text><text transform="translate(-504 -330)" fill="#888" font-size="16" font-family="AvenirNext-Regular, Avenir Next"><tspan x="0" y="0">Text Field (Unedited)</tspan></text><path d="M318,.5H0A.5.5,0,0,1-.5,0,.5.5,0,0,1,0-.5H318a.5.5,0,0,1,.5.5A.5.5,0,0,1,318,.5Z" transform="translate(-517 -398)" fill="#aaa"/><path d="M318,.5H0A.5.5,0,0,1-.5,0,.5.5,0,0,1,0-.5H318a.5.5,0,0,1,.5.5A.5.5,0,0,1,318,.5Z" transform="translate(-517 -356)" fill="#aaa"/><rect width="111" height="32" rx="8" transform="translate(-310 -435)" fill="#eee"/><rect width="69" height="32" rx="8" transform="translate(-268 -393)" fill="#eee"/><rect width="64" height="32" rx="8" transform="translate(-263 -351)" fill="#eee"/><text transform="translate(-215 -414)" fill="#262626" font-size="14" font-family="AvenirNext-Bold, Avenir Next" font-weight="700"><tspan x="-78.722" y="0">Song Name</tspan></text><text transform="translate(-215 -372)" fill="#262626" font-size="14" font-family="AvenirNext-Bold, Avenir Next" font-weight="700"><tspan x="-36.75" y="0">Artist</tspan></text><path d="M11.183,2.315l2.506,2.506a.272.272,0,0,1,0,.383L7.622,11.271l-2.578.286a.54.54,0,0,1-.6-.6l.286-2.578L10.8,2.315A.272.272,0,0,1,11.183,2.315Zm4.5-.636L14.328.324a1.086,1.086,0,0,0-1.533,0l-.983.983a.272.272,0,0,0,0,.383L14.317,4.2a.272.272,0,0,0,.383,0l.983-.983a1.086,1.086,0,0,0,0-1.533ZM10.667,9.621v2.828H1.778V3.56H8.161a.342.342,0,0,0,.236-.1L9.508,2.351a.333.333,0,0,0-.236-.569H1.333A1.334,1.334,0,0,0,0,3.115v9.778a1.334,1.334,0,0,0,1.333,1.333h9.778a1.334,1.334,0,0,0,1.333-1.333V8.51a.334.334,0,0,0-.569-.236L10.764,9.385A.342.342,0,0,0,10.667,9.621Z" transform="translate(-239 -342.117)" fill="#262626"/><path d="M16.563,8.563a8,8,0,1,1-8-8A8,8,0,0,1,16.563,8.563ZM7.637,12.8l5.935-5.935a.516.516,0,0,0,0-.73l-.73-.73a.516.516,0,0,0-.73,0L7.272,10.244l-2.26-2.26a.516.516,0,0,0-.73,0l-.73.73a.516.516,0,0,0,0,.73L6.907,12.8a.516.516,0,0,0,.73,0Z" transform="translate(-370.563 -427.563)" fill="#82c911"/></g><g transform="translate(1352 437)"><g transform="matrix(1, 0, 0, 1, -1352, -437)" filter="url(#w)"><rect width="382" height="360" rx="32" transform="translate(1455 61)" fill="#fff"/></g><rect width="350" height="238" rx="16" transform="translate(119 -360)" fill="#ccc"/><text transform="translate(135 -88)" fill="#262626" font-size="18" font-family="AvenirNext-Bold, Avenir Next" font-weight="700"><tspan x="0" y="0">Lesson Title</tspan></text><text transform="translate(135 -65)" fill="#82c911" font-size="16" font-family="AvenirNext-Medium, Avenir Next" font-weight="500"><tspan x="0" y="0">Beginner</tspan></text><text transform="translate(453 -88)" fill="#262626" font-size="16" font-family="AvenirNext-Regular, Avenir Next"><tspan x="-70.688" y="0">5 Lessons</tspan></text><g transform="translate(135 -51.002)"><text transform="translate(181 12.002)" fill="#ffba00" font-size="12" font-family="AvenirNext-HeavyItalic, Avenir Next" font-weight="800" font-style="italic"><tspan x="-53.268" y="0">4.0</tspan><tspan y="0" xml:space="preserve" fill="#888"> / 5.0</tspan></text><path d="M8.583.532,6.63,4.491l-4.369.637a.957.957,0,0,0-.529,1.633l3.161,3.08-.748,4.351A.956.956,0,0,0,5.533,15.2l3.909-2.055L13.35,15.2a.957.957,0,0,0,1.388-1.008L13.99,9.842l3.161-3.08a.957.957,0,0,0-.529-1.633l-4.369-.637L10.3.532A.958.958,0,0,0,8.583.532Z" transform="translate(-1.441 0.001)" fill="#ffba00"/><path d="M8.583.532,6.63,4.491l-4.369.637a.957.957,0,0,0-.529,1.633l3.161,3.08-.748,4.351A.956.956,0,0,0,5.533,15.2l3.909-2.055L13.35,15.2a.957.957,0,0,0,1.388-1.008L13.99,9.842l3.161-3.08a.957.957,0,0,0-.529-1.633l-4.369-.637L10.3.532A.958.958,0,0,0,8.583.532Z" transform="translate(22.559 0.001)" fill="#ffba00"/><path d="M8.583.532,6.63,4.491l-4.369.637a.957.957,0,0,0-.529,1.633l3.161,3.08-.748,4.351A.956.956,0,0,0,5.533,15.2l3.909-2.055L13.35,15.2a.957.957,0,0,0,1.388-1.008L13.99,9.842l3.161-3.08a.957.957,0,0,0-.529-1.633l-4.369-.637L10.3.532A.958.958,0,0,0,8.583.532Z" transform="translate(70.559 0.001)" fill="#ffba00"/><path d="M8.583.532,6.63,4.491l-4.369.637a.957.957,0,0,0-.529,1.633l3.161,3.08-.748,4.351A.956.956,0,0,0,5.533,15.2l3.909-2.055L13.35,15.2a.957.957,0,0,0,1.388-1.008L13.99,9.842l3.161-3.08a.957.957,0,0,0-.529-1.633l-4.369-.637L10.3.532A.958.958,0,0,0,8.583.532Z" transform="translate(46.559 0.001)" fill="#ffba00"/><path d="M8.583.532,6.63,4.491l-4.369.637a.957.957,0,0,0-.529,1.633l3.161,3.08-.748,4.351A.956.956,0,0,0,5.533,15.2l3.909-2.055L13.35,15.2a.957.957,0,0,0,1.388-1.008L13.99,9.842l3.161-3.08a.957.957,0,0,0-.529-1.633l-4.369-.637L10.3.532A.958.958,0,0,0,8.583.532Z" transform="translate(94.559 0.001)" fill="#888"/></g><rect width="72" height="32" rx="16" transform="translate(397 -64)" fill="none"/><path d="M8.583.532,6.63,4.491l-4.369.637a.957.957,0,0,0-.529,1.633l3.161,3.08-.748,4.351A.956.956,0,0,0,5.533,15.2l3.909-2.055L13.35,15.2a.957.957,0,0,0,1.388-1.008L13.99,9.842l3.161-3.08a.957.957,0,0,0-.529-1.633l-4.369-.637L10.3.532a.958.958,0,0,0-1.717,0Z" transform="translate(423.559 -55.656)" fill="#262626"/></g><g transform="translate(-665 639)"><g transform="matrix(1, 0, 0, 1, 665, -639)" filter="url(#y)"><rect width="382" height="176" rx="24" transform="translate(51 318)" fill="#fff"/></g><rect width="260" height="8" rx="4" transform="translate(806 -270)" fill="#eee"/><text transform="translate(1066 -284)" fill="#ffba00" font-size="16" font-family="AvenirNext-HeavyItalic, Avenir Next" font-weight="800" font-style="italic"><tspan x="-37.456" y="0">1 </tspan><tspan y="0" fill="#888">/ 2</tspan></text><text transform="translate(806 -284)" fill="#262626" font-size="16" font-family="AvenirNext-Bold, Avenir Next" font-weight="700"><tspan x="0" y="0">Challenge 1</tspan></text><text transform="translate(806 -204)" fill="#262626" font-size="16" font-family="AvenirNext-Bold, Avenir Next" font-weight="700"><tspan x="0" y="16">Challenge 2</tspan></text><rect width="130" height="8" rx="4" transform="translate(806 -270)" fill="#ffba00"/><rect width="58" height="48" rx="16" transform="translate(732 -305)" fill="#ffba00"/><rect width="58" height="64" rx="16" transform="translate(732 -225)" fill="#ffba00"/><text transform="translate(741 -276)" fill="#fff" font-size="14" font-family="AvenirNext-HeavyItalic, Avenir Next" font-weight="800" font-style="italic"><tspan x="0" y="0">50XP</tspan></text><text transform="translate(761 -188)" fill="#fff" font-size="14" font-family="AvenirNext-HeavyItalic, Avenir Next" font-weight="800" font-style="italic"><tspan x="-19.852" y="0">80XP</tspan></text><path d="M24.563,12.563a12,12,0,1,1-12-12A12,12,0,0,1,24.563,12.563ZM11.174,18.916l8.9-8.9a.774.774,0,0,0,0-1.095L18.983,7.823a.774.774,0,0,0-1.095,0l-7.261,7.261-3.39-3.39a.774.774,0,0,0-1.095,0L5.047,12.789a.774.774,0,0,0,0,1.095l5.032,5.032a.774.774,0,0,0,1.095,0Z" transform="translate(1038.438 -205.563)" fill="#eee"/><path d="M350,1H0A1,1,0,0,1-1,0,1,1,0,0,1,0-1H350a1,1,0,0,1,1,1A1,1,0,0,1,350,1Z" transform="translate(732 -241)" fill="#aaa"/></g><g transform="translate(-325 538)"><g transform="matrix(1, 0, 0, 1, 325, -538)" filter="url(#aa)"><rect width="382" height="80" rx="16" transform="translate(51 206)" fill="#fff"/></g><rect width="286" height="16" rx="8" transform="translate(456 -284)" fill="#eee"/><rect width="112" height="16" rx="8" transform="translate(456.324 -284)" fill="#82c911"/><text transform="translate(456 -299)" fill="#82c911" font-size="18" font-family="AvenirNext-HeavyItalic, Avenir Next" font-weight="800" font-style="italic"><tspan x="0" y="0">Level 3</tspan></text><text transform="translate(726 -299)" fill="#82c911" font-size="18" font-family="AvenirNext-HeavyItalic, Avenir Next" font-weight="800" font-style="italic"><tspan x="-92.178" y="0">100</tspan><tspan y="0" fill="#ffba00"> </tspan><tspan y="0" fill="#888">/ 256</tspan></text><g transform="matrix(1, 0, 0, 1, 325, -538)" filter="url(#ac)"><circle cx="24" cy="24" r="24" transform="translate(67 222)" fill="#ccc"/></g></g><g transform="translate(659 -488)"><g transform="matrix(1, 0, 0, 1, -659, 488)" filter="url(#ae)"><rect width="382" height="155" rx="24" transform="translate(1487 507)" fill="#fff"/></g><text transform="translate(860 1035)" fill="#888" font-size="16" font-family="AvenirNext-Regular, Avenir Next"><tspan x="0" y="0">Item 1</tspan></text><text transform="translate(860 1077)" fill="#888" font-size="16" font-family="AvenirNext-Regular, Avenir Next"><tspan x="0" y="0">Item 2</tspan></text><text transform="translate(1042 1035)" fill="#262626" font-size="16" font-family="AvenirNext-Bold, Avenir Next" font-weight="700"><tspan x="0" y="0">Description 1</tspan></text><text transform="translate(1042 1077)" fill="#262626" font-size="16" font-family="AvenirNext-Bold, Avenir Next" font-weight="700"><tspan x="0" y="0">Description 2</tspan></text><path d="M350,.5H0A.5.5,0,0,1-.5,0,.5.5,0,0,1,0-.5H350a.5.5,0,0,1,.5.5A.5.5,0,0,1,350,.5Z" transform="translate(844 1051)" fill="#aaa"/><text transform="translate(860 1119)" fill="#888" font-size="16" font-family="AvenirNext-Regular, Avenir Next"><tspan x="0" y="0">Item 3</tspan></text><text transform="translate(1042 1119)" fill="#262626" font-size="16" font-family="AvenirNext-Bold, Avenir Next" font-weight="700"><tspan x="0" y="0">Description 3</tspan></text><path d="M350,.5H0A.5.5,0,0,1-.5,0,.5.5,0,0,1,0-.5H350a.5.5,0,0,1,.5.5A.5.5,0,0,1,350,.5Z" transform="translate(844 1093)" fill="#aaa"/></g><g transform="translate(231 -121)"><text transform="translate(1041 819)" fill="#262626" font-size="24" font-family="AvenirNext-Bold, Avenir Next" font-weight="700"><tspan x="0" y="0">Things</tspan></text><g transform="translate(1134 800)"><path d="M3.375,15.375a12,12,0,1,0,12-12A12,12,0,0,0,3.375,15.375Zm14.106,0L12.756,10.7a1.114,1.114,0,0,1,1.575-1.575l5.5,5.521a1.112,1.112,0,0,1,.035,1.535l-5.423,5.44a1.112,1.112,0,1,1-1.575-1.569Z" transform="translate(-3.375 -3.375)" fill="#ffba00"/></g></g><path d="M19.375,3.375a16,16,0,1,0,16,16A16,16,0,0,0,19.375,3.375Zm6.962,17.231H20.606v5.731a1.231,1.231,0,0,1-2.462,0V20.606H12.413a1.231,1.231,0,1,1,0-2.462h5.731V12.413a1.231,1.231,0,1,1,2.462,0v5.731h5.731a1.231,1.231,0,1,1,0,2.462Z" transform="translate(562.625 883.625)" fill="#ffba00"/><path d="M16,32A16,16,0,0,1,4.686,4.686,16,16,0,1,1,27.314,27.314,15.9,15.9,0,0,1,16,32ZM12.257,20.76h0a5.969,5.969,0,0,0,1.39.8l.328,2.12a.4.4,0,0,0,.409.32h3.273a.439.439,0,0,0,.409-.32l.328-2.12a6.835,6.835,0,0,0,1.391-.8l2.046.8a.446.446,0,0,0,.162.031.363.363,0,0,0,.329-.191l1.636-2.76a.479.479,0,0,0-.082-.52l-1.8-1.319a4.962,4.962,0,0,0,.041-.8c0-.14-.011-.272-.021-.4s-.021-.26-.021-.4l1.718-1.32a.368.368,0,0,0,.082-.519L22.239,10.6a.4.4,0,0,0-.347-.191.333.333,0,0,0-.144.031l-2.045.8a5.963,5.963,0,0,0-1.391-.8l-.286-2.12a.44.44,0,0,0-.41-.32H14.343a.44.44,0,0,0-.409.32l-.327,2.12a6.785,6.785,0,0,0-1.391.8l-2.046-.8a.446.446,0,0,0-.162-.031.364.364,0,0,0-.33.191l-1.636,2.76a.487.487,0,0,0,.082.519l1.76,1.32c0,.14-.011.272-.021.4s-.021.26-.021.4.011.272.021.4.021.26.021.4L8.166,18.12a.37.37,0,0,0-.082.52L9.72,21.4a.4.4,0,0,0,.347.191.333.333,0,0,0,.144-.031l2.045-.8Zm3.722-1.96a2.882,2.882,0,0,1-2.03-.815,2.78,2.78,0,0,1,0-3.97,2.937,2.937,0,0,1,4.061,0,2.78,2.78,0,0,1,0,3.97A2.882,2.882,0,0,1,15.979,18.8Z" transform="translate(622 887)" fill="#ffba00"/><path d="M19,3A16,16,0,1,0,35,19,16,16,0,0,0,19,3Zm4.054,21.792L19,20.738l-4.054,4.054a1.229,1.229,0,1,1-1.738-1.738L17.262,19l-4.054-4.054a1.229,1.229,0,0,1,1.738-1.738L19,17.262l4.054-4.054a1.229,1.229,0,0,1,1.738,1.738L20.738,19l4.054,4.054a1.235,1.235,0,0,1,0,1.738A1.221,1.221,0,0,1,23.054,24.792Z" transform="translate(675 884)" fill="#ffba00"/><path d="M-3856,32a15.9,15.9,0,0,1-11.314-4.686A15.894,15.894,0,0,1-3872,16a15.894,15.894,0,0,1,4.687-11.313A15.9,15.9,0,0,1-3856,0a15.9,15.9,0,0,1,11.313,4.686A15.9,15.9,0,0,1-3840,16a15.9,15.9,0,0,1-4.686,11.314A15.9,15.9,0,0,1-3856,32Zm6-18a2,2,0,0,0-2,2,2,2,0,0,0,2,2,2,2,0,0,0,2-2A2,2,0,0,0-3850,14Zm-6,0a2,2,0,0,0-2,2,2,2,0,0,0,2,2,2,2,0,0,0,2-2A2,2,0,0,0-3856,14Zm-6,0a2,2,0,0,0-2,2,2,2,0,0,0,2,2,2,2,0,0,0,2-2A2,2,0,0,0-3862,14Z" transform="translate(4606 887)" fill="#ffba00"/><g transform="translate(402 -90)"><g transform="matrix(1, 0, 0, 1, -402, 90)" filter="url(#ag)"><rect width="330" height="80" rx="24" transform="translate(1527 938)" fill="#fff"/></g><text transform="translate(1213 1063)" fill="#262626" font-size="16" font-family="AvenirNext-Bold, Avenir Next" font-weight="700"><tspan x="0" y="0">Song Title</tspan></text><text transform="translate(1213 1084)" fill="#888" font-size="14" font-family="AvenirNext-Regular, Avenir Next"><tspan x="0" y="0">Aritst</tspan></text><rect width="72" height="32" rx="16" transform="translate(1367 1054)" fill="#ffba00"/><text transform="translate(1407 1075)" fill="#fff" font-size="14" font-family="AvenirNext-Medium, Avenir Next" font-weight="500"><tspan x="0" y="0">1k</tspan></text><rect width="64" height="64" rx="16" transform="translate(1133 1036)" fill="#ccc"/><path d="M3.25,7H.75A.75.75,0,0,0,0,7.75v7.5A.75.75,0,0,0,.75,16h2.5A.75.75,0,0,0,4,15.25V7.75A.75.75,0,0,0,3.25,7ZM2,14.75A.75.75,0,1,1,2.75,14,.75.75,0,0,1,2,14.75Zm10-12.2c0,1.326-.812,2.069-1.04,2.955h3.179A1.867,1.867,0,0,1,16,7.316a2.263,2.263,0,0,1-.607,1.537l0,0A2.61,2.61,0,0,1,15.1,11.34a2.471,2.471,0,0,1-.512,2.336,1.659,1.659,0,0,1-.192,1.395c-.638.916-2.219.929-3.555.929H10.75a8.971,8.971,0,0,1-3.736-.991A4.918,4.918,0,0,0,5.368,14.5.375.375,0,0,1,5,14.128V7.448a.375.375,0,0,1,.111-.266C6.349,5.958,6.881,4.663,7.9,3.647A3.785,3.785,0,0,0,8.69,1.806C8.829,1.228,9.119,0,9.75,0,10.5,0,12,.25,12,2.545Z" transform="translate(1383 1062)" fill="#fff"/></g><g transform="translate(352 243)"><g transform="matrix(1, 0, 0, 1, -352, -243)" filter="url(#ai)"><rect width="330" height="80" rx="24" transform="translate(1527 842)" fill="#fff"/></g><text transform="translate(1263 635)" fill="#262626" font-size="16" font-family="AvenirNext-Bold, Avenir Next" font-weight="700"><tspan x="0" y="0">Song Title</tspan></text><text transform="translate(1263 656)" fill="#888" font-size="14" font-family="AvenirNext-Regular, Avenir Next"><tspan x="0" y="0">Artist</tspan></text><rect width="64" height="64" rx="16" transform="translate(1183 607)" fill="#ccc"/><circle cx="24" cy="24" r="24" transform="translate(1441 615)" fill="#ffba00" opacity="0.78"/><text transform="translate(1465 644)" fill="#fff" font-size="14" font-family="AvenirNext-HeavyItalic, Avenir Next" font-weight="800" font-style="italic"><tspan x="-14.595" y="0">780</tspan></text></g><g transform="translate(35 -363)"><g transform="matrix(1, 0, 0, 1, -35, 363)" filter="url(#ak)"><rect width="382" height="120" rx="32" transform="translate(51 61)" fill="#fff"/></g><text transform="translate(212 456)" fill="#262626" font-size="16" font-family="AvenirNext-Bold, Avenir Next" font-weight="700"><tspan x="-24.848" y="0">Item 2</tspan></text><text transform="translate(87 456)" fill="#262626" font-size="16" font-family="AvenirNext-Bold, Avenir Next" font-weight="700"><tspan x="-24.848" y="0">Item 1</tspan></text><text transform="translate(332 456)" fill="#262626" font-size="16" font-family="AvenirNext-Bold, Avenir Next" font-weight="700"><tspan x="-24.848" y="0">Item 3</tspan></text><text transform="translate(212 510)" fill="#ffba00" font-size="24" font-family="AvenirNext-HeavyItalic, Avenir Next" font-weight="800" font-style="italic"><tspan x="-34.752" y="0">Value</tspan></text><text transform="translate(332 495)" fill="#ffba00" font-size="18" font-family="AvenirNext-HeavyItalic, Avenir Next" font-weight="800" font-style="italic"><tspan x="-26.064" y="0">Value</tspan><tspan x="-13.626" y="25">Alt</tspan></text><g transform="translate(-270 238)"><circle cx="24" cy="24" r="24" transform="translate(334 240)" fill="#ffba00" opacity="0.78"/><text transform="translate(358 269)" fill="#fff" font-size="14" font-family="AvenirNext-HeavyItalic, Avenir Next" font-weight="800" font-style="italic"><tspan x="-14.595" y="0">780</tspan></text></g></g><g transform="translate(-32 -1)"><g transform="matrix(1, 0, 0, 1, 32, 1)" filter="url(#am)"><rect width="350" height="106" rx="24" transform="translate(67 914)" fill="#fff"/></g><text transform="translate(128 952)" fill="#888" font-size="16" font-family="AvenirNext-Regular, Avenir Next"><tspan x="0" y="0">Selector</tspan></text><path d="M318,.5H0A.5.5,0,0,1-.5,0,.5.5,0,0,1,0-.5H318a.5.5,0,0,1,.5.5A.5.5,0,0,1,318,.5Z" transform="translate(115 968)" fill="#aaa"/><rect width="87" height="32" rx="8" transform="translate(346 931)" fill="#eee"/><text transform="translate(378 952)" fill="#262626" font-size="14" font-family="AvenirNext-Bold, Avenir Next" font-weight="700"><tspan x="-15.47" y="0">Item</tspan></text><path d="M3.375,11.375a8,8,0,1,0,8-8A8,8,0,0,0,3.375,11.375ZM14.494,9.706a.745.745,0,0,1,1.05,0,.733.733,0,0,1,.215.523.746.746,0,0,1-.219.527l-3.627,3.615a.741.741,0,0,1-1.023-.023L7.21,10.679a.742.742,0,1,1,1.05-1.05l3.119,3.15Z" transform="translate(405.625 935.625)" fill="#888"/><text transform="translate(128 994)" fill="#888" font-size="16" font-family="AvenirNext-Regular, Avenir Next"><tspan x="0" y="0">Selector 2</tspan></text><rect width="99" height="32" rx="8" transform="translate(334 973)" fill="#eee"/><text transform="translate(393 994)" fill="#262626" font-size="14" font-family="AvenirNext-Bold, Avenir Next" font-weight="700"><tspan x="-43.484" y="0">Item 2</tspan></text><path d="M3.375,11.375a8,8,0,1,0,8-8A8,8,0,0,0,3.375,11.375ZM14.494,9.706a.745.745,0,0,1,1.05,0,.733.733,0,0,1,.215.523.746.746,0,0,1-.219.527l-3.627,3.615a.741.741,0,0,1-1.023-.023L7.21,10.679a.742.742,0,1,1,1.05-1.05l3.119,3.15Z" transform="translate(405.625 977.625)" fill="#888"/><rect width="99" height="32" rx="8" transform="translate(227 973)" fill="#eee"/><text transform="translate(286 994)" fill="#262626" font-size="14" font-family="AvenirNext-Bold, Avenir Next" font-weight="700"><tspan x="-43.484" y="0">Item 1</tspan></text><path d="M3.375,11.375a8,8,0,1,0,8-8A8,8,0,0,0,3.375,11.375ZM14.494,9.706a.745.745,0,0,1,1.05,0,.733.733,0,0,1,.215.523.746.746,0,0,1-.219.527l-3.627,3.615a.741.741,0,0,1-1.023-.023L7.21,10.679a.742.742,0,1,1,1.05-1.05l3.119,3.15Z" transform="translate(298.625 977.625)" fill="#888"/></g><rect width="64" height="64" rx="16" transform="translate(916 711)" fill="#ffba00"/><rect width="64" height="64" rx="16" transform="translate(916 810)" fill="#eee"/><rect width="64" height="64" rx="16" transform="translate(1108 810)" fill="#aaa"/><rect width="64" height="64" rx="16" transform="translate(1108 711)" fill="#262626"/><g transform="matrix(1, 0, 0, 1, 0, 0)" filter="url(#ao)"><rect width="64" height="64" rx="16" transform="translate(1012 810)" fill="#fafafa"/></g><g transform="matrix(1, 0, 0, 1, 0, 0)" filter="url(#aq)"><rect width="64" height="64" rx="16" transform="translate(1012 711)" fill="#fff"/></g><rect width="64" height="64" rx="16" transform="translate(916 909)" fill="#888"/><rect width="64" height="64" rx="16" transform="translate(1012 909)" fill="#82c911"/><rect width="64" height="64" rx="16" transform="translate(1108 909)" fill="#ff6d41"/><text transform="translate(974 797)" fill="#262626" font-size="14" font-family="AvenirNext-Regular, Avenir Next"><tspan x="-58.464" y="0">#FFBA00</tspan></text><text transform="translate(1108 896)" fill="#262626" font-size="14" font-family="AvenirNext-Regular, Avenir Next"><tspan x="0" y="0">#AAAAAA</tspan></text><text transform="translate(1108 797)" fill="#262626" font-size="14" font-family="AvenirNext-Regular, Avenir Next"><tspan x="0" y="0">#262626</tspan></text><text transform="translate(1012 995)" fill="#262626" font-size="14" font-family="AvenirNext-Regular, Avenir Next"><tspan x="0" y="0">#82C911</tspan></text><text transform="translate(916 896)" fill="#262626" font-size="14" font-family="AvenirNext-Regular, Avenir Next"><tspan x="0" y="0">#EEEEEE</tspan></text><text transform="translate(916 995)" fill="#262626" font-size="14" font-family="AvenirNext-Regular, Avenir Next"><tspan x="0" y="0">#888888</tspan></text><text transform="translate(1108 995)" fill="#262626" font-size="14" font-family="AvenirNext-Regular, Avenir Next"><tspan x="0" y="0">#FF6D41</tspan></text><text transform="translate(1012 896)" fill="#262626" font-size="14" font-family="AvenirNext-Regular, Avenir Next"><tspan x="0" y="0">#FAFAFA</tspan></text><text transform="translate(1012 797)" fill="#262626" font-size="14" font-family="AvenirNext-Regular, Avenir Next"><tspan x="0" y="0">#FFFFFF</tspan></text></g></svg>